<svg class="railroad-diagram" height="62" viewBox="0 0 1008.5 62" width="1008.5" xmlns="http://www.w3.org/2000/svg" xmlns:xlink="http://www.w3.org/1999/xlink">
<g transform="translate(.5 .5)">
<g>
<path d="M20 21v20m10 -20v20m-10 -10h20" /></g><path d="M40 31h10" /><g>
<path d="M50 31h0.0" /><path d="M958.5 31h0.0" /><g class="non-terminal ">
<path d="M50.0 31h0.0" /><path d="M223.0 31h0.0" /><rect fill="rgb(0, 255, 0)" height="22" width="173" x="50" y="20"></rect><text x="136.5" y="35">(type_parameters?:</text></g><path d="M223.0 31h10" /><path d="M233.0 31h10" /><g class="non-terminal ">
<path d="M243.0 31h0.0" /><path d="M399.0 31h0.0" /><rect fill="rgb(0, 255, 0)" height="22" width="156" x="243" y="20"></rect><text x="321" y="35">type_parameters)</text></g><path d="M399.0 31h10" /><path d="M409.0 31h10" /><g class="non-terminal ">
<path d="M419.0 31h0.0" /><path d="M541.0 31h0.0" /><rect fill="rgb(0, 255, 0)" height="22" width="122" x="419" y="20"></rect><text x="480" y="35">(identifier:</text></g><path d="M541.0 31h10" /><path d="M551.0 31h10" /><g class="non-terminal ">
<path d="M561.0 31h0.0" /><path d="M623.5 31h0.0" /><rect fill="rgb(0, 255, 0)" height="22" width="62.5" x="561" y="20"></rect><text x="592.25" y="35">name)</text></g><path d="M623.5 31h10" /><path d="M633.5 31h10" /><g class="non-terminal ">
<path d="M643.5 31h0.0" /><path d="M825.0 31h0.0" /><rect fill="rgb(0, 255, 0)" height="22" width="181.5" x="643.5" y="20"></rect><text x="734.25" y="35">(formal_parameters:</text></g><path d="M825.0 31h10" /><path d="M835.0 31h10" /><g class="non-terminal ">
<path d="M845.0 31h0.0" /><path d="M958.5 31h0.0" /><rect fill="rgb(0, 255, 0)" height="22" width="113.5" x="845" y="20"></rect><text x="901.75" y="35">parameters)</text></g></g><path d="M958.5 31h10" /><path d="M 968.5 31 h 20 m -10 -10 v 20 m 10 -20 v 20"></path></g><style>/* <![CDATA[ */
	svg.railroad-diagram {
		background-color:hsl(30,20%,95%);
	}
	svg.railroad-diagram path {
		stroke-width:3;
		stroke:black;
		fill:rgba(0,0,0,0);
	}
	svg.railroad-diagram text {
		font:bold 14px monospace;
		text-anchor:middle;
	}
	svg.railroad-diagram text.label{
		text-anchor:start;
	}
	svg.railroad-diagram text.comment{
		font:italic 12px monospace;
	}
	svg.railroad-diagram rect{
		stroke-width:3;
		stroke:black;
		fill:hsl(120,100%,90%);
	}
	svg.railroad-diagram rect.group-box {
		stroke: gray;
		stroke-dasharray: 10 5;
		fill: none;
	}

/* ]]> */
</style></svg>