<svg class="railroad-diagram" height="62" viewBox="0 0 773.0 62" width="773.0" xmlns="http://www.w3.org/2000/svg" xmlns:xlink="http://www.w3.org/1999/xlink">
<g transform="translate(.5 .5)">
<g>
<path d="M20 21v20m10 -20v20m-10 -10h20" /></g><path d="M40 31h10" /><g>
<path d="M50 31h0.0" /><path d="M723.0 31h0.0" /><g class="non-terminal ">
<path d="M50.0 31h0.0" /><path d="M180.5 31h0.0" /><rect fill="rgb(0, 255, 0)" height="22" width="130.5" x="50" y="20"></rect><text x="115.25" y="35">~2(expression</text></g><path d="M180.5 31h10" /><path d="M190.5 31h10" /><g class="non-terminal ">
<path d="M200.5 31h0.0" /><path d="M229.0 31h0.0" /><rect fill="rgb(0, 255, 0)" height="22" width="28.5" x="200.5" y="20"></rect><text x="214.75" y="35">|</text></g><path d="M229.0 31h10" /><path d="M239.0 31h10" /><g class="non-terminal ">
<path d="M249.0 31h0.0" /><path d="M532.5 31h0.0" /><rect fill="rgb(0, 255, 0)" height="22" width="283.5" x="249" y="20"></rect><text x="390.75" y="35">element_value_array_initializer</text></g><path d="M532.5 31h10" /><path d="M542.5 31h10" /><g class="non-terminal ">
<path d="M552.5 31h0.0" /><path d="M581.0 31h0.0" /><rect fill="rgb(0, 255, 0)" height="22" width="28.5" x="552.5" y="20"></rect><text x="566.75" y="35">|</text></g><path d="M581.0 31h10" /><path d="M591.0 31h10" /><g class="non-terminal ">
<path d="M601.0 31h0.0" /><path d="M723.0 31h0.0" /><rect fill="rgb(0, 255, 0)" height="22" width="122" x="601" y="20"></rect><text x="662" y="35">_annotation)</text></g></g><path d="M723.0 31h10" /><path d="M 733.0 31 h 20 m -10 -10 v 20 m 10 -20 v 20"></path></g><style>/* <![CDATA[ */
	svg.railroad-diagram {
		background-color:hsl(30,20%,95%);
	}
	svg.railroad-diagram path {
		stroke-width:3;
		stroke:black;
		fill:rgba(0,0,0,0);
	}
	svg.railroad-diagram text {
		font:bold 14px monospace;
		text-anchor:middle;
	}
	svg.railroad-diagram text.label{
		text-anchor:start;
	}
	svg.railroad-diagram text.comment{
		font:italic 12px monospace;
	}
	svg.railroad-diagram rect{
		stroke-width:3;
		stroke:black;
		fill:hsl(120,100%,90%);
	}
	svg.railroad-diagram rect.group-box {
		stroke: gray;
		stroke-dasharray: 10 5;
		fill: none;
	}

/* ]]> */
</style></svg>