<svg class="railroad-diagram" height="62" viewBox="0 0 2645.5 62" width="2645.5" xmlns="http://www.w3.org/2000/svg" xmlns:xlink="http://www.w3.org/1999/xlink">
<g transform="translate(.5 .5)">
<g>
<path d="M20 21v20m10 -20v20m-10 -10h20" /></g><path d="M40 31h10" /><g>
<path d="M50 31h0.0" /><path d="M2595.5 31h0.0" /><g class="non-terminal ">
<path d="M50.0 31h0.0" /><path d="M265.5 31h0.0" /><rect fill="rgb(0, 255, 0)" height="22" width="215.5" x="50" y="20"></rect><text x="157.75" y="35">decimal_integer_literal</text></g><path d="M265.5 31h10" /><path d="M275.5 31h10" /><g class="non-terminal ">
<path d="M285.5 31h0.0" /><path d="M314.0 31h0.0" /><rect fill="rgb(0, 255, 0)" height="22" width="28.5" x="285.5" y="20"></rect><text x="299.75" y="35">|</text></g><path d="M314.0 31h10" /><path d="M324.0 31h10" /><g class="non-terminal ">
<path d="M334.0 31h0.0" /><path d="M515.5 31h0.0" /><rect fill="rgb(0, 255, 0)" height="22" width="181.5" x="334" y="20"></rect><text x="424.75" y="35">hex_integer_literal</text></g><path d="M515.5 31h10" /><path d="M525.5 31h10" /><g class="non-terminal ">
<path d="M535.5 31h0.0" /><path d="M564.0 31h0.0" /><rect fill="rgb(0, 255, 0)" height="22" width="28.5" x="535.5" y="20"></rect><text x="549.75" y="35">|</text></g><path d="M564.0 31h10" /><path d="M574.0 31h10" /><g class="non-terminal ">
<path d="M584.0 31h0.0" /><path d="M782.5 31h0.0" /><rect fill="rgb(0, 255, 0)" height="22" width="198.5" x="584" y="20"></rect><text x="683.25" y="35">octal_integer_literal</text></g><path d="M782.5 31h10" /><path d="M792.5 31h10" /><g class="non-terminal ">
<path d="M802.5 31h0.0" /><path d="M831.0 31h0.0" /><rect fill="rgb(0, 255, 0)" height="22" width="28.5" x="802.5" y="20"></rect><text x="816.75" y="35">|</text></g><path d="M831.0 31h10" /><path d="M841.0 31h10" /><g class="non-terminal ">
<path d="M851.0 31h0.0" /><path d="M1058.0 31h0.0" /><rect fill="rgb(0, 255, 0)" height="22" width="207" x="851" y="20"></rect><text x="954.5" y="35">binary_integer_literal</text></g><path d="M1058.0 31h10" /><path d="M1068.0 31h10" /><g class="non-terminal ">
<path d="M1078.0 31h0.0" /><path d="M1106.5 31h0.0" /><rect fill="rgb(0, 255, 0)" height="22" width="28.5" x="1078" y="20"></rect><text x="1092.25" y="35">|</text></g><path d="M1106.5 31h10" /><path d="M1116.5 31h10" /><g class="non-terminal ">
<path d="M1126.5 31h0.0" /><path d="M1401.5 31h0.0" /><rect fill="rgb(0, 255, 0)" height="22" width="275" x="1126.5" y="20"></rect><text x="1264" y="35">decimal_floating_point_literal</text></g><path d="M1401.5 31h10" /><path d="M1411.5 31h10" /><g class="non-terminal ">
<path d="M1421.5 31h0.0" /><path d="M1450.0 31h0.0" /><rect fill="rgb(0, 255, 0)" height="22" width="28.5" x="1421.5" y="20"></rect><text x="1435.75" y="35">|</text></g><path d="M1450.0 31h10" /><path d="M1460.0 31h10" /><g class="non-terminal ">
<path d="M1470.0 31h0.0" /><path d="M1711.0 31h0.0" /><rect fill="rgb(0, 255, 0)" height="22" width="241" x="1470" y="20"></rect><text x="1590.5" y="35">hex_floating_point_literal</text></g><path d="M1711.0 31h10" /><path d="M1721.0 31h10" /><g class="non-terminal ">
<path d="M1731.0 31h0.0" /><path d="M1759.5 31h0.0" /><rect fill="rgb(0, 255, 0)" height="22" width="28.5" x="1731" y="20"></rect><text x="1745.25" y="35">|</text></g><path d="M1759.5 31h10" /><path d="M1769.5 31h10" /><g class="non-terminal ">
<path d="M1779.5 31h0.0" /><path d="M1833.5 31h0.0" /><rect fill="rgb(0, 255, 0)" height="22" width="54" x="1779.5" y="20"></rect><text x="1806.5" y="35">true</text></g><path d="M1833.5 31h10" /><path d="M1843.5 31h10" /><g class="non-terminal ">
<path d="M1853.5 31h0.0" /><path d="M1882.0 31h0.0" /><rect fill="rgb(0, 255, 0)" height="22" width="28.5" x="1853.5" y="20"></rect><text x="1867.75" y="35">|</text></g><path d="M1882.0 31h10" /><path d="M1892.0 31h10" /><g class="non-terminal ">
<path d="M1902.0 31h0.0" /><path d="M1964.5 31h0.0" /><rect fill="rgb(0, 255, 0)" height="22" width="62.5" x="1902" y="20"></rect><text x="1933.25" y="35">false</text></g><path d="M1964.5 31h10" /><path d="M1974.5 31h10" /><g class="non-terminal ">
<path d="M1984.5 31h0.0" /><path d="M2013.0 31h0.0" /><rect fill="rgb(0, 255, 0)" height="22" width="28.5" x="1984.5" y="20"></rect><text x="1998.75" y="35">|</text></g><path d="M2013.0 31h10" /><path d="M2023.0 31h10" /><g class="non-terminal ">
<path d="M2033.0 31h0.0" /><path d="M2197.5 31h0.0" /><rect fill="rgb(0, 255, 0)" height="22" width="164.5" x="2033" y="20"></rect><text x="2115.25" y="35">character_literal</text></g><path d="M2197.5 31h10" /><path d="M2207.5 31h10" /><g class="non-terminal ">
<path d="M2217.5 31h0.0" /><path d="M2246.0 31h0.0" /><rect fill="rgb(0, 255, 0)" height="22" width="28.5" x="2217.5" y="20"></rect><text x="2231.75" y="35">|</text></g><path d="M2246.0 31h10" /><path d="M2256.0 31h10" /><g class="non-terminal ">
<path d="M2266.0 31h0.0" /><path d="M2405.0 31h0.0" /><rect fill="rgb(0, 255, 0)" height="22" width="139" x="2266" y="20"></rect><text x="2335.5" y="35">string_literal</text></g><path d="M2405.0 31h10" /><path d="M2415.0 31h10" /><g class="non-terminal ">
<path d="M2425.0 31h0.0" /><path d="M2453.5 31h0.0" /><rect fill="rgb(0, 255, 0)" height="22" width="28.5" x="2425" y="20"></rect><text x="2439.25" y="35">|</text></g><path d="M2453.5 31h10" /><path d="M2463.5 31h10" /><g class="non-terminal ">
<path d="M2473.5 31h0.0" /><path d="M2595.5 31h0.0" /><rect fill="rgb(0, 255, 0)" height="22" width="122" x="2473.5" y="20"></rect><text x="2534.5" y="35">null_literal</text></g></g><path d="M2595.5 31h10" /><path d="M 2605.5 31 h 20 m -10 -10 v 20 m 10 -20 v 20"></path></g><style>/* <![CDATA[ */
	svg.railroad-diagram {
		background-color:hsl(30,20%,95%);
	}
	svg.railroad-diagram path {
		stroke-width:3;
		stroke:black;
		fill:rgba(0,0,0,0);
	}
	svg.railroad-diagram text {
		font:bold 14px monospace;
		text-anchor:middle;
	}
	svg.railroad-diagram text.label{
		text-anchor:start;
	}
	svg.railroad-diagram text.comment{
		font:italic 12px monospace;
	}
	svg.railroad-diagram rect{
		stroke-width:3;
		stroke:black;
		fill:hsl(120,100%,90%);
	}
	svg.railroad-diagram rect.group-box {
		stroke: gray;
		stroke-dasharray: 10 5;
		fill: none;
	}

/* ]]> */
</style></svg>