<svg class="railroad-diagram" height="62" viewBox="0 0 1199.0 62" width="1199.0" xmlns="http://www.w3.org/2000/svg" xmlns:xlink="http://www.w3.org/1999/xlink">
<g transform="translate(.5 .5)">
<g>
<path d="M20 21v20m10 -20v20m-10 -10h20" /></g><path d="M40 31h10" /><g>
<path d="M50 31h0.0" /><path d="M1149.0 31h0.0" /><g class="non-terminal ">
<path d="M50.0 31h0.0" /><path d="M172.0 31h0.0" /><rect fill="rgb(0, 255, 0)" height="22" width="122" x="50" y="20"></rect><text x="111" y="35">((identifier</text></g><path d="M172.0 31h10" /><path d="M182.0 31h10" /><g class="non-terminal ">
<path d="M192.0 31h0.0" /><path d="M220.5 31h0.0" /><rect fill="rgb(0, 255, 0)" height="22" width="28.5" x="192" y="20"></rect><text x="206.25" y="35">|</text></g><path d="M220.5 31h10" /><path d="M230.5 31h10" /><g class="non-terminal ">
<path d="M240.5 31h0.0" /><path d="M447.5 31h0.0" /><rect fill="rgb(0, 255, 0)" height="22" width="207" x="240.5" y="20"></rect><text x="344" y="35">_reserved_identifier):</text></g><path d="M447.5 31h10" /><path d="M457.5 31h10" /><g class="non-terminal ">
<path d="M467.5 31h0.0" /><path d="M530.0 31h0.0" /><rect fill="rgb(0, 255, 0)" height="22" width="62.5" x="467.5" y="20"></rect><text x="498.75" y="35">name)</text></g><path d="M530.0 31h10" /><path d="M540.0 31h10" /><g class="non-terminal ">
<path d="M550.0 31h0.0" /><path d="M731.5 31h0.0" /><rect fill="rgb(0, 255, 0)" height="22" width="181.5" x="550" y="20"></rect><text x="640.75" y="35">(formal_parameters:</text></g><path d="M731.5 31h10" /><path d="M741.5 31h10" /><g class="non-terminal ">
<path d="M751.5 31h0.0" /><path d="M865.0 31h0.0" /><rect fill="rgb(0, 255, 0)" height="22" width="113.5" x="751.5" y="20"></rect><text x="808.25" y="35">parameters)</text></g><path d="M865.0 31h10" /><path d="M875.0 31h10" /><g class="non-terminal ">
<path d="M885.0 31h0.0" /><path d="M1015.5 31h0.0" /><rect fill="rgb(0, 255, 0)" height="22" width="130.5" x="885" y="20"></rect><text x="950.25" y="35">(dimensions?:</text></g><path d="M1015.5 31h10" /><path d="M1025.5 31h10" /><g class="non-terminal ">
<path d="M1035.5 31h0.0" /><path d="M1149.0 31h0.0" /><rect fill="rgb(0, 255, 0)" height="22" width="113.5" x="1035.5" y="20"></rect><text x="1092.25" y="35">dimensions)</text></g></g><path d="M1149.0 31h10" /><path d="M 1159.0 31 h 20 m -10 -10 v 20 m 10 -20 v 20"></path></g><style>/* <![CDATA[ */
	svg.railroad-diagram {
		background-color:hsl(30,20%,95%);
	}
	svg.railroad-diagram path {
		stroke-width:3;
		stroke:black;
		fill:rgba(0,0,0,0);
	}
	svg.railroad-diagram text {
		font:bold 14px monospace;
		text-anchor:middle;
	}
	svg.railroad-diagram text.label{
		text-anchor:start;
	}
	svg.railroad-diagram text.comment{
		font:italic 12px monospace;
	}
	svg.railroad-diagram rect{
		stroke-width:3;
		stroke:black;
		fill:hsl(120,100%,90%);
	}
	svg.railroad-diagram rect.group-box {
		stroke: gray;
		stroke-dasharray: 10 5;
		fill: none;
	}

/* ]]> */
</style></svg>