<svg class="railroad-diagram" height="62" viewBox="0 0 844.5 62" width="844.5" xmlns="http://www.w3.org/2000/svg" xmlns:xlink="http://www.w3.org/1999/xlink">
<g transform="translate(.5 .5)">
<g>
<path d="M20 21v20m10 -20v20m-10 -10h20" /></g><path d="M40 31h10" /><g>
<path d="M50 31h0.0" /><path d="M794.5 31h0.0" /><g class="terminal ">
<path d="M50.0 31h0.0" /><path d="M78.5 31h0.0" /><rect fill="rgb(0, 255, 0)" height="22" width="28.5" x="50" y="20"></rect><text x="64.25" y="35">&quot;</text></g><path d="M78.5 31h10" /><path d="M88.5 31h10" /><g class="non-terminal ">
<path d="M98.5 31h0.0" /><path d="M254.5 31h0.0" /><rect fill="rgb(0, 255, 0)" height="22" width="156" x="98.5" y="20"></rect><text x="176.5" y="35">(string_fragment</text></g><path d="M254.5 31h10" /><path d="M264.5 31h10" /><g class="non-terminal ">
<path d="M274.5 31h0.0" /><path d="M303.0 31h0.0" /><rect fill="rgb(0, 255, 0)" height="22" width="28.5" x="274.5" y="20"></rect><text x="288.75" y="35">|</text></g><path d="M303.0 31h10" /><path d="M313.0 31h10" /><g class="non-terminal ">
<path d="M323.0 31h0.0" /><path d="M470.5 31h0.0" /><rect fill="rgb(0, 255, 0)" height="22" width="147.5" x="323" y="20"></rect><text x="396.75" y="35">escape_sequence</text></g><path d="M470.5 31h10" /><path d="M480.5 31h10" /><g class="non-terminal ">
<path d="M490.5 31h0.0" /><path d="M519.0 31h0.0" /><rect fill="rgb(0, 255, 0)" height="22" width="28.5" x="490.5" y="20"></rect><text x="504.75" y="35">|</text></g><path d="M519.0 31h10" /><path d="M529.0 31h10" /><g class="non-terminal ">
<path d="M539.0 31h0.0" /><path d="M746.0 31h0.0" /><rect fill="rgb(0, 255, 0)" height="22" width="207" x="539" y="20"></rect><text x="642.5" y="35">string_interpolation)*</text></g><path d="M746.0 31h10" /><path d="M756.0 31h10" /><g class="terminal ">
<path d="M766.0 31h0.0" /><path d="M794.5 31h0.0" /><rect fill="rgb(0, 255, 0)" height="22" width="28.5" x="766" y="20"></rect><text x="780.25" y="35">&quot;</text></g></g><path d="M794.5 31h10" /><path d="M 804.5 31 h 20 m -10 -10 v 20 m 10 -20 v 20"></path></g><style>/* <![CDATA[ */
	svg.railroad-diagram {
		background-color:hsl(30,20%,95%);
	}
	svg.railroad-diagram path {
		stroke-width:3;
		stroke:black;
		fill:rgba(0,0,0,0);
	}
	svg.railroad-diagram text {
		font:bold 14px monospace;
		text-anchor:middle;
	}
	svg.railroad-diagram text.label{
		text-anchor:start;
	}
	svg.railroad-diagram text.comment{
		font:italic 12px monospace;
	}
	svg.railroad-diagram rect{
		stroke-width:3;
		stroke:black;
		fill:hsl(120,100%,90%);
	}
	svg.railroad-diagram rect.group-box {
		stroke: gray;
		stroke-dasharray: 10 5;
		fill: none;
	}

/* ]]> */
</style></svg>