<svg class="railroad-diagram" height="62" viewBox="0 0 1105.5 62" width="1105.5" xmlns="http://www.w3.org/2000/svg" xmlns:xlink="http://www.w3.org/1999/xlink">
<g transform="translate(.5 .5)">
<g>
<path d="M20 21v20m10 -20v20m-10 -10h20" /></g><path d="M40 31h10" /><g>
<path d="M50 31h0.0" /><path d="M1055.5 31h0.0" /><g class="non-terminal ">
<path d="M50.0 31h0.0" /><path d="M172.0 31h0.0" /><rect fill="rgb(0, 255, 0)" height="22" width="122" x="50" y="20"></rect><text x="111" y="35">((identifier</text></g><path d="M172.0 31h10" /><path d="M182.0 31h10" /><g class="non-terminal ">
<path d="M192.0 31h0.0" /><path d="M220.5 31h0.0" /><rect fill="rgb(0, 255, 0)" height="22" width="28.5" x="192" y="20"></rect><text x="206.25" y="35">|</text></g><path d="M220.5 31h10" /><path d="M230.5 31h10" /><g class="non-terminal ">
<path d="M240.5 31h0.0" /><path d="M430.5 31h0.0" /><rect fill="rgb(0, 255, 0)" height="22" width="190" x="240.5" y="20"></rect><text x="335.5" y="35">_reserved_identifier</text></g><path d="M430.5 31h10" /><path d="M440.5 31h10" /><g class="non-terminal ">
<path d="M450.5 31h0.0" /><path d="M479.0 31h0.0" /><rect fill="rgb(0, 255, 0)" height="22" width="28.5" x="450.5" y="20"></rect><text x="464.75" y="35">|</text></g><path d="M479.0 31h10" /><path d="M489.0 31h10" /><g class="non-terminal ">
<path d="M499.0 31h0.0" /><path d="M689.0 31h0.0" /><rect fill="rgb(0, 255, 0)" height="22" width="190" x="499" y="20"></rect><text x="594" y="35">underscore_pattern):</text></g><path d="M689.0 31h10" /><path d="M699.0 31h10" /><g class="non-terminal ">
<path d="M709.0 31h0.0" /><path d="M771.5 31h0.0" /><rect fill="rgb(0, 255, 0)" height="22" width="62.5" x="709" y="20"></rect><text x="740.25" y="35">name)</text></g><path d="M771.5 31h10" /><path d="M781.5 31h10" /><g class="non-terminal ">
<path d="M791.5 31h0.0" /><path d="M922.0 31h0.0" /><rect fill="rgb(0, 255, 0)" height="22" width="130.5" x="791.5" y="20"></rect><text x="856.75" y="35">(dimensions?:</text></g><path d="M922.0 31h10" /><path d="M932.0 31h10" /><g class="non-terminal ">
<path d="M942.0 31h0.0" /><path d="M1055.5 31h0.0" /><rect fill="rgb(0, 255, 0)" height="22" width="113.5" x="942" y="20"></rect><text x="998.75" y="35">dimensions)</text></g></g><path d="M1055.5 31h10" /><path d="M 1065.5 31 h 20 m -10 -10 v 20 m 10 -20 v 20"></path></g><style>/* <![CDATA[ */
	svg.railroad-diagram {
		background-color:hsl(30,20%,95%);
	}
	svg.railroad-diagram path {
		stroke-width:3;
		stroke:black;
		fill:rgba(0,0,0,0);
	}
	svg.railroad-diagram text {
		font:bold 14px monospace;
		text-anchor:middle;
	}
	svg.railroad-diagram text.label{
		text-anchor:start;
	}
	svg.railroad-diagram text.comment{
		font:italic 12px monospace;
	}
	svg.railroad-diagram rect{
		stroke-width:3;
		stroke:black;
		fill:hsl(120,100%,90%);
	}
	svg.railroad-diagram rect.group-box {
		stroke: gray;
		stroke-dasharray: 10 5;
		fill: none;
	}

/* ]]> */
</style></svg>