<svg class="railroad-diagram" height="62" viewBox="0 0 875.0 62" width="875.0" xmlns="http://www.w3.org/2000/svg" xmlns:xlink="http://www.w3.org/1999/xlink">
<g transform="translate(.5 .5)">
<g>
<path d="M20 21v20m10 -20v20m-10 -10h20" /></g><path d="M40 31h10" /><g>
<path d="M50 31h0.0" /><path d="M825.0 31h0.0" /><g class="non-terminal ">
<path d="M50.0 31h0.0" /><path d="M248.5 31h0.0" /><rect fill="rgb(0, 255, 0)" height="22" width="198.5" x="50" y="20"></rect><text x="149.25" y="35">(variable_declarator:</text></g><path d="M248.5 31h10" /><path d="M258.5 31h10" /><g class="non-terminal ">
<path d="M268.5 31h0.0" /><path d="M382.0 31h0.0" /><rect fill="rgb(0, 255, 0)" height="22" width="113.5" x="268.5" y="20"></rect><text x="325.25" y="35">declarator)</text></g><path d="M382.0 31h10" /><path d="M392.0 31h10" /><g class="non-terminal ">
<path d="M402.0 31h0.0" /><path d="M456.0 31h0.0" /><rect fill="rgb(0, 255, 0)" height="22" width="54" x="402" y="20"></rect><text x="429" y="35">(&apos;,&apos;</text></g><path d="M456.0 31h10" /><path d="M466.0 31h10" /><g class="non-terminal ">
<path d="M476.0 31h0.0" /><path d="M674.5 31h0.0" /><rect fill="rgb(0, 255, 0)" height="22" width="198.5" x="476" y="20"></rect><text x="575.25" y="35">(variable_declarator:</text></g><path d="M674.5 31h10" /><path d="M684.5 31h10" /><g class="non-terminal ">
<path d="M694.5 31h0.0" /><path d="M825.0 31h0.0" /><rect fill="rgb(0, 255, 0)" height="22" width="130.5" x="694.5" y="20"></rect><text x="759.75" y="35">declarator))*</text></g></g><path d="M825.0 31h10" /><path d="M 835.0 31 h 20 m -10 -10 v 20 m 10 -20 v 20"></path></g><style>/* <![CDATA[ */
	svg.railroad-diagram {
		background-color:hsl(30,20%,95%);
	}
	svg.railroad-diagram path {
		stroke-width:3;
		stroke:black;
		fill:rgba(0,0,0,0);
	}
	svg.railroad-diagram text {
		font:bold 14px monospace;
		text-anchor:middle;
	}
	svg.railroad-diagram text.label{
		text-anchor:start;
	}
	svg.railroad-diagram text.comment{
		font:italic 12px monospace;
	}
	svg.railroad-diagram rect{
		stroke-width:3;
		stroke:black;
		fill:hsl(120,100%,90%);
	}
	svg.railroad-diagram rect.group-box {
		stroke: gray;
		stroke-dasharray: 10 5;
		fill: none;
	}

/* ]]> */
</style></svg>