<svg class="railroad-diagram" height="62" viewBox="0 0 864.0 62" width="864.0" xmlns="http://www.w3.org/2000/svg" xmlns:xlink="http://www.w3.org/1999/xlink">
<g transform="translate(.5 .5)">
<g>
<path d="M20 21v20m10 -20v20m-10 -10h20" /></g><path d="M40 31h10" /><g>
<path d="M50 31h0.0" /><path d="M814.0 31h0.0" /><g class="non-terminal ">
<path d="M50.0 31h0.0" /><path d="M155.0 31h0.0" /><rect fill="rgb(0, 255, 0)" height="22" width="105" x="50" y="20"></rect><text x="102.5" y="35">modifiers?</text></g><path d="M155.0 31h10" /><path d="M165.0 31h10" /><g class="terminal ">
<path d="M175.0 31h0.0" /><path d="M280.0 31h0.0" /><rect fill="rgb(0, 255, 0)" height="22" width="105" x="175" y="20"></rect><text x="227.5" y="35">@interface</text></g><path d="M280.0 31h10" /><path d="M290.0 31h10" /><g class="non-terminal ">
<path d="M300.0 31h0.0" /><path d="M422.0 31h0.0" /><rect fill="rgb(0, 255, 0)" height="22" width="122" x="300" y="20"></rect><text x="361" y="35">(identifier:</text></g><path d="M422.0 31h10" /><path d="M432.0 31h10" /><g class="non-terminal ">
<path d="M442.0 31h0.0" /><path d="M504.5 31h0.0" /><rect fill="rgb(0, 255, 0)" height="22" width="62.5" x="442" y="20"></rect><text x="473.25" y="35">name)</text></g><path d="M504.5 31h10" /><path d="M514.5 31h10" /><g class="non-terminal ">
<path d="M524.5 31h0.0" /><path d="M731.5 31h0.0" /><rect fill="rgb(0, 255, 0)" height="22" width="207" x="524.5" y="20"></rect><text x="628" y="35">(annotation_type_body:</text></g><path d="M731.5 31h10" /><path d="M741.5 31h10" /><g class="non-terminal ">
<path d="M751.5 31h0.0" /><path d="M814.0 31h0.0" /><rect fill="rgb(0, 255, 0)" height="22" width="62.5" x="751.5" y="20"></rect><text x="782.75" y="35">body)</text></g></g><path d="M814.0 31h10" /><path d="M 824.0 31 h 20 m -10 -10 v 20 m 10 -20 v 20"></path></g><style>/* <![CDATA[ */
	svg.railroad-diagram {
		background-color:hsl(30,20%,95%);
	}
	svg.railroad-diagram path {
		stroke-width:3;
		stroke:black;
		fill:rgba(0,0,0,0);
	}
	svg.railroad-diagram text {
		font:bold 14px monospace;
		text-anchor:middle;
	}
	svg.railroad-diagram text.label{
		text-anchor:start;
	}
	svg.railroad-diagram text.comment{
		font:italic 12px monospace;
	}
	svg.railroad-diagram rect{
		stroke-width:3;
		stroke:black;
		fill:hsl(120,100%,90%);
	}
	svg.railroad-diagram rect.group-box {
		stroke: gray;
		stroke-dasharray: 10 5;
		fill: none;
	}

/* ]]> */
</style></svg>