<svg class="railroad-diagram" height="62" viewBox="0 0 696.5 62" width="696.5" xmlns="http://www.w3.org/2000/svg" xmlns:xlink="http://www.w3.org/1999/xlink">
<g transform="translate(.5 .5)">
<g>
<path d="M20 21v20m10 -20v20m-10 -10h20" /></g><path d="M40 31h10" /><g>
<path d="M50 31h0.0" /><path d="M646.5 31h0.0" /><g class="terminal ">
<path d="M50.0 31h0.0" /><path d="M78.5 31h0.0" /><rect fill="rgb(0, 255, 0)" height="22" width="28.5" x="50" y="20"></rect><text x="64.25" y="35">@</text></g><path d="M78.5 31h10" /><path d="M88.5 31h10" /><g class="non-terminal ">
<path d="M98.5 31h0.0" /><path d="M178.0 31h0.0" /><rect fill="rgb(0, 255, 0)" height="22" width="79.5" x="98.5" y="20"></rect><text x="138.25" y="35">(_name:</text></g><path d="M178.0 31h10" /><path d="M188.0 31h10" /><g class="non-terminal ">
<path d="M198.0 31h0.0" /><path d="M260.5 31h0.0" /><rect fill="rgb(0, 255, 0)" height="22" width="62.5" x="198" y="20"></rect><text x="229.25" y="35">name)</text></g><path d="M260.5 31h10" /><path d="M270.5 31h10" /><g class="non-terminal ">
<path d="M280.5 31h0.0" /><path d="M521.5 31h0.0" /><rect fill="rgb(0, 255, 0)" height="22" width="241" x="280.5" y="20"></rect><text x="401" y="35">(annotation_argument_list:</text></g><path d="M521.5 31h10" /><path d="M531.5 31h10" /><g class="non-terminal ">
<path d="M541.5 31h0.0" /><path d="M646.5 31h0.0" /><rect fill="rgb(0, 255, 0)" height="22" width="105" x="541.5" y="20"></rect><text x="594" y="35">arguments)</text></g></g><path d="M646.5 31h10" /><path d="M 656.5 31 h 20 m -10 -10 v 20 m 10 -20 v 20"></path></g><style>/* <![CDATA[ */
	svg.railroad-diagram {
		background-color:hsl(30,20%,95%);
	}
	svg.railroad-diagram path {
		stroke-width:3;
		stroke:black;
		fill:rgba(0,0,0,0);
	}
	svg.railroad-diagram text {
		font:bold 14px monospace;
		text-anchor:middle;
	}
	svg.railroad-diagram text.label{
		text-anchor:start;
	}
	svg.railroad-diagram text.comment{
		font:italic 12px monospace;
	}
	svg.railroad-diagram rect{
		stroke-width:3;
		stroke:black;
		fill:hsl(120,100%,90%);
	}
	svg.railroad-diagram rect.group-box {
		stroke: gray;
		stroke-dasharray: 10 5;
		fill: none;
	}

/* ]]> */
</style></svg>