<svg class="railroad-diagram" height="62" viewBox="0 0 665.0 62" width="665.0" xmlns="http://www.w3.org/2000/svg" xmlns:xlink="http://www.w3.org/1999/xlink">
<g transform="translate(.5 .5)">
<g>
<path d="M20 21v20m10 -20v20m-10 -10h20" /></g><path d="M40 31h10" /><g>
<path d="M50 31h0.0" /><path d="M615.0 31h0.0" /><g class="non-terminal ">
<path d="M50.0 31h0.0" /><path d="M231.5 31h0.0" /><rect fill="rgb(0, 255, 0)" height="22" width="181.5" x="50" y="20"></rect><text x="140.75" y="35">(_unannotated_type:</text></g><path d="M231.5 31h10" /><path d="M241.5 31h10" /><g class="non-terminal ">
<path d="M251.5 31h0.0" /><path d="M339.5 31h0.0" /><rect fill="rgb(0, 255, 0)" height="22" width="88" x="251.5" y="20"></rect><text x="295.5" y="35">element)</text></g><path d="M339.5 31h10" /><path d="M349.5 31h10" /><g class="non-terminal ">
<path d="M359.5 31h0.0" /><path d="M481.5 31h0.0" /><rect fill="rgb(0, 255, 0)" height="22" width="122" x="359.5" y="20"></rect><text x="420.5" y="35">(dimensions:</text></g><path d="M481.5 31h10" /><path d="M491.5 31h10" /><g class="non-terminal ">
<path d="M501.5 31h0.0" /><path d="M615.0 31h0.0" /><rect fill="rgb(0, 255, 0)" height="22" width="113.5" x="501.5" y="20"></rect><text x="558.25" y="35">dimensions)</text></g></g><path d="M615.0 31h10" /><path d="M 625.0 31 h 20 m -10 -10 v 20 m 10 -20 v 20"></path></g><style>/* <![CDATA[ */
	svg.railroad-diagram {
		background-color:hsl(30,20%,95%);
	}
	svg.railroad-diagram path {
		stroke-width:3;
		stroke:black;
		fill:rgba(0,0,0,0);
	}
	svg.railroad-diagram text {
		font:bold 14px monospace;
		text-anchor:middle;
	}
	svg.railroad-diagram text.label{
		text-anchor:start;
	}
	svg.railroad-diagram text.comment{
		font:italic 12px monospace;
	}
	svg.railroad-diagram rect{
		stroke-width:3;
		stroke:black;
		fill:hsl(120,100%,90%);
	}
	svg.railroad-diagram rect.group-box {
		stroke: gray;
		stroke-dasharray: 10 5;
		fill: none;
	}

/* ]]> */
</style></svg>