<svg class="railroad-diagram" height="62" viewBox="0 0 804.5 62" width="804.5" xmlns="http://www.w3.org/2000/svg" xmlns:xlink="http://www.w3.org/1999/xlink">
<g transform="translate(.5 .5)">
<g>
<path d="M20 21v20m10 -20v20m-10 -10h20" /></g><path d="M40 31h10" /><g>
<path d="M50 31h0.0" /><path d="M754.5 31h0.0" /><g class="terminal ">
<path d="M50.0 31h0.0" /><path d="M78.5 31h0.0" /><rect fill="rgb(0, 255, 0)" height="22" width="28.5" x="50" y="20"></rect><text x="64.25" y="35">{</text></g><path d="M78.5 31h10" /><path d="M88.5 31h10" /><g class="non-terminal ">
<path d="M98.5 31h0.0" /><path d="M305.5 31h0.0" /><rect fill="rgb(0, 255, 0)" height="22" width="207" x="98.5" y="20"></rect><text x="202" y="35">(_variable_initializer</text></g><path d="M305.5 31h10" /><path d="M315.5 31h10" /><g class="non-terminal ">
<path d="M325.5 31h0.0" /><path d="M379.5 31h0.0" /><rect fill="rgb(0, 255, 0)" height="22" width="54" x="325.5" y="20"></rect><text x="352.5" y="35">(&apos;,&apos;</text></g><path d="M379.5 31h10" /><path d="M389.5 31h10" /><g class="non-terminal ">
<path d="M399.5 31h0.0" /><path d="M632.0 31h0.0" /><rect fill="rgb(0, 255, 0)" height="22" width="232.5" x="399.5" y="20"></rect><text x="515.75" y="35">_variable_initializer)*)?</text></g><path d="M632.0 31h10" /><path d="M642.0 31h10" /><g class="non-terminal ">
<path d="M652.0 31h0.0" /><path d="M706.0 31h0.0" /><rect fill="rgb(0, 255, 0)" height="22" width="54" x="652" y="20"></rect><text x="679" y="35">&apos;,&apos;?</text></g><path d="M706.0 31h10" /><path d="M716.0 31h10" /><g class="terminal ">
<path d="M726.0 31h0.0" /><path d="M754.5 31h0.0" /><rect fill="rgb(0, 255, 0)" height="22" width="28.5" x="726" y="20"></rect><text x="740.25" y="35">}</text></g></g><path d="M754.5 31h10" /><path d="M 764.5 31 h 20 m -10 -10 v 20 m 10 -20 v 20"></path></g><style>/* <![CDATA[ */
	svg.railroad-diagram {
		background-color:hsl(30,20%,95%);
	}
	svg.railroad-diagram path {
		stroke-width:3;
		stroke:black;
		fill:rgba(0,0,0,0);
	}
	svg.railroad-diagram text {
		font:bold 14px monospace;
		text-anchor:middle;
	}
	svg.railroad-diagram text.label{
		text-anchor:start;
	}
	svg.railroad-diagram text.comment{
		font:italic 12px monospace;
	}
	svg.railroad-diagram rect{
		stroke-width:3;
		stroke:black;
		fill:hsl(120,100%,90%);
	}
	svg.railroad-diagram rect.group-box {
		stroke: gray;
		stroke-dasharray: 10 5;
		fill: none;
	}

/* ]]> */
</style></svg>