<svg class="railroad-diagram" height="62" viewBox="0 0 711.0 62" width="711.0" xmlns="http://www.w3.org/2000/svg" xmlns:xlink="http://www.w3.org/1999/xlink">
<g transform="translate(.5 .5)">
<g>
<path d="M20 21v20m10 -20v20m-10 -10h20" /></g><path d="M40 31h10" /><g>
<path d="M50 31h0.0" /><path d="M661.0 31h0.0" /><g class="non-terminal ">
<path d="M50.0 31h0.0" /><path d="M240.0 31h0.0" /><rect fill="rgb(0, 255, 0)" height="22" width="190" x="50" y="20"></rect><text x="145" y="35">(primary_expression:</text></g><path d="M240.0 31h10" /><path d="M250.0 31h10" /><g class="non-terminal ">
<path d="M260.0 31h0.0" /><path d="M331.0 31h0.0" /><rect fill="rgb(0, 255, 0)" height="22" width="71" x="260" y="20"></rect><text x="295.5" y="35">array)</text></g><path d="M331.0 31h10" /><path d="M341.0 31h10" /><g class="terminal ">
<path d="M351.0 31h0.0" /><path d="M379.5 31h0.0" /><rect fill="rgb(0, 255, 0)" height="22" width="28.5" x="351" y="20"></rect><text x="365.25" y="35">[</text></g><path d="M379.5 31h10" /><path d="M389.5 31h10" /><g class="non-terminal ">
<path d="M399.5 31h0.0" /><path d="M521.5 31h0.0" /><rect fill="rgb(0, 255, 0)" height="22" width="122" x="399.5" y="20"></rect><text x="460.5" y="35">(expression:</text></g><path d="M521.5 31h10" /><path d="M531.5 31h10" /><g class="non-terminal ">
<path d="M541.5 31h0.0" /><path d="M612.5 31h0.0" /><rect fill="rgb(0, 255, 0)" height="22" width="71" x="541.5" y="20"></rect><text x="577" y="35">index)</text></g><path d="M612.5 31h10" /><path d="M622.5 31h10" /><g class="terminal ">
<path d="M632.5 31h0.0" /><path d="M661.0 31h0.0" /><rect fill="rgb(0, 255, 0)" height="22" width="28.5" x="632.5" y="20"></rect><text x="646.75" y="35">]</text></g></g><path d="M661.0 31h10" /><path d="M 671.0 31 h 20 m -10 -10 v 20 m 10 -20 v 20"></path></g><style>/* <![CDATA[ */
	svg.railroad-diagram {
		background-color:hsl(30,20%,95%);
	}
	svg.railroad-diagram path {
		stroke-width:3;
		stroke:black;
		fill:rgba(0,0,0,0);
	}
	svg.railroad-diagram text {
		font:bold 14px monospace;
		text-anchor:middle;
	}
	svg.railroad-diagram text.label{
		text-anchor:start;
	}
	svg.railroad-diagram text.comment{
		font:italic 12px monospace;
	}
	svg.railroad-diagram rect{
		stroke-width:3;
		stroke:black;
		fill:hsl(120,100%,90%);
	}
	svg.railroad-diagram rect.group-box {
		stroke: gray;
		stroke-dasharray: 10 5;
		fill: none;
	}

/* ]]> */
</style></svg>