<svg class="railroad-diagram" height="62" viewBox="0 0 933.0 62" width="933.0" xmlns="http://www.w3.org/2000/svg" xmlns:xlink="http://www.w3.org/1999/xlink">
<g transform="translate(.5 .5)">
<g>
<path d="M20 21v20m10 -20v20m-10 -10h20" /></g><path d="M40 31h10" /><g>
<path d="M50 31h0.0" /><path d="M883.0 31h0.0" /><g class="non-terminal ">
<path d="M50.0 31h0.0" /><path d="M146.5 31h0.0" /><rect fill="rgb(0, 255, 0)" height="22" width="96.5" x="50" y="20"></rect><text x="98.25" y="35">(&apos;assert&apos;</text></g><path d="M146.5 31h10" /><path d="M156.5 31h10" /><g class="non-terminal ">
<path d="M166.5 31h0.0" /><path d="M271.5 31h0.0" /><rect fill="rgb(0, 255, 0)" height="22" width="105" x="166.5" y="20"></rect><text x="219" y="35">expression</text></g><path d="M271.5 31h10" /><path d="M281.5 31h10" /><g class="non-terminal ">
<path d="M291.5 31h0.0" /><path d="M345.5 31h0.0" /><rect fill="rgb(0, 255, 0)" height="22" width="54" x="291.5" y="20"></rect><text x="318.5" y="35">&apos;;&apos;)</text></g><path d="M345.5 31h10" /><path d="M355.5 31h10" /><g class="non-terminal ">
<path d="M365.5 31h0.0" /><path d="M394.0 31h0.0" /><rect fill="rgb(0, 255, 0)" height="22" width="28.5" x="365.5" y="20"></rect><text x="379.75" y="35">|</text></g><path d="M394.0 31h10" /><path d="M404.0 31h10" /><g class="non-terminal ">
<path d="M414.0 31h0.0" /><path d="M510.5 31h0.0" /><rect fill="rgb(0, 255, 0)" height="22" width="96.5" x="414" y="20"></rect><text x="462.25" y="35">(&apos;assert&apos;</text></g><path d="M510.5 31h10" /><path d="M520.5 31h10" /><g class="non-terminal ">
<path d="M530.5 31h0.0" /><path d="M635.5 31h0.0" /><rect fill="rgb(0, 255, 0)" height="22" width="105" x="530.5" y="20"></rect><text x="583" y="35">expression</text></g><path d="M635.5 31h10" /><path d="M645.5 31h10" /><g class="terminal ">
<path d="M655.5 31h0.0" /><path d="M684.0 31h0.0" /><rect fill="rgb(0, 255, 0)" height="22" width="28.5" x="655.5" y="20"></rect><text x="669.75" y="35">:</text></g><path d="M684.0 31h10" /><path d="M694.0 31h10" /><g class="non-terminal ">
<path d="M704.0 31h0.0" /><path d="M809.0 31h0.0" /><rect fill="rgb(0, 255, 0)" height="22" width="105" x="704" y="20"></rect><text x="756.5" y="35">expression</text></g><path d="M809.0 31h10" /><path d="M819.0 31h10" /><g class="non-terminal ">
<path d="M829.0 31h0.0" /><path d="M883.0 31h0.0" /><rect fill="rgb(0, 255, 0)" height="22" width="54" x="829" y="20"></rect><text x="856" y="35">&apos;;&apos;)</text></g></g><path d="M883.0 31h10" /><path d="M 893.0 31 h 20 m -10 -10 v 20 m 10 -20 v 20"></path></g><style>/* <![CDATA[ */
	svg.railroad-diagram {
		background-color:hsl(30,20%,95%);
	}
	svg.railroad-diagram path {
		stroke-width:3;
		stroke:black;
		fill:rgba(0,0,0,0);
	}
	svg.railroad-diagram text {
		font:bold 14px monospace;
		text-anchor:middle;
	}
	svg.railroad-diagram text.label{
		text-anchor:start;
	}
	svg.railroad-diagram text.comment{
		font:italic 12px monospace;
	}
	svg.railroad-diagram rect{
		stroke-width:3;
		stroke:black;
		fill:hsl(120,100%,90%);
	}
	svg.railroad-diagram rect.group-box {
		stroke: gray;
		stroke-dasharray: 10 5;
		fill: none;
	}

/* ]]> */
</style></svg>