<svg class="railroad-diagram" height="62" viewBox="0 0 14259.5 62" width="14259.5" xmlns="http://www.w3.org/2000/svg" xmlns:xlink="http://www.w3.org/1999/xlink">
<g transform="translate(.5 .5)">
<g>
<path d="M20 21v20m10 -20v20m-10 -10h20" /></g><path d="M40 31h10" /><g>
<path d="M50 31h0.0" /><path d="M14209.5 31h0.0" /><g class="non-terminal ">
<path d="M50.0 31h0.0" /><path d="M206.0 31h0.0" /><rect fill="rgb(0, 255, 0)" height="22" width="156" x="50" y="20"></rect><text x="128" y="35">&lt;10((expression:</text></g><path d="M206.0 31h10" /><path d="M216.0 31h10" /><g class="non-terminal ">
<path d="M226.0 31h0.0" /><path d="M288.5 31h0.0" /><rect fill="rgb(0, 255, 0)" height="22" width="62.5" x="226" y="20"></rect><text x="257.25" y="35">left)</text></g><path d="M288.5 31h10" /><path d="M298.5 31h10" /><g class="non-terminal ">
<path d="M308.5 31h0.0" /><path d="M371.0 31h0.0" /><rect fill="rgb(0, 255, 0)" height="22" width="62.5" x="308.5" y="20"></rect><text x="339.75" y="35">(&apos;>&apos;:</text></g><path d="M371.0 31h10" /><path d="M381.0 31h10" /><g class="non-terminal ">
<path d="M391.0 31h0.0" /><path d="M487.5 31h0.0" /><rect fill="rgb(0, 255, 0)" height="22" width="96.5" x="391" y="20"></rect><text x="439.25" y="35">operator)</text></g><path d="M487.5 31h10" /><path d="M497.5 31h10" /><g class="non-terminal ">
<path d="M507.5 31h0.0" /><path d="M629.5 31h0.0" /><rect fill="rgb(0, 255, 0)" height="22" width="122" x="507.5" y="20"></rect><text x="568.5" y="35">(expression:</text></g><path d="M629.5 31h10" /><path d="M639.5 31h10" /><g class="non-terminal ">
<path d="M649.5 31h0.0" /><path d="M729.0 31h0.0" /><rect fill="rgb(0, 255, 0)" height="22" width="79.5" x="649.5" y="20"></rect><text x="689.25" y="35">right))</text></g><path d="M729.0 31h10" /><path d="M739.0 31h10" /><g class="non-terminal ">
<path d="M749.0 31h0.0" /><path d="M777.5 31h0.0" /><rect fill="rgb(0, 255, 0)" height="22" width="28.5" x="749" y="20"></rect><text x="763.25" y="35">|</text></g><path d="M777.5 31h10" /><path d="M787.5 31h10" /><g class="non-terminal ">
<path d="M797.5 31h0.0" /><path d="M953.5 31h0.0" /><rect fill="rgb(0, 255, 0)" height="22" width="156" x="797.5" y="20"></rect><text x="875.5" y="35">&lt;10((expression:</text></g><path d="M953.5 31h10" /><path d="M963.5 31h10" /><g class="non-terminal ">
<path d="M973.5 31h0.0" /><path d="M1036.0 31h0.0" /><rect fill="rgb(0, 255, 0)" height="22" width="62.5" x="973.5" y="20"></rect><text x="1004.75" y="35">left)</text></g><path d="M1036.0 31h10" /><path d="M1046.0 31h10" /><g class="non-terminal ">
<path d="M1056.0 31h0.0" /><path d="M1118.5 31h0.0" /><rect fill="rgb(0, 255, 0)" height="22" width="62.5" x="1056" y="20"></rect><text x="1087.25" y="35">(&apos;&lt;&apos;:</text></g><path d="M1118.5 31h10" /><path d="M1128.5 31h10" /><g class="non-terminal ">
<path d="M1138.5 31h0.0" /><path d="M1235.0 31h0.0" /><rect fill="rgb(0, 255, 0)" height="22" width="96.5" x="1138.5" y="20"></rect><text x="1186.75" y="35">operator)</text></g><path d="M1235.0 31h10" /><path d="M1245.0 31h10" /><g class="non-terminal ">
<path d="M1255.0 31h0.0" /><path d="M1377.0 31h0.0" /><rect fill="rgb(0, 255, 0)" height="22" width="122" x="1255" y="20"></rect><text x="1316" y="35">(expression:</text></g><path d="M1377.0 31h10" /><path d="M1387.0 31h10" /><g class="non-terminal ">
<path d="M1397.0 31h0.0" /><path d="M1476.5 31h0.0" /><rect fill="rgb(0, 255, 0)" height="22" width="79.5" x="1397" y="20"></rect><text x="1436.75" y="35">right))</text></g><path d="M1476.5 31h10" /><path d="M1486.5 31h10" /><g class="non-terminal ">
<path d="M1496.5 31h0.0" /><path d="M1525.0 31h0.0" /><rect fill="rgb(0, 255, 0)" height="22" width="28.5" x="1496.5" y="20"></rect><text x="1510.75" y="35">|</text></g><path d="M1525.0 31h10" /><path d="M1535.0 31h10" /><g class="non-terminal ">
<path d="M1545.0 31h0.0" /><path d="M1701.0 31h0.0" /><rect fill="rgb(0, 255, 0)" height="22" width="156" x="1545" y="20"></rect><text x="1623" y="35">&lt;10((expression:</text></g><path d="M1701.0 31h10" /><path d="M1711.0 31h10" /><g class="non-terminal ">
<path d="M1721.0 31h0.0" /><path d="M1783.5 31h0.0" /><rect fill="rgb(0, 255, 0)" height="22" width="62.5" x="1721" y="20"></rect><text x="1752.25" y="35">left)</text></g><path d="M1783.5 31h10" /><path d="M1793.5 31h10" /><g class="non-terminal ">
<path d="M1803.5 31h0.0" /><path d="M1874.5 31h0.0" /><rect fill="rgb(0, 255, 0)" height="22" width="71" x="1803.5" y="20"></rect><text x="1839" y="35">(&apos;>=&apos;:</text></g><path d="M1874.5 31h10" /><path d="M1884.5 31h10" /><g class="non-terminal ">
<path d="M1894.5 31h0.0" /><path d="M1991.0 31h0.0" /><rect fill="rgb(0, 255, 0)" height="22" width="96.5" x="1894.5" y="20"></rect><text x="1942.75" y="35">operator)</text></g><path d="M1991.0 31h10" /><path d="M2001.0 31h10" /><g class="non-terminal ">
<path d="M2011.0 31h0.0" /><path d="M2133.0 31h0.0" /><rect fill="rgb(0, 255, 0)" height="22" width="122" x="2011" y="20"></rect><text x="2072" y="35">(expression:</text></g><path d="M2133.0 31h10" /><path d="M2143.0 31h10" /><g class="non-terminal ">
<path d="M2153.0 31h0.0" /><path d="M2232.5 31h0.0" /><rect fill="rgb(0, 255, 0)" height="22" width="79.5" x="2153" y="20"></rect><text x="2192.75" y="35">right))</text></g><path d="M2232.5 31h10" /><path d="M2242.5 31h10" /><g class="non-terminal ">
<path d="M2252.5 31h0.0" /><path d="M2281.0 31h0.0" /><rect fill="rgb(0, 255, 0)" height="22" width="28.5" x="2252.5" y="20"></rect><text x="2266.75" y="35">|</text></g><path d="M2281.0 31h10" /><path d="M2291.0 31h10" /><g class="non-terminal ">
<path d="M2301.0 31h0.0" /><path d="M2457.0 31h0.0" /><rect fill="rgb(0, 255, 0)" height="22" width="156" x="2301" y="20"></rect><text x="2379" y="35">&lt;10((expression:</text></g><path d="M2457.0 31h10" /><path d="M2467.0 31h10" /><g class="non-terminal ">
<path d="M2477.0 31h0.0" /><path d="M2539.5 31h0.0" /><rect fill="rgb(0, 255, 0)" height="22" width="62.5" x="2477" y="20"></rect><text x="2508.25" y="35">left)</text></g><path d="M2539.5 31h10" /><path d="M2549.5 31h10" /><g class="non-terminal ">
<path d="M2559.5 31h0.0" /><path d="M2630.5 31h0.0" /><rect fill="rgb(0, 255, 0)" height="22" width="71" x="2559.5" y="20"></rect><text x="2595" y="35">(&apos;&lt;=&apos;:</text></g><path d="M2630.5 31h10" /><path d="M2640.5 31h10" /><g class="non-terminal ">
<path d="M2650.5 31h0.0" /><path d="M2747.0 31h0.0" /><rect fill="rgb(0, 255, 0)" height="22" width="96.5" x="2650.5" y="20"></rect><text x="2698.75" y="35">operator)</text></g><path d="M2747.0 31h10" /><path d="M2757.0 31h10" /><g class="non-terminal ">
<path d="M2767.0 31h0.0" /><path d="M2889.0 31h0.0" /><rect fill="rgb(0, 255, 0)" height="22" width="122" x="2767" y="20"></rect><text x="2828" y="35">(expression:</text></g><path d="M2889.0 31h10" /><path d="M2899.0 31h10" /><g class="non-terminal ">
<path d="M2909.0 31h0.0" /><path d="M2988.5 31h0.0" /><rect fill="rgb(0, 255, 0)" height="22" width="79.5" x="2909" y="20"></rect><text x="2948.75" y="35">right))</text></g><path d="M2988.5 31h10" /><path d="M2998.5 31h10" /><g class="non-terminal ">
<path d="M3008.5 31h0.0" /><path d="M3037.0 31h0.0" /><rect fill="rgb(0, 255, 0)" height="22" width="28.5" x="3008.5" y="20"></rect><text x="3022.75" y="35">|</text></g><path d="M3037.0 31h10" /><path d="M3047.0 31h10" /><g class="non-terminal ">
<path d="M3057.0 31h0.0" /><path d="M3204.5 31h0.0" /><rect fill="rgb(0, 255, 0)" height="22" width="147.5" x="3057" y="20"></rect><text x="3130.75" y="35">&lt;9((expression:</text></g><path d="M3204.5 31h10" /><path d="M3214.5 31h10" /><g class="non-terminal ">
<path d="M3224.5 31h0.0" /><path d="M3287.0 31h0.0" /><rect fill="rgb(0, 255, 0)" height="22" width="62.5" x="3224.5" y="20"></rect><text x="3255.75" y="35">left)</text></g><path d="M3287.0 31h10" /><path d="M3297.0 31h10" /><g class="non-terminal ">
<path d="M3307.0 31h0.0" /><path d="M3378.0 31h0.0" /><rect fill="rgb(0, 255, 0)" height="22" width="71" x="3307" y="20"></rect><text x="3342.5" y="35">(&apos;==&apos;:</text></g><path d="M3378.0 31h10" /><path d="M3388.0 31h10" /><g class="non-terminal ">
<path d="M3398.0 31h0.0" /><path d="M3494.5 31h0.0" /><rect fill="rgb(0, 255, 0)" height="22" width="96.5" x="3398" y="20"></rect><text x="3446.25" y="35">operator)</text></g><path d="M3494.5 31h10" /><path d="M3504.5 31h10" /><g class="non-terminal ">
<path d="M3514.5 31h0.0" /><path d="M3636.5 31h0.0" /><rect fill="rgb(0, 255, 0)" height="22" width="122" x="3514.5" y="20"></rect><text x="3575.5" y="35">(expression:</text></g><path d="M3636.5 31h10" /><path d="M3646.5 31h10" /><g class="non-terminal ">
<path d="M3656.5 31h0.0" /><path d="M3736.0 31h0.0" /><rect fill="rgb(0, 255, 0)" height="22" width="79.5" x="3656.5" y="20"></rect><text x="3696.25" y="35">right))</text></g><path d="M3736.0 31h10" /><path d="M3746.0 31h10" /><g class="non-terminal ">
<path d="M3756.0 31h0.0" /><path d="M3784.5 31h0.0" /><rect fill="rgb(0, 255, 0)" height="22" width="28.5" x="3756" y="20"></rect><text x="3770.25" y="35">|</text></g><path d="M3784.5 31h10" /><path d="M3794.5 31h10" /><g class="non-terminal ">
<path d="M3804.5 31h0.0" /><path d="M3952.0 31h0.0" /><rect fill="rgb(0, 255, 0)" height="22" width="147.5" x="3804.5" y="20"></rect><text x="3878.25" y="35">&lt;9((expression:</text></g><path d="M3952.0 31h10" /><path d="M3962.0 31h10" /><g class="non-terminal ">
<path d="M3972.0 31h0.0" /><path d="M4034.5 31h0.0" /><rect fill="rgb(0, 255, 0)" height="22" width="62.5" x="3972" y="20"></rect><text x="4003.25" y="35">left)</text></g><path d="M4034.5 31h10" /><path d="M4044.5 31h10" /><g class="non-terminal ">
<path d="M4054.5 31h0.0" /><path d="M4125.5 31h0.0" /><rect fill="rgb(0, 255, 0)" height="22" width="71" x="4054.5" y="20"></rect><text x="4090" y="35">(&apos;!=&apos;:</text></g><path d="M4125.5 31h10" /><path d="M4135.5 31h10" /><g class="non-terminal ">
<path d="M4145.5 31h0.0" /><path d="M4242.0 31h0.0" /><rect fill="rgb(0, 255, 0)" height="22" width="96.5" x="4145.5" y="20"></rect><text x="4193.75" y="35">operator)</text></g><path d="M4242.0 31h10" /><path d="M4252.0 31h10" /><g class="non-terminal ">
<path d="M4262.0 31h0.0" /><path d="M4384.0 31h0.0" /><rect fill="rgb(0, 255, 0)" height="22" width="122" x="4262" y="20"></rect><text x="4323" y="35">(expression:</text></g><path d="M4384.0 31h10" /><path d="M4394.0 31h10" /><g class="non-terminal ">
<path d="M4404.0 31h0.0" /><path d="M4483.5 31h0.0" /><rect fill="rgb(0, 255, 0)" height="22" width="79.5" x="4404" y="20"></rect><text x="4443.75" y="35">right))</text></g><path d="M4483.5 31h10" /><path d="M4493.5 31h10" /><g class="non-terminal ">
<path d="M4503.5 31h0.0" /><path d="M4532.0 31h0.0" /><rect fill="rgb(0, 255, 0)" height="22" width="28.5" x="4503.5" y="20"></rect><text x="4517.75" y="35">|</text></g><path d="M4532.0 31h10" /><path d="M4542.0 31h10" /><g class="non-terminal ">
<path d="M4552.0 31h0.0" /><path d="M4699.5 31h0.0" /><rect fill="rgb(0, 255, 0)" height="22" width="147.5" x="4552" y="20"></rect><text x="4625.75" y="35">&lt;5((expression:</text></g><path d="M4699.5 31h10" /><path d="M4709.5 31h10" /><g class="non-terminal ">
<path d="M4719.5 31h0.0" /><path d="M4782.0 31h0.0" /><rect fill="rgb(0, 255, 0)" height="22" width="62.5" x="4719.5" y="20"></rect><text x="4750.75" y="35">left)</text></g><path d="M4782.0 31h10" /><path d="M4792.0 31h10" /><g class="non-terminal ">
<path d="M4802.0 31h0.0" /><path d="M4873.0 31h0.0" /><rect fill="rgb(0, 255, 0)" height="22" width="71" x="4802" y="20"></rect><text x="4837.5" y="35">(&apos;&amp;&amp;&apos;:</text></g><path d="M4873.0 31h10" /><path d="M4883.0 31h10" /><g class="non-terminal ">
<path d="M4893.0 31h0.0" /><path d="M4989.5 31h0.0" /><rect fill="rgb(0, 255, 0)" height="22" width="96.5" x="4893" y="20"></rect><text x="4941.25" y="35">operator)</text></g><path d="M4989.5 31h10" /><path d="M4999.5 31h10" /><g class="non-terminal ">
<path d="M5009.5 31h0.0" /><path d="M5131.5 31h0.0" /><rect fill="rgb(0, 255, 0)" height="22" width="122" x="5009.5" y="20"></rect><text x="5070.5" y="35">(expression:</text></g><path d="M5131.5 31h10" /><path d="M5141.5 31h10" /><g class="non-terminal ">
<path d="M5151.5 31h0.0" /><path d="M5231.0 31h0.0" /><rect fill="rgb(0, 255, 0)" height="22" width="79.5" x="5151.5" y="20"></rect><text x="5191.25" y="35">right))</text></g><path d="M5231.0 31h10" /><path d="M5241.0 31h10" /><g class="non-terminal ">
<path d="M5251.0 31h0.0" /><path d="M5279.5 31h0.0" /><rect fill="rgb(0, 255, 0)" height="22" width="28.5" x="5251" y="20"></rect><text x="5265.25" y="35">|</text></g><path d="M5279.5 31h10" /><path d="M5289.5 31h10" /><g class="non-terminal ">
<path d="M5299.5 31h0.0" /><path d="M5447.0 31h0.0" /><rect fill="rgb(0, 255, 0)" height="22" width="147.5" x="5299.5" y="20"></rect><text x="5373.25" y="35">&lt;4((expression:</text></g><path d="M5447.0 31h10" /><path d="M5457.0 31h10" /><g class="non-terminal ">
<path d="M5467.0 31h0.0" /><path d="M5529.5 31h0.0" /><rect fill="rgb(0, 255, 0)" height="22" width="62.5" x="5467" y="20"></rect><text x="5498.25" y="35">left)</text></g><path d="M5529.5 31h10" /><path d="M5539.5 31h10" /><g class="non-terminal ">
<path d="M5549.5 31h0.0" /><path d="M5620.5 31h0.0" /><rect fill="rgb(0, 255, 0)" height="22" width="71" x="5549.5" y="20"></rect><text x="5585" y="35">(&apos;||&apos;:</text></g><path d="M5620.5 31h10" /><path d="M5630.5 31h10" /><g class="non-terminal ">
<path d="M5640.5 31h0.0" /><path d="M5737.0 31h0.0" /><rect fill="rgb(0, 255, 0)" height="22" width="96.5" x="5640.5" y="20"></rect><text x="5688.75" y="35">operator)</text></g><path d="M5737.0 31h10" /><path d="M5747.0 31h10" /><g class="non-terminal ">
<path d="M5757.0 31h0.0" /><path d="M5879.0 31h0.0" /><rect fill="rgb(0, 255, 0)" height="22" width="122" x="5757" y="20"></rect><text x="5818" y="35">(expression:</text></g><path d="M5879.0 31h10" /><path d="M5889.0 31h10" /><g class="non-terminal ">
<path d="M5899.0 31h0.0" /><path d="M5978.5 31h0.0" /><rect fill="rgb(0, 255, 0)" height="22" width="79.5" x="5899" y="20"></rect><text x="5938.75" y="35">right))</text></g><path d="M5978.5 31h10" /><path d="M5988.5 31h10" /><g class="non-terminal ">
<path d="M5998.5 31h0.0" /><path d="M6027.0 31h0.0" /><rect fill="rgb(0, 255, 0)" height="22" width="28.5" x="5998.5" y="20"></rect><text x="6012.75" y="35">|</text></g><path d="M6027.0 31h10" /><path d="M6037.0 31h10" /><g class="non-terminal ">
<path d="M6047.0 31h0.0" /><path d="M6203.0 31h0.0" /><rect fill="rgb(0, 255, 0)" height="22" width="156" x="6047" y="20"></rect><text x="6125" y="35">&lt;12((expression:</text></g><path d="M6203.0 31h10" /><path d="M6213.0 31h10" /><g class="non-terminal ">
<path d="M6223.0 31h0.0" /><path d="M6285.5 31h0.0" /><rect fill="rgb(0, 255, 0)" height="22" width="62.5" x="6223" y="20"></rect><text x="6254.25" y="35">left)</text></g><path d="M6285.5 31h10" /><path d="M6295.5 31h10" /><g class="non-terminal ">
<path d="M6305.5 31h0.0" /><path d="M6368.0 31h0.0" /><rect fill="rgb(0, 255, 0)" height="22" width="62.5" x="6305.5" y="20"></rect><text x="6336.75" y="35">(&apos;+&apos;:</text></g><path d="M6368.0 31h10" /><path d="M6378.0 31h10" /><g class="non-terminal ">
<path d="M6388.0 31h0.0" /><path d="M6484.5 31h0.0" /><rect fill="rgb(0, 255, 0)" height="22" width="96.5" x="6388" y="20"></rect><text x="6436.25" y="35">operator)</text></g><path d="M6484.5 31h10" /><path d="M6494.5 31h10" /><g class="non-terminal ">
<path d="M6504.5 31h0.0" /><path d="M6626.5 31h0.0" /><rect fill="rgb(0, 255, 0)" height="22" width="122" x="6504.5" y="20"></rect><text x="6565.5" y="35">(expression:</text></g><path d="M6626.5 31h10" /><path d="M6636.5 31h10" /><g class="non-terminal ">
<path d="M6646.5 31h0.0" /><path d="M6726.0 31h0.0" /><rect fill="rgb(0, 255, 0)" height="22" width="79.5" x="6646.5" y="20"></rect><text x="6686.25" y="35">right))</text></g><path d="M6726.0 31h10" /><path d="M6736.0 31h10" /><g class="non-terminal ">
<path d="M6746.0 31h0.0" /><path d="M6774.5 31h0.0" /><rect fill="rgb(0, 255, 0)" height="22" width="28.5" x="6746" y="20"></rect><text x="6760.25" y="35">|</text></g><path d="M6774.5 31h10" /><path d="M6784.5 31h10" /><g class="non-terminal ">
<path d="M6794.5 31h0.0" /><path d="M6950.5 31h0.0" /><rect fill="rgb(0, 255, 0)" height="22" width="156" x="6794.5" y="20"></rect><text x="6872.5" y="35">&lt;12((expression:</text></g><path d="M6950.5 31h10" /><path d="M6960.5 31h10" /><g class="non-terminal ">
<path d="M6970.5 31h0.0" /><path d="M7033.0 31h0.0" /><rect fill="rgb(0, 255, 0)" height="22" width="62.5" x="6970.5" y="20"></rect><text x="7001.75" y="35">left)</text></g><path d="M7033.0 31h10" /><path d="M7043.0 31h10" /><g class="non-terminal ">
<path d="M7053.0 31h0.0" /><path d="M7115.5 31h0.0" /><rect fill="rgb(0, 255, 0)" height="22" width="62.5" x="7053" y="20"></rect><text x="7084.25" y="35">(&apos;-&apos;:</text></g><path d="M7115.5 31h10" /><path d="M7125.5 31h10" /><g class="non-terminal ">
<path d="M7135.5 31h0.0" /><path d="M7232.0 31h0.0" /><rect fill="rgb(0, 255, 0)" height="22" width="96.5" x="7135.5" y="20"></rect><text x="7183.75" y="35">operator)</text></g><path d="M7232.0 31h10" /><path d="M7242.0 31h10" /><g class="non-terminal ">
<path d="M7252.0 31h0.0" /><path d="M7374.0 31h0.0" /><rect fill="rgb(0, 255, 0)" height="22" width="122" x="7252" y="20"></rect><text x="7313" y="35">(expression:</text></g><path d="M7374.0 31h10" /><path d="M7384.0 31h10" /><g class="non-terminal ">
<path d="M7394.0 31h0.0" /><path d="M7473.5 31h0.0" /><rect fill="rgb(0, 255, 0)" height="22" width="79.5" x="7394" y="20"></rect><text x="7433.75" y="35">right))</text></g><path d="M7473.5 31h10" /><path d="M7483.5 31h10" /><g class="non-terminal ">
<path d="M7493.5 31h0.0" /><path d="M7522.0 31h0.0" /><rect fill="rgb(0, 255, 0)" height="22" width="28.5" x="7493.5" y="20"></rect><text x="7507.75" y="35">|</text></g><path d="M7522.0 31h10" /><path d="M7532.0 31h10" /><g class="non-terminal ">
<path d="M7542.0 31h0.0" /><path d="M7698.0 31h0.0" /><rect fill="rgb(0, 255, 0)" height="22" width="156" x="7542" y="20"></rect><text x="7620" y="35">&lt;13((expression:</text></g><path d="M7698.0 31h10" /><path d="M7708.0 31h10" /><g class="non-terminal ">
<path d="M7718.0 31h0.0" /><path d="M7780.5 31h0.0" /><rect fill="rgb(0, 255, 0)" height="22" width="62.5" x="7718" y="20"></rect><text x="7749.25" y="35">left)</text></g><path d="M7780.5 31h10" /><path d="M7790.5 31h10" /><g class="non-terminal ">
<path d="M7800.5 31h0.0" /><path d="M7863.0 31h0.0" /><rect fill="rgb(0, 255, 0)" height="22" width="62.5" x="7800.5" y="20"></rect><text x="7831.75" y="35">(&apos;*&apos;:</text></g><path d="M7863.0 31h10" /><path d="M7873.0 31h10" /><g class="non-terminal ">
<path d="M7883.0 31h0.0" /><path d="M7979.5 31h0.0" /><rect fill="rgb(0, 255, 0)" height="22" width="96.5" x="7883" y="20"></rect><text x="7931.25" y="35">operator)</text></g><path d="M7979.5 31h10" /><path d="M7989.5 31h10" /><g class="non-terminal ">
<path d="M7999.5 31h0.0" /><path d="M8121.5 31h0.0" /><rect fill="rgb(0, 255, 0)" height="22" width="122" x="7999.5" y="20"></rect><text x="8060.5" y="35">(expression:</text></g><path d="M8121.5 31h10" /><path d="M8131.5 31h10" /><g class="non-terminal ">
<path d="M8141.5 31h0.0" /><path d="M8221.0 31h0.0" /><rect fill="rgb(0, 255, 0)" height="22" width="79.5" x="8141.5" y="20"></rect><text x="8181.25" y="35">right))</text></g><path d="M8221.0 31h10" /><path d="M8231.0 31h10" /><g class="non-terminal ">
<path d="M8241.0 31h0.0" /><path d="M8269.5 31h0.0" /><rect fill="rgb(0, 255, 0)" height="22" width="28.5" x="8241" y="20"></rect><text x="8255.25" y="35">|</text></g><path d="M8269.5 31h10" /><path d="M8279.5 31h10" /><g class="non-terminal ">
<path d="M8289.5 31h0.0" /><path d="M8445.5 31h0.0" /><rect fill="rgb(0, 255, 0)" height="22" width="156" x="8289.5" y="20"></rect><text x="8367.5" y="35">&lt;13((expression:</text></g><path d="M8445.5 31h10" /><path d="M8455.5 31h10" /><g class="non-terminal ">
<path d="M8465.5 31h0.0" /><path d="M8528.0 31h0.0" /><rect fill="rgb(0, 255, 0)" height="22" width="62.5" x="8465.5" y="20"></rect><text x="8496.75" y="35">left)</text></g><path d="M8528.0 31h10" /><path d="M8538.0 31h10" /><g class="non-terminal ">
<path d="M8548.0 31h0.0" /><path d="M8610.5 31h0.0" /><rect fill="rgb(0, 255, 0)" height="22" width="62.5" x="8548" y="20"></rect><text x="8579.25" y="35">(&apos;/&apos;:</text></g><path d="M8610.5 31h10" /><path d="M8620.5 31h10" /><g class="non-terminal ">
<path d="M8630.5 31h0.0" /><path d="M8727.0 31h0.0" /><rect fill="rgb(0, 255, 0)" height="22" width="96.5" x="8630.5" y="20"></rect><text x="8678.75" y="35">operator)</text></g><path d="M8727.0 31h10" /><path d="M8737.0 31h10" /><g class="non-terminal ">
<path d="M8747.0 31h0.0" /><path d="M8869.0 31h0.0" /><rect fill="rgb(0, 255, 0)" height="22" width="122" x="8747" y="20"></rect><text x="8808" y="35">(expression:</text></g><path d="M8869.0 31h10" /><path d="M8879.0 31h10" /><g class="non-terminal ">
<path d="M8889.0 31h0.0" /><path d="M8968.5 31h0.0" /><rect fill="rgb(0, 255, 0)" height="22" width="79.5" x="8889" y="20"></rect><text x="8928.75" y="35">right))</text></g><path d="M8968.5 31h10" /><path d="M8978.5 31h10" /><g class="non-terminal ">
<path d="M8988.5 31h0.0" /><path d="M9017.0 31h0.0" /><rect fill="rgb(0, 255, 0)" height="22" width="28.5" x="8988.5" y="20"></rect><text x="9002.75" y="35">|</text></g><path d="M9017.0 31h10" /><path d="M9027.0 31h10" /><g class="non-terminal ">
<path d="M9037.0 31h0.0" /><path d="M9184.5 31h0.0" /><rect fill="rgb(0, 255, 0)" height="22" width="147.5" x="9037" y="20"></rect><text x="9110.75" y="35">&lt;8((expression:</text></g><path d="M9184.5 31h10" /><path d="M9194.5 31h10" /><g class="non-terminal ">
<path d="M9204.5 31h0.0" /><path d="M9267.0 31h0.0" /><rect fill="rgb(0, 255, 0)" height="22" width="62.5" x="9204.5" y="20"></rect><text x="9235.75" y="35">left)</text></g><path d="M9267.0 31h10" /><path d="M9277.0 31h10" /><g class="non-terminal ">
<path d="M9287.0 31h0.0" /><path d="M9349.5 31h0.0" /><rect fill="rgb(0, 255, 0)" height="22" width="62.5" x="9287" y="20"></rect><text x="9318.25" y="35">(&apos;&amp;&apos;:</text></g><path d="M9349.5 31h10" /><path d="M9359.5 31h10" /><g class="non-terminal ">
<path d="M9369.5 31h0.0" /><path d="M9466.0 31h0.0" /><rect fill="rgb(0, 255, 0)" height="22" width="96.5" x="9369.5" y="20"></rect><text x="9417.75" y="35">operator)</text></g><path d="M9466.0 31h10" /><path d="M9476.0 31h10" /><g class="non-terminal ">
<path d="M9486.0 31h0.0" /><path d="M9608.0 31h0.0" /><rect fill="rgb(0, 255, 0)" height="22" width="122" x="9486" y="20"></rect><text x="9547" y="35">(expression:</text></g><path d="M9608.0 31h10" /><path d="M9618.0 31h10" /><g class="non-terminal ">
<path d="M9628.0 31h0.0" /><path d="M9707.5 31h0.0" /><rect fill="rgb(0, 255, 0)" height="22" width="79.5" x="9628" y="20"></rect><text x="9667.75" y="35">right))</text></g><path d="M9707.5 31h10" /><path d="M9717.5 31h10" /><g class="non-terminal ">
<path d="M9727.5 31h0.0" /><path d="M9756.0 31h0.0" /><rect fill="rgb(0, 255, 0)" height="22" width="28.5" x="9727.5" y="20"></rect><text x="9741.75" y="35">|</text></g><path d="M9756.0 31h10" /><path d="M9766.0 31h10" /><g class="non-terminal ">
<path d="M9776.0 31h0.0" /><path d="M9923.5 31h0.0" /><rect fill="rgb(0, 255, 0)" height="22" width="147.5" x="9776" y="20"></rect><text x="9849.75" y="35">&lt;6((expression:</text></g><path d="M9923.5 31h10" /><path d="M9933.5 31h10" /><g class="non-terminal ">
<path d="M9943.5 31h0.0" /><path d="M10006.0 31h0.0" /><rect fill="rgb(0, 255, 0)" height="22" width="62.5" x="9943.5" y="20"></rect><text x="9974.75" y="35">left)</text></g><path d="M10006.0 31h10" /><path d="M10016.0 31h10" /><g class="non-terminal ">
<path d="M10026.0 31h0.0" /><path d="M10088.5 31h0.0" /><rect fill="rgb(0, 255, 0)" height="22" width="62.5" x="10026" y="20"></rect><text x="10057.2" y="35">(&apos;|&apos;:</text></g><path d="M10088.5 31h10" /><path d="M10098.5 31h10" /><g class="non-terminal ">
<path d="M10108.5 31h0.0" /><path d="M10205.0 31h0.0" /><rect fill="rgb(0, 255, 0)" height="22" width="96.5" x="10108.5" y="20"></rect><text x="10156.8" y="35">operator)</text></g><path d="M10205.0 31h10" /><path d="M10215.0 31h10" /><g class="non-terminal ">
<path d="M10225.0 31h0.0" /><path d="M10347.0 31h0.0" /><rect fill="rgb(0, 255, 0)" height="22" width="122" x="10225" y="20"></rect><text x="10286" y="35">(expression:</text></g><path d="M10347.0 31h10" /><path d="M10357.0 31h10" /><g class="non-terminal ">
<path d="M10367.0 31h0.0" /><path d="M10446.5 31h0.0" /><rect fill="rgb(0, 255, 0)" height="22" width="79.5" x="10367" y="20"></rect><text x="10406.8" y="35">right))</text></g><path d="M10446.5 31h10" /><path d="M10456.5 31h10" /><g class="non-terminal ">
<path d="M10466.5 31h0.0" /><path d="M10495.0 31h0.0" /><rect fill="rgb(0, 255, 0)" height="22" width="28.5" x="10466.5" y="20"></rect><text x="10480.8" y="35">|</text></g><path d="M10495.0 31h10" /><path d="M10505.0 31h10" /><g class="non-terminal ">
<path d="M10515.0 31h0.0" /><path d="M10662.5 31h0.0" /><rect fill="rgb(0, 255, 0)" height="22" width="147.5" x="10515" y="20"></rect><text x="10588.8" y="35">&lt;7((expression:</text></g><path d="M10662.5 31h10" /><path d="M10672.5 31h10" /><g class="non-terminal ">
<path d="M10682.5 31h0.0" /><path d="M10745.0 31h0.0" /><rect fill="rgb(0, 255, 0)" height="22" width="62.5" x="10682.5" y="20"></rect><text x="10713.8" y="35">left)</text></g><path d="M10745.0 31h10" /><path d="M10755.0 31h10" /><g class="non-terminal ">
<path d="M10765.0 31h0.0" /><path d="M10827.5 31h0.0" /><rect fill="rgb(0, 255, 0)" height="22" width="62.5" x="10765" y="20"></rect><text x="10796.2" y="35">(&apos;^&apos;:</text></g><path d="M10827.5 31h10" /><path d="M10837.5 31h10" /><g class="non-terminal ">
<path d="M10847.5 31h0.0" /><path d="M10944.0 31h0.0" /><rect fill="rgb(0, 255, 0)" height="22" width="96.5" x="10847.5" y="20"></rect><text x="10895.8" y="35">operator)</text></g><path d="M10944.0 31h10" /><path d="M10954.0 31h10" /><g class="non-terminal ">
<path d="M10964.0 31h0.0" /><path d="M11086.0 31h0.0" /><rect fill="rgb(0, 255, 0)" height="22" width="122" x="10964" y="20"></rect><text x="11025" y="35">(expression:</text></g><path d="M11086.0 31h10" /><path d="M11096.0 31h10" /><g class="non-terminal ">
<path d="M11106.0 31h0.0" /><path d="M11185.5 31h0.0" /><rect fill="rgb(0, 255, 0)" height="22" width="79.5" x="11106" y="20"></rect><text x="11145.8" y="35">right))</text></g><path d="M11185.5 31h10" /><path d="M11195.5 31h10" /><g class="non-terminal ">
<path d="M11205.5 31h0.0" /><path d="M11234.0 31h0.0" /><rect fill="rgb(0, 255, 0)" height="22" width="28.5" x="11205.5" y="20"></rect><text x="11219.8" y="35">|</text></g><path d="M11234.0 31h10" /><path d="M11244.0 31h10" /><g class="non-terminal ">
<path d="M11254.0 31h0.0" /><path d="M11410.0 31h0.0" /><rect fill="rgb(0, 255, 0)" height="22" width="156" x="11254" y="20"></rect><text x="11332" y="35">&lt;13((expression:</text></g><path d="M11410.0 31h10" /><path d="M11420.0 31h10" /><g class="non-terminal ">
<path d="M11430.0 31h0.0" /><path d="M11492.5 31h0.0" /><rect fill="rgb(0, 255, 0)" height="22" width="62.5" x="11430" y="20"></rect><text x="11461.2" y="35">left)</text></g><path d="M11492.5 31h10" /><path d="M11502.5 31h10" /><g class="non-terminal ">
<path d="M11512.5 31h0.0" /><path d="M11575.0 31h0.0" /><rect fill="rgb(0, 255, 0)" height="22" width="62.5" x="11512.5" y="20"></rect><text x="11543.8" y="35">(&apos;%&apos;:</text></g><path d="M11575.0 31h10" /><path d="M11585.0 31h10" /><g class="non-terminal ">
<path d="M11595.0 31h0.0" /><path d="M11691.5 31h0.0" /><rect fill="rgb(0, 255, 0)" height="22" width="96.5" x="11595" y="20"></rect><text x="11643.2" y="35">operator)</text></g><path d="M11691.5 31h10" /><path d="M11701.5 31h10" /><g class="non-terminal ">
<path d="M11711.5 31h0.0" /><path d="M11833.5 31h0.0" /><rect fill="rgb(0, 255, 0)" height="22" width="122" x="11711.5" y="20"></rect><text x="11772.5" y="35">(expression:</text></g><path d="M11833.5 31h10" /><path d="M11843.5 31h10" /><g class="non-terminal ">
<path d="M11853.5 31h0.0" /><path d="M11933.0 31h0.0" /><rect fill="rgb(0, 255, 0)" height="22" width="79.5" x="11853.5" y="20"></rect><text x="11893.2" y="35">right))</text></g><path d="M11933.0 31h10" /><path d="M11943.0 31h10" /><g class="non-terminal ">
<path d="M11953.0 31h0.0" /><path d="M11981.5 31h0.0" /><rect fill="rgb(0, 255, 0)" height="22" width="28.5" x="11953" y="20"></rect><text x="11967.2" y="35">|</text></g><path d="M11981.5 31h10" /><path d="M11991.5 31h10" /><g class="non-terminal ">
<path d="M12001.5 31h0.0" /><path d="M12157.5 31h0.0" /><rect fill="rgb(0, 255, 0)" height="22" width="156" x="12001.5" y="20"></rect><text x="12079.5" y="35">&lt;11((expression:</text></g><path d="M12157.5 31h10" /><path d="M12167.5 31h10" /><g class="non-terminal ">
<path d="M12177.5 31h0.0" /><path d="M12240.0 31h0.0" /><rect fill="rgb(0, 255, 0)" height="22" width="62.5" x="12177.5" y="20"></rect><text x="12208.8" y="35">left)</text></g><path d="M12240.0 31h10" /><path d="M12250.0 31h10" /><g class="non-terminal ">
<path d="M12260.0 31h0.0" /><path d="M12331.0 31h0.0" /><rect fill="rgb(0, 255, 0)" height="22" width="71" x="12260" y="20"></rect><text x="12295.5" y="35">(&apos;&lt;&lt;&apos;:</text></g><path d="M12331.0 31h10" /><path d="M12341.0 31h10" /><g class="non-terminal ">
<path d="M12351.0 31h0.0" /><path d="M12447.5 31h0.0" /><rect fill="rgb(0, 255, 0)" height="22" width="96.5" x="12351" y="20"></rect><text x="12399.2" y="35">operator)</text></g><path d="M12447.5 31h10" /><path d="M12457.5 31h10" /><g class="non-terminal ">
<path d="M12467.5 31h0.0" /><path d="M12589.5 31h0.0" /><rect fill="rgb(0, 255, 0)" height="22" width="122" x="12467.5" y="20"></rect><text x="12528.5" y="35">(expression:</text></g><path d="M12589.5 31h10" /><path d="M12599.5 31h10" /><g class="non-terminal ">
<path d="M12609.5 31h0.0" /><path d="M12689.0 31h0.0" /><rect fill="rgb(0, 255, 0)" height="22" width="79.5" x="12609.5" y="20"></rect><text x="12649.2" y="35">right))</text></g><path d="M12689.0 31h10" /><path d="M12699.0 31h10" /><g class="non-terminal ">
<path d="M12709.0 31h0.0" /><path d="M12737.5 31h0.0" /><rect fill="rgb(0, 255, 0)" height="22" width="28.5" x="12709" y="20"></rect><text x="12723.2" y="35">|</text></g><path d="M12737.5 31h10" /><path d="M12747.5 31h10" /><g class="non-terminal ">
<path d="M12757.5 31h0.0" /><path d="M12913.5 31h0.0" /><rect fill="rgb(0, 255, 0)" height="22" width="156" x="12757.5" y="20"></rect><text x="12835.5" y="35">&lt;11((expression:</text></g><path d="M12913.5 31h10" /><path d="M12923.5 31h10" /><g class="non-terminal ">
<path d="M12933.5 31h0.0" /><path d="M12996.0 31h0.0" /><rect fill="rgb(0, 255, 0)" height="22" width="62.5" x="12933.5" y="20"></rect><text x="12964.8" y="35">left)</text></g><path d="M12996.0 31h10" /><path d="M13006.0 31h10" /><g class="non-terminal ">
<path d="M13016.0 31h0.0" /><path d="M13087.0 31h0.0" /><rect fill="rgb(0, 255, 0)" height="22" width="71" x="13016" y="20"></rect><text x="13051.5" y="35">(&apos;>>&apos;:</text></g><path d="M13087.0 31h10" /><path d="M13097.0 31h10" /><g class="non-terminal ">
<path d="M13107.0 31h0.0" /><path d="M13203.5 31h0.0" /><rect fill="rgb(0, 255, 0)" height="22" width="96.5" x="13107" y="20"></rect><text x="13155.2" y="35">operator)</text></g><path d="M13203.5 31h10" /><path d="M13213.5 31h10" /><g class="non-terminal ">
<path d="M13223.5 31h0.0" /><path d="M13345.5 31h0.0" /><rect fill="rgb(0, 255, 0)" height="22" width="122" x="13223.5" y="20"></rect><text x="13284.5" y="35">(expression:</text></g><path d="M13345.5 31h10" /><path d="M13355.5 31h10" /><g class="non-terminal ">
<path d="M13365.5 31h0.0" /><path d="M13445.0 31h0.0" /><rect fill="rgb(0, 255, 0)" height="22" width="79.5" x="13365.5" y="20"></rect><text x="13405.2" y="35">right))</text></g><path d="M13445.0 31h10" /><path d="M13455.0 31h10" /><g class="non-terminal ">
<path d="M13465.0 31h0.0" /><path d="M13493.5 31h0.0" /><rect fill="rgb(0, 255, 0)" height="22" width="28.5" x="13465" y="20"></rect><text x="13479.2" y="35">|</text></g><path d="M13493.5 31h10" /><path d="M13503.5 31h10" /><g class="non-terminal ">
<path d="M13513.5 31h0.0" /><path d="M13669.5 31h0.0" /><rect fill="rgb(0, 255, 0)" height="22" width="156" x="13513.5" y="20"></rect><text x="13591.5" y="35">&lt;11((expression:</text></g><path d="M13669.5 31h10" /><path d="M13679.5 31h10" /><g class="non-terminal ">
<path d="M13689.5 31h0.0" /><path d="M13752.0 31h0.0" /><rect fill="rgb(0, 255, 0)" height="22" width="62.5" x="13689.5" y="20"></rect><text x="13720.8" y="35">left)</text></g><path d="M13752.0 31h10" /><path d="M13762.0 31h10" /><g class="non-terminal ">
<path d="M13772.0 31h0.0" /><path d="M13851.5 31h0.0" /><rect fill="rgb(0, 255, 0)" height="22" width="79.5" x="13772" y="20"></rect><text x="13811.8" y="35">(&apos;>>>&apos;:</text></g><path d="M13851.5 31h10" /><path d="M13861.5 31h10" /><g class="non-terminal ">
<path d="M13871.5 31h0.0" /><path d="M13968.0 31h0.0" /><rect fill="rgb(0, 255, 0)" height="22" width="96.5" x="13871.5" y="20"></rect><text x="13919.8" y="35">operator)</text></g><path d="M13968.0 31h10" /><path d="M13978.0 31h10" /><g class="non-terminal ">
<path d="M13988.0 31h0.0" /><path d="M14110.0 31h0.0" /><rect fill="rgb(0, 255, 0)" height="22" width="122" x="13988" y="20"></rect><text x="14049" y="35">(expression:</text></g><path d="M14110.0 31h10" /><path d="M14120.0 31h10" /><g class="non-terminal ">
<path d="M14130.0 31h0.0" /><path d="M14209.5 31h0.0" /><rect fill="rgb(0, 255, 0)" height="22" width="79.5" x="14130" y="20"></rect><text x="14169.8" y="35">right))</text></g></g><path d="M14209.5 31h10" /><path d="M 14219.5 31 h 20 m -10 -10 v 20 m 10 -20 v 20"></path></g><style>/* <![CDATA[ */
	svg.railroad-diagram {
		background-color:hsl(30,20%,95%);
	}
	svg.railroad-diagram path {
		stroke-width:3;
		stroke:black;
		fill:rgba(0,0,0,0);
	}
	svg.railroad-diagram text {
		font:bold 14px monospace;
		text-anchor:middle;
	}
	svg.railroad-diagram text.label{
		text-anchor:start;
	}
	svg.railroad-diagram text.comment{
		font:italic 12px monospace;
	}
	svg.railroad-diagram rect{
		stroke-width:3;
		stroke:black;
		fill:hsl(120,100%,90%);
	}
	svg.railroad-diagram rect.group-box {
		stroke: gray;
		stroke-dasharray: 10 5;
		fill: none;
	}

/* ]]> */
</style></svg>