<svg class="railroad-diagram" height="62" viewBox="0 0 1871.0 62" width="1871.0" xmlns="http://www.w3.org/2000/svg" xmlns:xlink="http://www.w3.org/1999/xlink">
<g transform="translate(.5 .5)">
<g>
<path d="M20 21v20m10 -20v20m-10 -10h20" /></g><path d="M40 31h10" /><g>
<path d="M50 31h0.0" /><path d="M1821.0 31h0.0" /><g class="non-terminal ">
<path d="M50.0 31h0.0" /><path d="M138.0 31h0.0" /><rect fill="rgb(0, 255, 0)" height="22" width="88" x="50" y="20"></rect><text x="94" y="35">~14((&apos;(&apos;</text></g><path d="M138.0 31h10" /><path d="M148.0 31h10" /><g class="non-terminal ">
<path d="M158.0 31h0.0" /><path d="M237.5 31h0.0" /><rect fill="rgb(0, 255, 0)" height="22" width="79.5" x="158" y="20"></rect><text x="197.75" y="35">(_type:</text></g><path d="M237.5 31h10" /><path d="M247.5 31h10" /><g class="non-terminal ">
<path d="M257.5 31h0.0" /><path d="M320.0 31h0.0" /><rect fill="rgb(0, 255, 0)" height="22" width="62.5" x="257.5" y="20"></rect><text x="288.75" y="35">type)</text></g><path d="M320.0 31h10" /><path d="M330.0 31h10" /><g class="terminal ">
<path d="M340.0 31h0.0" /><path d="M368.5 31h0.0" /><rect fill="rgb(0, 255, 0)" height="22" width="28.5" x="340" y="20"></rect><text x="354.25" y="35">)</text></g><path d="M368.5 31h10" /><path d="M378.5 31h10" /><g class="non-terminal ">
<path d="M388.5 31h0.0" /><path d="M510.5 31h0.0" /><rect fill="rgb(0, 255, 0)" height="22" width="122" x="388.5" y="20"></rect><text x="449.5" y="35">(expression:</text></g><path d="M510.5 31h10" /><path d="M520.5 31h10" /><g class="non-terminal ">
<path d="M530.5 31h0.0" /><path d="M610.0 31h0.0" /><rect fill="rgb(0, 255, 0)" height="22" width="79.5" x="530.5" y="20"></rect><text x="570.25" y="35">value))</text></g><path d="M610.0 31h10" /><path d="M620.0 31h10" /><g class="non-terminal ">
<path d="M630.0 31h0.0" /><path d="M658.5 31h0.0" /><rect fill="rgb(0, 255, 0)" height="22" width="28.5" x="630" y="20"></rect><text x="644.25" y="35">|</text></g><path d="M658.5 31h10" /><path d="M668.5 31h10" /><g class="non-terminal ">
<path d="M678.5 31h0.0" /><path d="M732.5 31h0.0" /><rect fill="rgb(0, 255, 0)" height="22" width="54" x="678.5" y="20"></rect><text x="705.5" y="35">(&apos;(&apos;</text></g><path d="M732.5 31h10" /><path d="M742.5 31h10" /><g class="non-terminal ">
<path d="M752.5 31h0.0" /><path d="M840.5 31h0.0" /><rect fill="rgb(0, 255, 0)" height="22" width="88" x="752.5" y="20"></rect><text x="796.5" y="35">((_type:</text></g><path d="M840.5 31h10" /><path d="M850.5 31h10" /><g class="non-terminal ">
<path d="M860.5 31h0.0" /><path d="M923.0 31h0.0" /><rect fill="rgb(0, 255, 0)" height="22" width="62.5" x="860.5" y="20"></rect><text x="891.75" y="35">type)</text></g><path d="M923.0 31h10" /><path d="M933.0 31h10" /><g class="non-terminal ">
<path d="M943.0 31h0.0" /><path d="M997.0 31h0.0" /><rect fill="rgb(0, 255, 0)" height="22" width="54" x="943" y="20"></rect><text x="970" y="35">(&apos;&amp;&apos;</text></g><path d="M997.0 31h10" /><path d="M1007.0 31h10" /><g class="non-terminal ">
<path d="M1017.0 31h0.0" /><path d="M1096.5 31h0.0" /><rect fill="rgb(0, 255, 0)" height="22" width="79.5" x="1017" y="20"></rect><text x="1056.75" y="35">(_type:</text></g><path d="M1096.5 31h10" /><path d="M1106.5 31h10" /><g class="non-terminal ">
<path d="M1116.5 31h0.0" /><path d="M1204.5 31h0.0" /><rect fill="rgb(0, 255, 0)" height="22" width="88" x="1116.5" y="20"></rect><text x="1160.5" y="35">type))*)</text></g><path d="M1204.5 31h10" /><path d="M1214.5 31h10" /><g class="terminal ">
<path d="M1224.5 31h0.0" /><path d="M1253.0 31h0.0" /><rect fill="rgb(0, 255, 0)" height="22" width="28.5" x="1224.5" y="20"></rect><text x="1238.75" y="35">)</text></g><path d="M1253.0 31h10" /><path d="M1263.0 31h10" /><g class="non-terminal ">
<path d="M1273.0 31h0.0" /><path d="M1463.0 31h0.0" /><rect fill="rgb(0, 255, 0)" height="22" width="190" x="1273" y="20"></rect><text x="1368" y="35">((primary_expression</text></g><path d="M1463.0 31h10" /><path d="M1473.0 31h10" /><g class="non-terminal ">
<path d="M1483.0 31h0.0" /><path d="M1511.5 31h0.0" /><rect fill="rgb(0, 255, 0)" height="22" width="28.5" x="1483" y="20"></rect><text x="1497.25" y="35">|</text></g><path d="M1511.5 31h10" /><path d="M1521.5 31h10" /><g class="non-terminal ">
<path d="M1531.5 31h0.0" /><path d="M1713.0 31h0.0" /><rect fill="rgb(0, 255, 0)" height="22" width="181.5" x="1531.5" y="20"></rect><text x="1622.25" y="35">lambda_expression):</text></g><path d="M1713.0 31h10" /><path d="M1723.0 31h10" /><g class="non-terminal ">
<path d="M1733.0 31h0.0" /><path d="M1821.0 31h0.0" /><rect fill="rgb(0, 255, 0)" height="22" width="88" x="1733" y="20"></rect><text x="1777" y="35">value)))</text></g></g><path d="M1821.0 31h10" /><path d="M 1831.0 31 h 20 m -10 -10 v 20 m 10 -20 v 20"></path></g><style>/* <![CDATA[ */
	svg.railroad-diagram {
		background-color:hsl(30,20%,95%);
	}
	svg.railroad-diagram path {
		stroke-width:3;
		stroke:black;
		fill:rgba(0,0,0,0);
	}
	svg.railroad-diagram text {
		font:bold 14px monospace;
		text-anchor:middle;
	}
	svg.railroad-diagram text.label{
		text-anchor:start;
	}
	svg.railroad-diagram text.comment{
		font:italic 12px monospace;
	}
	svg.railroad-diagram rect{
		stroke-width:3;
		stroke:black;
		fill:hsl(120,100%,90%);
	}
	svg.railroad-diagram rect.group-box {
		stroke: gray;
		stroke-dasharray: 10 5;
		fill: none;
	}

/* ]]> */
</style></svg>