<svg class="railroad-diagram" height="62" viewBox="0 0 668.5 62" width="668.5" xmlns="http://www.w3.org/2000/svg" xmlns:xlink="http://www.w3.org/1999/xlink">
<g transform="translate(.5 .5)">
<g>
<path d="M20 21v20m10 -20v20m-10 -10h20" /></g><path d="M40 31h10" /><g>
<path d="M50 31h0.0" /><path d="M618.5 31h0.0" /><g class="terminal ">
<path d="M50.0 31h0.0" /><path d="M112.5 31h0.0" /><rect fill="rgb(0, 255, 0)" height="22" width="62.5" x="50" y="20"></rect><text x="81.25" y="35">catch</text></g><path d="M112.5 31h10" /><path d="M122.5 31h10" /><g class="terminal ">
<path d="M132.5 31h0.0" /><path d="M161.0 31h0.0" /><rect fill="rgb(0, 255, 0)" height="22" width="28.5" x="132.5" y="20"></rect><text x="146.75" y="35">(</text></g><path d="M161.0 31h10" /><path d="M171.0 31h10" /><g class="non-terminal ">
<path d="M181.0 31h0.0" /><path d="M388.0 31h0.0" /><rect fill="rgb(0, 255, 0)" height="22" width="207" x="181" y="20"></rect><text x="284.5" y="35">catch_formal_parameter</text></g><path d="M388.0 31h10" /><path d="M398.0 31h10" /><g class="terminal ">
<path d="M408.0 31h0.0" /><path d="M436.5 31h0.0" /><rect fill="rgb(0, 255, 0)" height="22" width="28.5" x="408" y="20"></rect><text x="422.25" y="35">)</text></g><path d="M436.5 31h10" /><path d="M446.5 31h10" /><g class="non-terminal ">
<path d="M456.5 31h0.0" /><path d="M536.0 31h0.0" /><rect fill="rgb(0, 255, 0)" height="22" width="79.5" x="456.5" y="20"></rect><text x="496.25" y="35">(block:</text></g><path d="M536.0 31h10" /><path d="M546.0 31h10" /><g class="non-terminal ">
<path d="M556.0 31h0.0" /><path d="M618.5 31h0.0" /><rect fill="rgb(0, 255, 0)" height="22" width="62.5" x="556" y="20"></rect><text x="587.25" y="35">body)</text></g></g><path d="M618.5 31h10" /><path d="M 628.5 31 h 20 m -10 -10 v 20 m 10 -20 v 20"></path></g><style>/* <![CDATA[ */
	svg.railroad-diagram {
		background-color:hsl(30,20%,95%);
	}
	svg.railroad-diagram path {
		stroke-width:3;
		stroke:black;
		fill:rgba(0,0,0,0);
	}
	svg.railroad-diagram text {
		font:bold 14px monospace;
		text-anchor:middle;
	}
	svg.railroad-diagram text.label{
		text-anchor:start;
	}
	svg.railroad-diagram text.comment{
		font:italic 12px monospace;
	}
	svg.railroad-diagram rect{
		stroke-width:3;
		stroke:black;
		fill:hsl(120,100%,90%);
	}
	svg.railroad-diagram rect.group-box {
		stroke: gray;
		stroke-dasharray: 10 5;
		fill: none;
	}

/* ]]> */
</style></svg>