<svg class="railroad-diagram" height="62" viewBox="0 0 815.5 62" width="815.5" xmlns="http://www.w3.org/2000/svg" xmlns:xlink="http://www.w3.org/1999/xlink">
<g transform="translate(.5 .5)">
<g>
<path d="M20 21v20m10 -20v20m-10 -10h20" /></g><path d="M40 31h10" /><g>
<path d="M50 31h0.0" /><path d="M765.5 31h0.0" /><g class="non-terminal ">
<path d="M50.0 31h0.0" /><path d="M155.0 31h0.0" /><rect fill="rgb(0, 255, 0)" height="22" width="105" x="50" y="20"></rect><text x="102.5" y="35">modifiers?</text></g><path d="M155.0 31h10" /><path d="M165.0 31h10" /><g class="non-terminal ">
<path d="M175.0 31h0.0" /><path d="M390.5 31h0.0" /><rect fill="rgb(0, 255, 0)" height="22" width="215.5" x="175" y="20"></rect><text x="282.75" y="35">_constructor_declarator</text></g><path d="M390.5 31h10" /><path d="M400.5 31h10" /><g class="non-terminal ">
<path d="M410.5 31h0.0" /><path d="M490.0 31h0.0" /><rect fill="rgb(0, 255, 0)" height="22" width="79.5" x="410.5" y="20"></rect><text x="450.25" y="35">throws?</text></g><path d="M490.0 31h10" /><path d="M500.0 31h10" /><g class="non-terminal ">
<path d="M510.0 31h0.0" /><path d="M683.0 31h0.0" /><rect fill="rgb(0, 255, 0)" height="22" width="173" x="510" y="20"></rect><text x="596.5" y="35">(constructor_body:</text></g><path d="M683.0 31h10" /><path d="M693.0 31h10" /><g class="non-terminal ">
<path d="M703.0 31h0.0" /><path d="M765.5 31h0.0" /><rect fill="rgb(0, 255, 0)" height="22" width="62.5" x="703" y="20"></rect><text x="734.25" y="35">body)</text></g></g><path d="M765.5 31h10" /><path d="M 775.5 31 h 20 m -10 -10 v 20 m 10 -20 v 20"></path></g><style>/* <![CDATA[ */
	svg.railroad-diagram {
		background-color:hsl(30,20%,95%);
	}
	svg.railroad-diagram path {
		stroke-width:3;
		stroke:black;
		fill:rgba(0,0,0,0);
	}
	svg.railroad-diagram text {
		font:bold 14px monospace;
		text-anchor:middle;
	}
	svg.railroad-diagram text.label{
		text-anchor:start;
	}
	svg.railroad-diagram text.comment{
		font:italic 12px monospace;
	}
	svg.railroad-diagram rect{
		stroke-width:3;
		stroke:black;
		fill:hsl(120,100%,90%);
	}
	svg.railroad-diagram rect.group-box {
		stroke: gray;
		stroke-dasharray: 10 5;
		fill: none;
	}

/* ]]> */
</style></svg>