<svg class="railroad-diagram" height="62" viewBox="0 0 998.5 62" width="998.5" xmlns="http://www.w3.org/2000/svg" xmlns:xlink="http://www.w3.org/1999/xlink">
<g transform="translate(.5 .5)">
<g>
<path d="M20 21v20m10 -20v20m-10 -10h20" /></g><path d="M40 31h10" /><g>
<path d="M50 31h0.0" /><path d="M948.5 31h0.0" /><g class="non-terminal ">
<path d="M50.0 31h0.0" /><path d="M129.5 31h0.0" /><rect fill="rgb(0, 255, 0)" height="22" width="79.5" x="50" y="20"></rect><text x="89.75" y="35">@(@(&apos;0&apos;</text></g><path d="M129.5 31h10" /><path d="M139.5 31h10" /><g class="non-terminal ">
<path d="M149.5 31h0.0" /><path d="M178.0 31h0.0" /><rect fill="rgb(0, 255, 0)" height="22" width="28.5" x="149.5" y="20"></rect><text x="163.75" y="35">|</text></g><path d="M178.0 31h10" /><path d="M188.0 31h10" /><g class="non-terminal ">
<path d="M198.0 31h0.0" /><path d="M286.0 31h0.0" /><rect fill="rgb(0, 255, 0)" height="22" width="88" x="198" y="20"></rect><text x="242" y="35">(/[1-9]/</text></g><path d="M286.0 31h10" /><path d="M296.0 31h10" /><g class="non-terminal ">
<path d="M306.0 31h0.0" /><path d="M368.5 31h0.0" /><rect fill="rgb(0, 255, 0)" height="22" width="62.5" x="306" y="20"></rect><text x="337.25" y="35">(&apos;_&apos;?</text></g><path d="M368.5 31h10" /><path d="M378.5 31h10" /><g class="non-terminal ">
<path d="M388.5 31h0.0" /><path d="M485.0 31h0.0" /><rect fill="rgb(0, 255, 0)" height="22" width="96.5" x="388.5" y="20"></rect><text x="436.75" y="35">(/[0-9]+/</text></g><path d="M485.0 31h10" /><path d="M495.0 31h10" /><g class="non-terminal ">
<path d="M505.0 31h0.0" /><path d="M567.5 31h0.0" /><rect fill="rgb(0, 255, 0)" height="22" width="62.5" x="505" y="20"></rect><text x="536.25" y="35">(/_+/</text></g><path d="M567.5 31h10" /><path d="M577.5 31h10" /><g class="non-terminal ">
<path d="M587.5 31h0.0" /><path d="M735.0 31h0.0" /><rect fill="rgb(0, 255, 0)" height="22" width="147.5" x="587.5" y="20"></rect><text x="661.25" y="35">/[0-9]+/)*))?))</text></g><path d="M735.0 31h10" /><path d="M745.0 31h10" /><g class="non-terminal ">
<path d="M755.0 31h0.0" /><path d="M809.0 31h0.0" /><rect fill="rgb(0, 255, 0)" height="22" width="54" x="755" y="20"></rect><text x="782" y="35">(&apos;l&apos;</text></g><path d="M809.0 31h10" /><path d="M819.0 31h10" /><g class="non-terminal ">
<path d="M829.0 31h0.0" /><path d="M857.5 31h0.0" /><rect fill="rgb(0, 255, 0)" height="22" width="28.5" x="829" y="20"></rect><text x="843.25" y="35">|</text></g><path d="M857.5 31h10" /><path d="M867.5 31h10" /><g class="non-terminal ">
<path d="M877.5 31h0.0" /><path d="M948.5 31h0.0" /><rect fill="rgb(0, 255, 0)" height="22" width="71" x="877.5" y="20"></rect><text x="913" y="35">&apos;l&apos;)?)</text></g></g><path d="M948.5 31h10" /><path d="M 958.5 31 h 20 m -10 -10 v 20 m 10 -20 v 20"></path></g><style>/* <![CDATA[ */
	svg.railroad-diagram {
		background-color:hsl(30,20%,95%);
	}
	svg.railroad-diagram path {
		stroke-width:3;
		stroke:black;
		fill:rgba(0,0,0,0);
	}
	svg.railroad-diagram text {
		font:bold 14px monospace;
		text-anchor:middle;
	}
	svg.railroad-diagram text.label{
		text-anchor:start;
	}
	svg.railroad-diagram text.comment{
		font:italic 12px monospace;
	}
	svg.railroad-diagram rect{
		stroke-width:3;
		stroke:black;
		fill:hsl(120,100%,90%);
	}
	svg.railroad-diagram rect.group-box {
		stroke: gray;
		stroke-dasharray: 10 5;
		fill: none;
	}

/* ]]> */
</style></svg>