<svg class="railroad-diagram" height="62" viewBox="0 0 870.0 62" width="870.0" xmlns="http://www.w3.org/2000/svg" xmlns:xlink="http://www.w3.org/1999/xlink">
<g transform="translate(.5 .5)">
<g>
<path d="M20 21v20m10 -20v20m-10 -10h20" /></g><path d="M40 31h10" /><g>
<path d="M50 31h0.0" /><path d="M820.0 31h0.0" /><g class="terminal ">
<path d="M50.0 31h0.0" /><path d="M87.0 31h0.0" /><rect fill="rgb(0, 255, 0)" height="22" width="37" x="50" y="20"></rect><text x="68.5" y="35">do</text></g><path d="M87.0 31h10" /><path d="M97.0 31h10" /><g class="non-terminal ">
<path d="M107.0 31h0.0" /><path d="M220.5 31h0.0" /><rect fill="rgb(0, 255, 0)" height="22" width="113.5" x="107" y="20"></rect><text x="163.75" y="35">(statement:</text></g><path d="M220.5 31h10" /><path d="M230.5 31h10" /><g class="non-terminal ">
<path d="M240.5 31h0.0" /><path d="M303.0 31h0.0" /><rect fill="rgb(0, 255, 0)" height="22" width="62.5" x="240.5" y="20"></rect><text x="271.75" y="35">body)</text></g><path d="M303.0 31h10" /><path d="M313.0 31h10" /><g class="terminal ">
<path d="M323.0 31h0.0" /><path d="M385.5 31h0.0" /><rect fill="rgb(0, 255, 0)" height="22" width="62.5" x="323" y="20"></rect><text x="354.25" y="35">while</text></g><path d="M385.5 31h10" /><path d="M395.5 31h10" /><g class="non-terminal ">
<path d="M405.5 31h0.0" /><path d="M646.5 31h0.0" /><rect fill="rgb(0, 255, 0)" height="22" width="241" x="405.5" y="20"></rect><text x="526" y="35">(parenthesized_expression:</text></g><path d="M646.5 31h10" /><path d="M656.5 31h10" /><g class="non-terminal ">
<path d="M666.5 31h0.0" /><path d="M771.5 31h0.0" /><rect fill="rgb(0, 255, 0)" height="22" width="105" x="666.5" y="20"></rect><text x="719" y="35">condition)</text></g><path d="M771.5 31h10" /><path d="M781.5 31h10" /><g class="terminal ">
<path d="M791.5 31h0.0" /><path d="M820.0 31h0.0" /><rect fill="rgb(0, 255, 0)" height="22" width="28.5" x="791.5" y="20"></rect><text x="805.75" y="35">;</text></g></g><path d="M820.0 31h10" /><path d="M 830.0 31 h 20 m -10 -10 v 20 m 10 -20 v 20"></path></g><style>/* <![CDATA[ */
	svg.railroad-diagram {
		background-color:hsl(30,20%,95%);
	}
	svg.railroad-diagram path {
		stroke-width:3;
		stroke:black;
		fill:rgba(0,0,0,0);
	}
	svg.railroad-diagram text {
		font:bold 14px monospace;
		text-anchor:middle;
	}
	svg.railroad-diagram text.label{
		text-anchor:start;
	}
	svg.railroad-diagram text.comment{
		font:italic 12px monospace;
	}
	svg.railroad-diagram rect{
		stroke-width:3;
		stroke:black;
		fill:hsl(120,100%,90%);
	}
	svg.railroad-diagram rect.group-box {
		stroke: gray;
		stroke-dasharray: 10 5;
		fill: none;
	}

/* ]]> */
</style></svg>