<svg class="railroad-diagram" height="62" viewBox="0 0 1384.5 62" width="1384.5" xmlns="http://www.w3.org/2000/svg" xmlns:xlink="http://www.w3.org/1999/xlink">
<g transform="translate(.5 .5)">
<g>
<path d="M20 21v20m10 -20v20m-10 -10h20" /></g><path d="M40 31h10" /><g>
<path d="M50 31h0.0" /><path d="M1334.5 31h0.0" /><g class="terminal ">
<path d="M50.0 31h0.0" /><path d="M95.5 31h0.0" /><rect fill="rgb(0, 255, 0)" height="22" width="45.5" x="50" y="20"></rect><text x="72.75" y="35">for</text></g><path d="M95.5 31h10" /><path d="M105.5 31h10" /><g class="terminal ">
<path d="M115.5 31h0.0" /><path d="M144.0 31h0.0" /><rect fill="rgb(0, 255, 0)" height="22" width="28.5" x="115.5" y="20"></rect><text x="129.75" y="35">(</text></g><path d="M144.0 31h10" /><path d="M154.0 31h10" /><g class="non-terminal ">
<path d="M164.0 31h0.0" /><path d="M269.0 31h0.0" /><rect fill="rgb(0, 255, 0)" height="22" width="105" x="164" y="20"></rect><text x="216.5" y="35">modifiers?</text></g><path d="M269.0 31h10" /><path d="M279.0 31h10" /><g class="non-terminal ">
<path d="M289.0 31h0.0" /><path d="M470.5 31h0.0" /><rect fill="rgb(0, 255, 0)" height="22" width="181.5" x="289" y="20"></rect><text x="379.75" y="35">(_unannotated_type:</text></g><path d="M470.5 31h10" /><path d="M480.5 31h10" /><g class="non-terminal ">
<path d="M490.5 31h0.0" /><path d="M553.0 31h0.0" /><rect fill="rgb(0, 255, 0)" height="22" width="62.5" x="490.5" y="20"></rect><text x="521.75" y="35">type)</text></g><path d="M553.0 31h10" /><path d="M563.0 31h10" /><g class="non-terminal ">
<path d="M573.0 31h0.0" /><path d="M788.5 31h0.0" /><rect fill="rgb(0, 255, 0)" height="22" width="215.5" x="573" y="20"></rect><text x="680.75" y="35">_variable_declarator_id</text></g><path d="M788.5 31h10" /><path d="M798.5 31h10" /><g class="terminal ">
<path d="M808.5 31h0.0" /><path d="M837.0 31h0.0" /><rect fill="rgb(0, 255, 0)" height="22" width="28.5" x="808.5" y="20"></rect><text x="822.75" y="35">:</text></g><path d="M837.0 31h10" /><path d="M847.0 31h10" /><g class="non-terminal ">
<path d="M857.0 31h0.0" /><path d="M979.0 31h0.0" /><rect fill="rgb(0, 255, 0)" height="22" width="122" x="857" y="20"></rect><text x="918" y="35">(expression:</text></g><path d="M979.0 31h10" /><path d="M989.0 31h10" /><g class="non-terminal ">
<path d="M999.0 31h0.0" /><path d="M1070.0 31h0.0" /><rect fill="rgb(0, 255, 0)" height="22" width="71" x="999" y="20"></rect><text x="1034.5" y="35">value)</text></g><path d="M1070.0 31h10" /><path d="M1080.0 31h10" /><g class="terminal ">
<path d="M1090.0 31h0.0" /><path d="M1118.5 31h0.0" /><rect fill="rgb(0, 255, 0)" height="22" width="28.5" x="1090" y="20"></rect><text x="1104.25" y="35">)</text></g><path d="M1118.5 31h10" /><path d="M1128.5 31h10" /><g class="non-terminal ">
<path d="M1138.5 31h0.0" /><path d="M1252.0 31h0.0" /><rect fill="rgb(0, 255, 0)" height="22" width="113.5" x="1138.5" y="20"></rect><text x="1195.25" y="35">(statement:</text></g><path d="M1252.0 31h10" /><path d="M1262.0 31h10" /><g class="non-terminal ">
<path d="M1272.0 31h0.0" /><path d="M1334.5 31h0.0" /><rect fill="rgb(0, 255, 0)" height="22" width="62.5" x="1272" y="20"></rect><text x="1303.25" y="35">body)</text></g></g><path d="M1334.5 31h10" /><path d="M 1344.5 31 h 20 m -10 -10 v 20 m 10 -20 v 20"></path></g><style>/* <![CDATA[ */
	svg.railroad-diagram {
		background-color:hsl(30,20%,95%);
	}
	svg.railroad-diagram path {
		stroke-width:3;
		stroke:black;
		fill:rgba(0,0,0,0);
	}
	svg.railroad-diagram text {
		font:bold 14px monospace;
		text-anchor:middle;
	}
	svg.railroad-diagram text.label{
		text-anchor:start;
	}
	svg.railroad-diagram text.comment{
		font:italic 12px monospace;
	}
	svg.railroad-diagram rect{
		stroke-width:3;
		stroke:black;
		fill:hsl(120,100%,90%);
	}
	svg.railroad-diagram rect.group-box {
		stroke: gray;
		stroke-dasharray: 10 5;
		fill: none;
	}

/* ]]> */
</style></svg>