<svg class="railroad-diagram" height="62" viewBox="0 0 904.0 62" width="904.0" xmlns="http://www.w3.org/2000/svg" xmlns:xlink="http://www.w3.org/1999/xlink">
<g transform="translate(.5 .5)">
<g>
<path d="M20 21v20m10 -20v20m-10 -10h20" /></g><path d="M40 31h10" /><g>
<path d="M50 31h0.0" /><path d="M854.0 31h0.0" /><g class="terminal ">
<path d="M50.0 31h0.0" /><path d="M78.5 31h0.0" /><rect fill="rgb(0, 255, 0)" height="22" width="28.5" x="50" y="20"></rect><text x="64.25" y="35">{</text></g><path d="M78.5 31h10" /><path d="M88.5 31h10" /><g class="non-terminal ">
<path d="M98.5 31h0.0" /><path d="M237.5 31h0.0" /><rect fill="rgb(0, 255, 0)" height="22" width="139" x="98.5" y="20"></rect><text x="168" y="35">(enum_constant</text></g><path d="M237.5 31h10" /><path d="M247.5 31h10" /><g class="non-terminal ">
<path d="M257.5 31h0.0" /><path d="M311.5 31h0.0" /><rect fill="rgb(0, 255, 0)" height="22" width="54" x="257.5" y="20"></rect><text x="284.5" y="35">(&apos;,&apos;</text></g><path d="M311.5 31h10" /><path d="M321.5 31h10" /><g class="non-terminal ">
<path d="M331.5 31h0.0" /><path d="M496.0 31h0.0" /><rect fill="rgb(0, 255, 0)" height="22" width="164.5" x="331.5" y="20"></rect><text x="413.75" y="35">enum_constant)*)?</text></g><path d="M496.0 31h10" /><path d="M506.0 31h10" /><g class="non-terminal ">
<path d="M516.0 31h0.0" /><path d="M570.0 31h0.0" /><rect fill="rgb(0, 255, 0)" height="22" width="54" x="516" y="20"></rect><text x="543" y="35">&apos;,&apos;?</text></g><path d="M570.0 31h10" /><path d="M580.0 31h10" /><g class="non-terminal ">
<path d="M590.0 31h0.0" /><path d="M805.5 31h0.0" /><rect fill="rgb(0, 255, 0)" height="22" width="215.5" x="590" y="20"></rect><text x="697.75" y="35">enum_body_declarations?</text></g><path d="M805.5 31h10" /><path d="M815.5 31h10" /><g class="terminal ">
<path d="M825.5 31h0.0" /><path d="M854.0 31h0.0" /><rect fill="rgb(0, 255, 0)" height="22" width="28.5" x="825.5" y="20"></rect><text x="839.75" y="35">}</text></g></g><path d="M854.0 31h10" /><path d="M 864.0 31 h 20 m -10 -10 v 20 m 10 -20 v 20"></path></g><style>/* <![CDATA[ */
	svg.railroad-diagram {
		background-color:hsl(30,20%,95%);
	}
	svg.railroad-diagram path {
		stroke-width:3;
		stroke:black;
		fill:rgba(0,0,0,0);
	}
	svg.railroad-diagram text {
		font:bold 14px monospace;
		text-anchor:middle;
	}
	svg.railroad-diagram text.label{
		text-anchor:start;
	}
	svg.railroad-diagram text.comment{
		font:italic 12px monospace;
	}
	svg.railroad-diagram rect{
		stroke-width:3;
		stroke:black;
		fill:hsl(120,100%,90%);
	}
	svg.railroad-diagram rect.group-box {
		stroke: gray;
		stroke-dasharray: 10 5;
		fill: none;
	}

/* ]]> */
</style></svg>