<svg class="railroad-diagram" height="62" viewBox="0 0 1219.5 62" width="1219.5" xmlns="http://www.w3.org/2000/svg" xmlns:xlink="http://www.w3.org/1999/xlink">
<g transform="translate(.5 .5)">
<g>
<path d="M20 21v20m10 -20v20m-10 -10h20" /></g><path d="M40 31h10" /><g>
<path d="M50 31h0.0" /><path d="M1169.5 31h0.0" /><g class="non-terminal ">
<path d="M50.0 31h0.0" /><path d="M112.5 31h0.0" /><rect fill="rgb(0, 255, 0)" height="22" width="62.5" x="50" y="20"></rect><text x="81.25" y="35">!(&apos;\&apos;</text></g><path d="M112.5 31h10" /><path d="M122.5 31h10" /><g class="non-terminal ">
<path d="M132.5 31h0.0" /><path d="M246.0 31h0.0" /><rect fill="rgb(0, 255, 0)" height="22" width="113.5" x="132.5" y="20"></rect><text x="189.25" y="35">(/[^xu0-7]/</text></g><path d="M246.0 31h10" /><path d="M256.0 31h10" /><g class="non-terminal ">
<path d="M266.0 31h0.0" /><path d="M294.5 31h0.0" /><rect fill="rgb(0, 255, 0)" height="22" width="28.5" x="266" y="20"></rect><text x="280.25" y="35">|</text></g><path d="M294.5 31h10" /><path d="M304.5 31h10" /><g class="non-terminal ">
<path d="M314.5 31h0.0" /><path d="M436.5 31h0.0" /><rect fill="rgb(0, 255, 0)" height="22" width="122" x="314.5" y="20"></rect><text x="375.5" y="35">/[0-7]{1,3}/</text></g><path d="M436.5 31h10" /><path d="M446.5 31h10" /><g class="non-terminal ">
<path d="M456.5 31h0.0" /><path d="M485.0 31h0.0" /><rect fill="rgb(0, 255, 0)" height="22" width="28.5" x="456.5" y="20"></rect><text x="470.75" y="35">|</text></g><path d="M485.0 31h10" /><path d="M495.0 31h10" /><g class="non-terminal ">
<path d="M505.0 31h0.0" /><path d="M669.5 31h0.0" /><rect fill="rgb(0, 255, 0)" height="22" width="164.5" x="505" y="20"></rect><text x="587.25" y="35">/x[0-9a-fa-f]{2}/</text></g><path d="M669.5 31h10" /><path d="M679.5 31h10" /><g class="non-terminal ">
<path d="M689.5 31h0.0" /><path d="M718.0 31h0.0" /><rect fill="rgb(0, 255, 0)" height="22" width="28.5" x="689.5" y="20"></rect><text x="703.75" y="35">|</text></g><path d="M718.0 31h10" /><path d="M728.0 31h10" /><g class="non-terminal ">
<path d="M738.0 31h0.0" /><path d="M902.5 31h0.0" /><rect fill="rgb(0, 255, 0)" height="22" width="164.5" x="738" y="20"></rect><text x="820.25" y="35">/u[0-9a-fa-f]{4}/</text></g><path d="M902.5 31h10" /><path d="M912.5 31h10" /><g class="non-terminal ">
<path d="M922.5 31h0.0" /><path d="M951.0 31h0.0" /><rect fill="rgb(0, 255, 0)" height="22" width="28.5" x="922.5" y="20"></rect><text x="936.75" y="35">|</text></g><path d="M951.0 31h10" /><path d="M961.0 31h10" /><g class="non-terminal ">
<path d="M971.0 31h0.0" /><path d="M1169.5 31h0.0" /><rect fill="rgb(0, 255, 0)" height="22" width="198.5" x="971" y="20"></rect><text x="1070.25" y="35">/u\{[0-9a-fa-f]+\}/))</text></g></g><path d="M1169.5 31h10" /><path d="M 1179.5 31 h 20 m -10 -10 v 20 m 10 -20 v 20"></path></g><style>/* <![CDATA[ */
	svg.railroad-diagram {
		background-color:hsl(30,20%,95%);
	}
	svg.railroad-diagram path {
		stroke-width:3;
		stroke:black;
		fill:rgba(0,0,0,0);
	}
	svg.railroad-diagram text {
		font:bold 14px monospace;
		text-anchor:middle;
	}
	svg.railroad-diagram text.label{
		text-anchor:start;
	}
	svg.railroad-diagram text.comment{
		font:italic 12px monospace;
	}
	svg.railroad-diagram rect{
		stroke-width:3;
		stroke:black;
		fill:hsl(120,100%,90%);
	}
	svg.railroad-diagram rect.group-box {
		stroke: gray;
		stroke-dasharray: 10 5;
		fill: none;
	}

/* ]]> */
</style></svg>