<svg class="railroad-diagram" height="62" viewBox="0 0 2222.0 62" width="2222.0" xmlns="http://www.w3.org/2000/svg" xmlns:xlink="http://www.w3.org/1999/xlink">
<g transform="translate(.5 .5)">
<g>
<path d="M20 21v20m10 -20v20m-10 -10h20" /></g><path d="M40 31h10" /><g>
<path d="M50 31h0.0" /><path d="M2172.0 31h0.0" /><g class="non-terminal ">
<path d="M50.0 31h0.0" /><path d="M231.5 31h0.0" /><rect fill="rgb(0, 255, 0)" height="22" width="181.5" x="50" y="20"></rect><text x="140.75" y="35">(((type_arguments?:</text></g><path d="M231.5 31h10" /><path d="M241.5 31h10" /><g class="non-terminal ">
<path d="M251.5 31h0.0" /><path d="M399.0 31h0.0" /><rect fill="rgb(0, 255, 0)" height="22" width="147.5" x="251.5" y="20"></rect><text x="325.25" y="35">type_arguments)</text></g><path d="M399.0 31h10" /><path d="M409.0 31h10" /><g class="non-terminal ">
<path d="M419.0 31h0.0" /><path d="M490.0 31h0.0" /><rect fill="rgb(0, 255, 0)" height="22" width="71" x="419" y="20"></rect><text x="454.5" y="35">((this</text></g><path d="M490.0 31h10" /><path d="M500.0 31h10" /><g class="non-terminal ">
<path d="M510.0 31h0.0" /><path d="M538.5 31h0.0" /><rect fill="rgb(0, 255, 0)" height="22" width="28.5" x="510" y="20"></rect><text x="524.25" y="35">|</text></g><path d="M538.5 31h10" /><path d="M548.5 31h10" /><g class="non-terminal ">
<path d="M558.5 31h0.0" /><path d="M638.0 31h0.0" /><rect fill="rgb(0, 255, 0)" height="22" width="79.5" x="558.5" y="20"></rect><text x="598.25" y="35">super):</text></g><path d="M638.0 31h10" /><path d="M648.0 31h10" /><g class="non-terminal ">
<path d="M658.0 31h0.0" /><path d="M788.5 31h0.0" /><rect fill="rgb(0, 255, 0)" height="22" width="130.5" x="658" y="20"></rect><text x="723.25" y="35">constructor))</text></g><path d="M788.5 31h10" /><path d="M798.5 31h10" /><g class="non-terminal ">
<path d="M808.5 31h0.0" /><path d="M837.0 31h0.0" /><rect fill="rgb(0, 255, 0)" height="22" width="28.5" x="808.5" y="20"></rect><text x="822.75" y="35">|</text></g><path d="M837.0 31h10" /><path d="M847.0 31h10" /><g class="non-terminal ">
<path d="M857.0 31h0.0" /><path d="M1072.5 31h0.0" /><rect fill="rgb(0, 255, 0)" height="22" width="215.5" x="857" y="20"></rect><text x="964.75" y="35">(((primary_expression):</text></g><path d="M1072.5 31h10" /><path d="M1082.5 31h10" /><g class="non-terminal ">
<path d="M1092.5 31h0.0" /><path d="M1172.0 31h0.0" /><rect fill="rgb(0, 255, 0)" height="22" width="79.5" x="1092.5" y="20"></rect><text x="1132.25" y="35">object)</text></g><path d="M1172.0 31h10" /><path d="M1182.0 31h10" /><g class="terminal ">
<path d="M1192.0 31h0.0" /><path d="M1220.5 31h0.0" /><rect fill="rgb(0, 255, 0)" height="22" width="28.5" x="1192" y="20"></rect><text x="1206.25" y="35">.</text></g><path d="M1220.5 31h10" /><path d="M1230.5 31h10" /><g class="non-terminal ">
<path d="M1240.5 31h0.0" /><path d="M1405.0 31h0.0" /><rect fill="rgb(0, 255, 0)" height="22" width="164.5" x="1240.5" y="20"></rect><text x="1322.75" y="35">(type_arguments?:</text></g><path d="M1405.0 31h10" /><path d="M1415.0 31h10" /><g class="non-terminal ">
<path d="M1425.0 31h0.0" /><path d="M1572.5 31h0.0" /><rect fill="rgb(0, 255, 0)" height="22" width="147.5" x="1425" y="20"></rect><text x="1498.75" y="35">type_arguments)</text></g><path d="M1572.5 31h10" /><path d="M1582.5 31h10" /><g class="non-terminal ">
<path d="M1592.5 31h0.0" /><path d="M1672.0 31h0.0" /><rect fill="rgb(0, 255, 0)" height="22" width="79.5" x="1592.5" y="20"></rect><text x="1632.25" y="35">(super:</text></g><path d="M1672.0 31h10" /><path d="M1682.0 31h10" /><g class="non-terminal ">
<path d="M1692.0 31h0.0" /><path d="M1831.0 31h0.0" /><rect fill="rgb(0, 255, 0)" height="22" width="139" x="1692" y="20"></rect><text x="1761.5" y="35">constructor)))</text></g><path d="M1831.0 31h10" /><path d="M1841.0 31h10" /><g class="non-terminal ">
<path d="M1851.0 31h0.0" /><path d="M1998.5 31h0.0" /><rect fill="rgb(0, 255, 0)" height="22" width="147.5" x="1851" y="20"></rect><text x="1924.75" y="35">(argument_list:</text></g><path d="M1998.5 31h10" /><path d="M2008.5 31h10" /><g class="non-terminal ">
<path d="M2018.5 31h0.0" /><path d="M2123.5 31h0.0" /><rect fill="rgb(0, 255, 0)" height="22" width="105" x="2018.5" y="20"></rect><text x="2071" y="35">arguments)</text></g><path d="M2123.5 31h10" /><path d="M2133.5 31h10" /><g class="terminal ">
<path d="M2143.5 31h0.0" /><path d="M2172.0 31h0.0" /><rect fill="rgb(0, 255, 0)" height="22" width="28.5" x="2143.5" y="20"></rect><text x="2157.75" y="35">;</text></g></g><path d="M2172.0 31h10" /><path d="M 2182.0 31 h 20 m -10 -10 v 20 m 10 -20 v 20"></path></g><style>/* <![CDATA[ */
	svg.railroad-diagram {
		background-color:hsl(30,20%,95%);
	}
	svg.railroad-diagram path {
		stroke-width:3;
		stroke:black;
		fill:rgba(0,0,0,0);
	}
	svg.railroad-diagram text {
		font:bold 14px monospace;
		text-anchor:middle;
	}
	svg.railroad-diagram text.label{
		text-anchor:start;
	}
	svg.railroad-diagram text.comment{
		font:italic 12px monospace;
	}
	svg.railroad-diagram rect{
		stroke-width:3;
		stroke:black;
		fill:hsl(120,100%,90%);
	}
	svg.railroad-diagram rect.group-box {
		stroke: gray;
		stroke-dasharray: 10 5;
		fill: none;
	}

/* ]]> */
</style></svg>