<svg class="railroad-diagram" height="62" viewBox="0 0 1390.5 62" width="1390.5" xmlns="http://www.w3.org/2000/svg" xmlns:xlink="http://www.w3.org/1999/xlink">
<g transform="translate(.5 .5)">
<g>
<path d="M20 21v20m10 -20v20m-10 -10h20" /></g><path d="M40 31h10" /><g>
<path d="M50 31h0.0" /><path d="M1340.5 31h0.0" /><g class="non-terminal ">
<path d="M50.0 31h0.0" /><path d="M240.0 31h0.0" /><rect fill="rgb(0, 255, 0)" height="22" width="190" x="50" y="20"></rect><text x="145" y="35">((primary_expression</text></g><path d="M240.0 31h10" /><path d="M250.0 31h10" /><g class="non-terminal ">
<path d="M260.0 31h0.0" /><path d="M288.5 31h0.0" /><rect fill="rgb(0, 255, 0)" height="22" width="28.5" x="260" y="20"></rect><text x="274.25" y="35">|</text></g><path d="M288.5 31h10" /><path d="M298.5 31h10" /><g class="non-terminal ">
<path d="M308.5 31h0.0" /><path d="M388.0 31h0.0" /><rect fill="rgb(0, 255, 0)" height="22" width="79.5" x="308.5" y="20"></rect><text x="348.25" y="35">super):</text></g><path d="M388.0 31h10" /><path d="M398.0 31h10" /><g class="non-terminal ">
<path d="M408.0 31h0.0" /><path d="M487.5 31h0.0" /><rect fill="rgb(0, 255, 0)" height="22" width="79.5" x="408" y="20"></rect><text x="447.75" y="35">object)</text></g><path d="M487.5 31h10" /><path d="M497.5 31h10" /><g class="non-terminal ">
<path d="M507.5 31h0.0" /><path d="M561.5 31h0.0" /><rect fill="rgb(0, 255, 0)" height="22" width="54" x="507.5" y="20"></rect><text x="534.5" y="35">(&apos;.&apos;</text></g><path d="M561.5 31h10" /><path d="M571.5 31h10" /><g class="non-terminal ">
<path d="M581.5 31h0.0" /><path d="M661.0 31h0.0" /><rect fill="rgb(0, 255, 0)" height="22" width="79.5" x="581.5" y="20"></rect><text x="621.25" y="35">super)?</text></g><path d="M661.0 31h10" /><path d="M671.0 31h10" /><g class="terminal ">
<path d="M681.0 31h0.0" /><path d="M709.5 31h0.0" /><rect fill="rgb(0, 255, 0)" height="22" width="28.5" x="681" y="20"></rect><text x="695.25" y="35">.</text></g><path d="M709.5 31h10" /><path d="M719.5 31h10" /><g class="non-terminal ">
<path d="M729.5 31h0.0" /><path d="M851.5 31h0.0" /><rect fill="rgb(0, 255, 0)" height="22" width="122" x="729.5" y="20"></rect><text x="790.5" y="35">((identifier</text></g><path d="M851.5 31h10" /><path d="M861.5 31h10" /><g class="non-terminal ">
<path d="M871.5 31h0.0" /><path d="M900.0 31h0.0" /><rect fill="rgb(0, 255, 0)" height="22" width="28.5" x="871.5" y="20"></rect><text x="885.75" y="35">|</text></g><path d="M900.0 31h10" /><path d="M910.0 31h10" /><g class="non-terminal ">
<path d="M920.0 31h0.0" /><path d="M1110.0 31h0.0" /><rect fill="rgb(0, 255, 0)" height="22" width="190" x="920" y="20"></rect><text x="1015" y="35">_reserved_identifier</text></g><path d="M1110.0 31h10" /><path d="M1120.0 31h10" /><g class="non-terminal ">
<path d="M1130.0 31h0.0" /><path d="M1158.5 31h0.0" /><rect fill="rgb(0, 255, 0)" height="22" width="28.5" x="1130" y="20"></rect><text x="1144.25" y="35">|</text></g><path d="M1158.5 31h10" /><path d="M1168.5 31h10" /><g class="non-terminal ">
<path d="M1178.5 31h0.0" /><path d="M1249.5 31h0.0" /><rect fill="rgb(0, 255, 0)" height="22" width="71" x="1178.5" y="20"></rect><text x="1214" y="35">this):</text></g><path d="M1249.5 31h10" /><path d="M1259.5 31h10" /><g class="non-terminal ">
<path d="M1269.5 31h0.0" /><path d="M1340.5 31h0.0" /><rect fill="rgb(0, 255, 0)" height="22" width="71" x="1269.5" y="20"></rect><text x="1305" y="35">field)</text></g></g><path d="M1340.5 31h10" /><path d="M 1350.5 31 h 20 m -10 -10 v 20 m 10 -20 v 20"></path></g><style>/* <![CDATA[ */
	svg.railroad-diagram {
		background-color:hsl(30,20%,95%);
	}
	svg.railroad-diagram path {
		stroke-width:3;
		stroke:black;
		fill:rgba(0,0,0,0);
	}
	svg.railroad-diagram text {
		font:bold 14px monospace;
		text-anchor:middle;
	}
	svg.railroad-diagram text.label{
		text-anchor:start;
	}
	svg.railroad-diagram text.comment{
		font:italic 12px monospace;
	}
	svg.railroad-diagram rect{
		stroke-width:3;
		stroke:black;
		fill:hsl(120,100%,90%);
	}
	svg.railroad-diagram rect.group-box {
		stroke: gray;
		stroke-dasharray: 10 5;
		fill: none;
	}

/* ]]> */
</style></svg>