<svg class="railroad-diagram" height="62" viewBox="0 0 1688.0 62" width="1688.0" xmlns="http://www.w3.org/2000/svg" xmlns:xlink="http://www.w3.org/1999/xlink">
<g transform="translate(.5 .5)">
<g>
<path d="M20 21v20m10 -20v20m-10 -10h20" /></g><path d="M40 31h10" /><g>
<path d="M50 31h0.0" /><path d="M1638.0 31h0.0" /><g class="terminal ">
<path d="M50.0 31h0.0" /><path d="M78.5 31h0.0" /><rect fill="rgb(0, 255, 0)" height="22" width="28.5" x="50" y="20"></rect><text x="64.25" y="35">(</text></g><path d="M78.5 31h10" /><path d="M88.5 31h10" /><g class="non-terminal ">
<path d="M98.5 31h0.0" /><path d="M280.0 31h0.0" /><rect fill="rgb(0, 255, 0)" height="22" width="181.5" x="98.5" y="20"></rect><text x="189.25" y="35">(receiver_parameter</text></g><path d="M280.0 31h10" /><path d="M290.0 31h10" /><g class="non-terminal ">
<path d="M300.0 31h0.0" /><path d="M328.5 31h0.0" /><rect fill="rgb(0, 255, 0)" height="22" width="28.5" x="300" y="20"></rect><text x="314.25" y="35">|</text></g><path d="M328.5 31h10" /><path d="M338.5 31h10" /><g class="non-terminal ">
<path d="M348.5 31h0.0" /><path d="M538.5 31h0.0" /><rect fill="rgb(0, 255, 0)" height="22" width="190" x="348.5" y="20"></rect><text x="443.5" y="35">((receiver_parameter</text></g><path d="M538.5 31h10" /><path d="M548.5 31h10" /><g class="non-terminal ">
<path d="M558.5 31h0.0" /><path d="M621.0 31h0.0" /><rect fill="rgb(0, 255, 0)" height="22" width="62.5" x="558.5" y="20"></rect><text x="589.75" y="35">&apos;,&apos;)?</text></g><path d="M621.0 31h10" /><path d="M631.0 31h10" /><g class="non-terminal ">
<path d="M641.0 31h0.0" /><path d="M814.0 31h0.0" /><rect fill="rgb(0, 255, 0)" height="22" width="173" x="641" y="20"></rect><text x="727.5" y="35">((formal_parameter</text></g><path d="M814.0 31h10" /><path d="M824.0 31h10" /><g class="non-terminal ">
<path d="M834.0 31h0.0" /><path d="M862.5 31h0.0" /><rect fill="rgb(0, 255, 0)" height="22" width="28.5" x="834" y="20"></rect><text x="848.25" y="35">|</text></g><path d="M862.5 31h10" /><path d="M872.5 31h10" /><g class="non-terminal ">
<path d="M882.5 31h0.0" /><path d="M1047.0 31h0.0" /><rect fill="rgb(0, 255, 0)" height="22" width="164.5" x="882.5" y="20"></rect><text x="964.75" y="35">spread_parameter)</text></g><path d="M1047.0 31h10" /><path d="M1057.0 31h10" /><g class="non-terminal ">
<path d="M1067.0 31h0.0" /><path d="M1121.0 31h0.0" /><rect fill="rgb(0, 255, 0)" height="22" width="54" x="1067" y="20"></rect><text x="1094" y="35">(&apos;,&apos;</text></g><path d="M1121.0 31h10" /><path d="M1131.0 31h10" /><g class="non-terminal ">
<path d="M1141.0 31h0.0" /><path d="M1305.5 31h0.0" /><rect fill="rgb(0, 255, 0)" height="22" width="164.5" x="1141" y="20"></rect><text x="1223.25" y="35">(formal_parameter</text></g><path d="M1305.5 31h10" /><path d="M1315.5 31h10" /><g class="non-terminal ">
<path d="M1325.5 31h0.0" /><path d="M1354.0 31h0.0" /><rect fill="rgb(0, 255, 0)" height="22" width="28.5" x="1325.5" y="20"></rect><text x="1339.75" y="35">|</text></g><path d="M1354.0 31h10" /><path d="M1364.0 31h10" /><g class="non-terminal ">
<path d="M1374.0 31h0.0" /><path d="M1589.5 31h0.0" /><rect fill="rgb(0, 255, 0)" height="22" width="215.5" x="1374" y="20"></rect><text x="1481.75" y="35">spread_parameter))*)?))</text></g><path d="M1589.5 31h10" /><path d="M1599.5 31h10" /><g class="terminal ">
<path d="M1609.5 31h0.0" /><path d="M1638.0 31h0.0" /><rect fill="rgb(0, 255, 0)" height="22" width="28.5" x="1609.5" y="20"></rect><text x="1623.75" y="35">)</text></g></g><path d="M1638.0 31h10" /><path d="M 1648.0 31 h 20 m -10 -10 v 20 m 10 -20 v 20"></path></g><style>/* <![CDATA[ */
	svg.railroad-diagram {
		background-color:hsl(30,20%,95%);
	}
	svg.railroad-diagram path {
		stroke-width:3;
		stroke:black;
		fill:rgba(0,0,0,0);
	}
	svg.railroad-diagram text {
		font:bold 14px monospace;
		text-anchor:middle;
	}
	svg.railroad-diagram text.label{
		text-anchor:start;
	}
	svg.railroad-diagram text.comment{
		font:italic 12px monospace;
	}
	svg.railroad-diagram rect{
		stroke-width:3;
		stroke:black;
		fill:hsl(120,100%,90%);
	}
	svg.railroad-diagram rect.group-box {
		stroke: gray;
		stroke-dasharray: 10 5;
		fill: none;
	}

/* ]]> */
</style></svg>