<svg class="railroad-diagram" height="62" viewBox="0 0 813.0 62" width="813.0" xmlns="http://www.w3.org/2000/svg" xmlns:xlink="http://www.w3.org/1999/xlink">
<g transform="translate(.5 .5)">
<g>
<path d="M20 21v20m10 -20v20m-10 -10h20" /></g><path d="M40 31h10" /><g>
<path d="M50 31h0.0" /><path d="M763.0 31h0.0" /><g class="non-terminal ">
<path d="M50.0 31h0.0" /><path d="M206.0 31h0.0" /><rect fill="rgb(0, 255, 0)" height="22" width="156" x="50" y="20"></rect><text x="128" y="35">~10(((identifier</text></g><path d="M206.0 31h10" /><path d="M216.0 31h10" /><g class="non-terminal ">
<path d="M226.0 31h0.0" /><path d="M263.0 31h0.0" /><rect fill="rgb(0, 255, 0)" height="22" width="37" x="226" y="20"></rect><text x="244.5" y="35">-></text></g><path d="M263.0 31h10" /><path d="M273.0 31h10" /><g class="non-terminal ">
<path d="M283.0 31h0.0" /><path d="M311.5 31h0.0" /><rect fill="rgb(0, 255, 0)" height="22" width="28.5" x="283" y="20"></rect><text x="297.25" y="35">)</text></g><path d="M311.5 31h10" /><path d="M321.5 31h10" /><g class="non-terminal ">
<path d="M331.5 31h0.0" /><path d="M360.0 31h0.0" /><rect fill="rgb(0, 255, 0)" height="22" width="28.5" x="331.5" y="20"></rect><text x="345.75" y="35">|</text></g><path d="M360.0 31h10" /><path d="M370.0 31h10" /><g class="non-terminal ">
<path d="M380.0 31h0.0" /><path d="M595.5 31h0.0" /><rect fill="rgb(0, 255, 0)" height="22" width="215.5" x="380" y="20"></rect><text x="487.75" y="35">scoped_type_identifier)</text></g><path d="M595.5 31h10" /><path d="M605.5 31h10" /><g class="non-terminal ">
<path d="M615.5 31h0.0" /><path d="M763.0 31h0.0" /><rect fill="rgb(0, 255, 0)" height="22" width="147.5" x="615.5" y="20"></rect><text x="689.25" y="35">type_arguments)</text></g></g><path d="M763.0 31h10" /><path d="M 773.0 31 h 20 m -10 -10 v 20 m 10 -20 v 20"></path></g><style>/* <![CDATA[ */
	svg.railroad-diagram {
		background-color:hsl(30,20%,95%);
	}
	svg.railroad-diagram path {
		stroke-width:3;
		stroke:black;
		fill:rgba(0,0,0,0);
	}
	svg.railroad-diagram text {
		font:bold 14px monospace;
		text-anchor:middle;
	}
	svg.railroad-diagram text.label{
		text-anchor:start;
	}
	svg.railroad-diagram text.comment{
		font:italic 12px monospace;
	}
	svg.railroad-diagram rect{
		stroke-width:3;
		stroke:black;
		fill:hsl(120,100%,90%);
	}
	svg.railroad-diagram rect.group-box {
		stroke: gray;
		stroke-dasharray: 10 5;
		fill: none;
	}

/* ]]> */
</style></svg>