<svg class="railroad-diagram" height="62" viewBox="0 0 958.5 62" width="958.5" xmlns="http://www.w3.org/2000/svg" xmlns:xlink="http://www.w3.org/1999/xlink">
<g transform="translate(.5 .5)">
<g>
<path d="M20 21v20m10 -20v20m-10 -10h20" /></g><path d="M40 31h10" /><g>
<path d="M50 31h0.0" /><path d="M908.5 31h0.0" /><g class="non-terminal ">
<path d="M50.0 31h0.0" /><path d="M129.5 31h0.0" /><rect fill="rgb(0, 255, 0)" height="22" width="79.5" x="50" y="20"></rect><text x="89.75" y="35">@((&apos;0x&apos;</text></g><path d="M129.5 31h10" /><path d="M139.5 31h10" /><g class="non-terminal ">
<path d="M149.5 31h0.0" /><path d="M178.0 31h0.0" /><rect fill="rgb(0, 255, 0)" height="22" width="28.5" x="149.5" y="20"></rect><text x="163.75" y="35">|</text></g><path d="M178.0 31h10" /><path d="M188.0 31h10" /><g class="non-terminal ">
<path d="M198.0 31h0.0" /><path d="M260.5 31h0.0" /><rect fill="rgb(0, 255, 0)" height="22" width="62.5" x="198" y="20"></rect><text x="229.25" y="35">&apos;0x&apos;)</text></g><path d="M260.5 31h10" /><path d="M270.5 31h10" /><g class="non-terminal ">
<path d="M280.5 31h0.0" /><path d="M436.5 31h0.0" /><rect fill="rgb(0, 255, 0)" height="22" width="156" x="280.5" y="20"></rect><text x="358.5" y="35">@(/[a-fa-f0-9]+/</text></g><path d="M436.5 31h10" /><path d="M446.5 31h10" /><g class="non-terminal ">
<path d="M456.5 31h0.0" /><path d="M510.5 31h0.0" /><rect fill="rgb(0, 255, 0)" height="22" width="54" x="456.5" y="20"></rect><text x="483.5" y="35">(&apos;_&apos;</text></g><path d="M510.5 31h10" /><path d="M520.5 31h10" /><g class="non-terminal ">
<path d="M530.5 31h0.0" /><path d="M695.0 31h0.0" /><rect fill="rgb(0, 255, 0)" height="22" width="164.5" x="530.5" y="20"></rect><text x="612.75" y="35">/[a-fa-f0-9]+/)*)</text></g><path d="M695.0 31h10" /><path d="M705.0 31h10" /><g class="non-terminal ">
<path d="M715.0 31h0.0" /><path d="M769.0 31h0.0" /><rect fill="rgb(0, 255, 0)" height="22" width="54" x="715" y="20"></rect><text x="742" y="35">(&apos;l&apos;</text></g><path d="M769.0 31h10" /><path d="M779.0 31h10" /><g class="non-terminal ">
<path d="M789.0 31h0.0" /><path d="M817.5 31h0.0" /><rect fill="rgb(0, 255, 0)" height="22" width="28.5" x="789" y="20"></rect><text x="803.25" y="35">|</text></g><path d="M817.5 31h10" /><path d="M827.5 31h10" /><g class="non-terminal ">
<path d="M837.5 31h0.0" /><path d="M908.5 31h0.0" /><rect fill="rgb(0, 255, 0)" height="22" width="71" x="837.5" y="20"></rect><text x="873" y="35">&apos;l&apos;)?)</text></g></g><path d="M908.5 31h10" /><path d="M 918.5 31 h 20 m -10 -10 v 20 m 10 -20 v 20"></path></g><style>/* <![CDATA[ */
	svg.railroad-diagram {
		background-color:hsl(30,20%,95%);
	}
	svg.railroad-diagram path {
		stroke-width:3;
		stroke:black;
		fill:rgba(0,0,0,0);
	}
	svg.railroad-diagram text {
		font:bold 14px monospace;
		text-anchor:middle;
	}
	svg.railroad-diagram text.label{
		text-anchor:start;
	}
	svg.railroad-diagram text.comment{
		font:italic 12px monospace;
	}
	svg.railroad-diagram rect{
		stroke-width:3;
		stroke:black;
		fill:hsl(120,100%,90%);
	}
	svg.railroad-diagram rect.group-box {
		stroke: gray;
		stroke-dasharray: 10 5;
		fill: none;
	}

/* ]]> */
</style></svg>