<svg class="railroad-diagram" height="62" viewBox="0 0 2979.0 62" width="2979.0" xmlns="http://www.w3.org/2000/svg" xmlns:xlink="http://www.w3.org/1999/xlink">
<g transform="translate(.5 .5)">
<g>
<path d="M20 21v20m10 -20v20m-10 -10h20" /></g><path d="M40 31h10" /><g>
<path d="M50 31h0.0" /><path d="M2929.0 31h0.0" /><g class="non-terminal ">
<path d="M50.0 31h0.0" /><path d="M129.5 31h0.0" /><rect fill="rgb(0, 255, 0)" height="22" width="79.5" x="50" y="20"></rect><text x="89.75" y="35">@((&apos;0x&apos;</text></g><path d="M129.5 31h10" /><path d="M139.5 31h10" /><g class="non-terminal ">
<path d="M149.5 31h0.0" /><path d="M178.0 31h0.0" /><rect fill="rgb(0, 255, 0)" height="22" width="28.5" x="149.5" y="20"></rect><text x="163.75" y="35">|</text></g><path d="M178.0 31h10" /><path d="M188.0 31h10" /><g class="non-terminal ">
<path d="M198.0 31h0.0" /><path d="M260.5 31h0.0" /><rect fill="rgb(0, 255, 0)" height="22" width="62.5" x="198" y="20"></rect><text x="229.25" y="35">&apos;0x&apos;)</text></g><path d="M260.5 31h10" /><path d="M270.5 31h10" /><g class="non-terminal ">
<path d="M280.5 31h0.0" /><path d="M453.5 31h0.0" /><rect fill="rgb(0, 255, 0)" height="22" width="173" x="280.5" y="20"></rect><text x="367" y="35">((@(/[a-fa-f0-9]+/</text></g><path d="M453.5 31h10" /><path d="M463.5 31h10" /><g class="non-terminal ">
<path d="M473.5 31h0.0" /><path d="M527.5 31h0.0" /><rect fill="rgb(0, 255, 0)" height="22" width="54" x="473.5" y="20"></rect><text x="500.5" y="35">(&apos;_&apos;</text></g><path d="M527.5 31h10" /><path d="M537.5 31h10" /><g class="non-terminal ">
<path d="M547.5 31h0.0" /><path d="M712.0 31h0.0" /><rect fill="rgb(0, 255, 0)" height="22" width="164.5" x="547.5" y="20"></rect><text x="629.75" y="35">/[a-fa-f0-9]+/)*)</text></g><path d="M712.0 31h10" /><path d="M722.0 31h10" /><g class="non-terminal ">
<path d="M732.0 31h0.0" /><path d="M794.5 31h0.0" /><rect fill="rgb(0, 255, 0)" height="22" width="62.5" x="732" y="20"></rect><text x="763.25" y="35">&apos;.&apos;?)</text></g><path d="M794.5 31h10" /><path d="M804.5 31h10" /><g class="non-terminal ">
<path d="M814.5 31h0.0" /><path d="M843.0 31h0.0" /><rect fill="rgb(0, 255, 0)" height="22" width="28.5" x="814.5" y="20"></rect><text x="828.75" y="35">|</text></g><path d="M843.0 31h10" /><path d="M853.0 31h10" /><g class="non-terminal ">
<path d="M863.0 31h0.0" /><path d="M1027.5 31h0.0" /><rect fill="rgb(0, 255, 0)" height="22" width="164.5" x="863" y="20"></rect><text x="945.25" y="35">(@(/[a-fa-f0-9]+/</text></g><path d="M1027.5 31h10" /><path d="M1037.5 31h10" /><g class="non-terminal ">
<path d="M1047.5 31h0.0" /><path d="M1101.5 31h0.0" /><rect fill="rgb(0, 255, 0)" height="22" width="54" x="1047.5" y="20"></rect><text x="1074.5" y="35">(&apos;_&apos;</text></g><path d="M1101.5 31h10" /><path d="M1111.5 31h10" /><g class="non-terminal ">
<path d="M1121.5 31h0.0" /><path d="M1294.5 31h0.0" /><rect fill="rgb(0, 255, 0)" height="22" width="173" x="1121.5" y="20"></rect><text x="1208" y="35">/[a-fa-f0-9]+/)*)?</text></g><path d="M1294.5 31h10" /><path d="M1304.5 31h10" /><g class="terminal ">
<path d="M1314.5 31h0.0" /><path d="M1343.0 31h0.0" /><rect fill="rgb(0, 255, 0)" height="22" width="28.5" x="1314.5" y="20"></rect><text x="1328.75" y="35">.</text></g><path d="M1343.0 31h10" /><path d="M1353.0 31h10" /><g class="non-terminal ">
<path d="M1363.0 31h0.0" /><path d="M1519.0 31h0.0" /><rect fill="rgb(0, 255, 0)" height="22" width="156" x="1363" y="20"></rect><text x="1441" y="35">@(/[a-fa-f0-9]+/</text></g><path d="M1519.0 31h10" /><path d="M1529.0 31h10" /><g class="non-terminal ">
<path d="M1539.0 31h0.0" /><path d="M1593.0 31h0.0" /><rect fill="rgb(0, 255, 0)" height="22" width="54" x="1539" y="20"></rect><text x="1566" y="35">(&apos;_&apos;</text></g><path d="M1593.0 31h10" /><path d="M1603.0 31h10" /><g class="non-terminal ">
<path d="M1613.0 31h0.0" /><path d="M1794.5 31h0.0" /><rect fill="rgb(0, 255, 0)" height="22" width="181.5" x="1613" y="20"></rect><text x="1703.75" y="35">/[a-fa-f0-9]+/)*)))</text></g><path d="M1794.5 31h10" /><path d="M1804.5 31h10" /><g class="non-terminal ">
<path d="M1814.5 31h0.0" /><path d="M1894.0 31h0.0" /><rect fill="rgb(0, 255, 0)" height="22" width="79.5" x="1814.5" y="20"></rect><text x="1854.25" y="35">(/[pp]/</text></g><path d="M1894.0 31h10" /><path d="M1904.0 31h10" /><g class="non-terminal ">
<path d="M1914.0 31h0.0" /><path d="M1968.0 31h0.0" /><rect fill="rgb(0, 255, 0)" height="22" width="54" x="1914" y="20"></rect><text x="1941" y="35">(&apos;-&apos;</text></g><path d="M1968.0 31h10" /><path d="M1978.0 31h10" /><g class="non-terminal ">
<path d="M1988.0 31h0.0" /><path d="M2016.5 31h0.0" /><rect fill="rgb(0, 255, 0)" height="22" width="28.5" x="1988" y="20"></rect><text x="2002.25" y="35">|</text></g><path d="M2016.5 31h10" /><path d="M2026.5 31h10" /><g class="non-terminal ">
<path d="M2036.5 31h0.0" /><path d="M2099.0 31h0.0" /><rect fill="rgb(0, 255, 0)" height="22" width="62.5" x="2036.5" y="20"></rect><text x="2067.75" y="35">&apos;+&apos;)?</text></g><path d="M2099.0 31h10" /><path d="M2109.0 31h10" /><g class="non-terminal ">
<path d="M2119.0 31h0.0" /><path d="M2181.5 31h0.0" /><rect fill="rgb(0, 255, 0)" height="22" width="62.5" x="2119" y="20"></rect><text x="2150.25" y="35">@(&apos;0&apos;</text></g><path d="M2181.5 31h10" /><path d="M2191.5 31h10" /><g class="non-terminal ">
<path d="M2201.5 31h0.0" /><path d="M2230.0 31h0.0" /><rect fill="rgb(0, 255, 0)" height="22" width="28.5" x="2201.5" y="20"></rect><text x="2215.75" y="35">|</text></g><path d="M2230.0 31h10" /><path d="M2240.0 31h10" /><g class="non-terminal ">
<path d="M2250.0 31h0.0" /><path d="M2338.0 31h0.0" /><rect fill="rgb(0, 255, 0)" height="22" width="88" x="2250" y="20"></rect><text x="2294" y="35">(/[1-9]/</text></g><path d="M2338.0 31h10" /><path d="M2348.0 31h10" /><g class="non-terminal ">
<path d="M2358.0 31h0.0" /><path d="M2420.5 31h0.0" /><rect fill="rgb(0, 255, 0)" height="22" width="62.5" x="2358" y="20"></rect><text x="2389.25" y="35">(&apos;_&apos;?</text></g><path d="M2420.5 31h10" /><path d="M2430.5 31h10" /><g class="non-terminal ">
<path d="M2440.5 31h0.0" /><path d="M2537.0 31h0.0" /><rect fill="rgb(0, 255, 0)" height="22" width="96.5" x="2440.5" y="20"></rect><text x="2488.75" y="35">(/[0-9]+/</text></g><path d="M2537.0 31h10" /><path d="M2547.0 31h10" /><g class="non-terminal ">
<path d="M2557.0 31h0.0" /><path d="M2619.5 31h0.0" /><rect fill="rgb(0, 255, 0)" height="22" width="62.5" x="2557" y="20"></rect><text x="2588.25" y="35">(/_+/</text></g><path d="M2619.5 31h10" /><path d="M2629.5 31h10" /><g class="non-terminal ">
<path d="M2639.5 31h0.0" /><path d="M2787.0 31h0.0" /><rect fill="rgb(0, 255, 0)" height="22" width="147.5" x="2639.5" y="20"></rect><text x="2713.25" y="35">/[0-9]+/)*))?))</text></g><path d="M2787.0 31h10" /><path d="M2797.0 31h10" /><g class="non-terminal ">
<path d="M2807.0 31h0.0" /><path d="M2929.0 31h0.0" /><rect fill="rgb(0, 255, 0)" height="22" width="122" x="2807" y="20"></rect><text x="2868" y="35">/[ffdd]/?)?)</text></g></g><path d="M2929.0 31h10" /><path d="M 2939.0 31 h 20 m -10 -10 v 20 m 10 -20 v 20"></path></g><style>/* <![CDATA[ */
	svg.railroad-diagram {
		background-color:hsl(30,20%,95%);
	}
	svg.railroad-diagram path {
		stroke-width:3;
		stroke:black;
		fill:rgba(0,0,0,0);
	}
	svg.railroad-diagram text {
		font:bold 14px monospace;
		text-anchor:middle;
	}
	svg.railroad-diagram text.label{
		text-anchor:start;
	}
	svg.railroad-diagram text.comment{
		font:italic 12px monospace;
	}
	svg.railroad-diagram rect{
		stroke-width:3;
		stroke:black;
		fill:hsl(120,100%,90%);
	}
	svg.railroad-diagram rect.group-box {
		stroke: gray;
		stroke-dasharray: 10 5;
		fill: none;
	}

/* ]]> */
</style></svg>