<svg class="railroad-diagram" height="62" viewBox="0 0 1233.0 62" width="1233.0" xmlns="http://www.w3.org/2000/svg" xmlns:xlink="http://www.w3.org/1999/xlink">
<g transform="translate(.5 .5)">
<g>
<path d="M20 21v20m10 -20v20m-10 -10h20" /></g><path d="M40 31h10" /><g>
<path d="M50 31h0.0" /><path d="M1183.0 31h0.0" /><g class="non-terminal ">
<path d="M50.0 31h0.0" /><path d="M121.0 31h0.0" /><rect fill="rgb(0, 255, 0)" height="22" width="71" x="50" y="20"></rect><text x="85.5" y="35">>(&apos;if&apos;</text></g><path d="M121.0 31h10" /><path d="M131.0 31h10" /><g class="non-terminal ">
<path d="M141.0 31h0.0" /><path d="M382.0 31h0.0" /><rect fill="rgb(0, 255, 0)" height="22" width="241" x="141" y="20"></rect><text x="261.5" y="35">(parenthesized_expression:</text></g><path d="M382.0 31h10" /><path d="M392.0 31h10" /><g class="non-terminal ">
<path d="M402.0 31h0.0" /><path d="M507.0 31h0.0" /><rect fill="rgb(0, 255, 0)" height="22" width="105" x="402" y="20"></rect><text x="454.5" y="35">condition)</text></g><path d="M507.0 31h10" /><path d="M517.0 31h10" /><g class="non-terminal ">
<path d="M527.0 31h0.0" /><path d="M640.5 31h0.0" /><rect fill="rgb(0, 255, 0)" height="22" width="113.5" x="527" y="20"></rect><text x="583.75" y="35">(statement:</text></g><path d="M640.5 31h10" /><path d="M650.5 31h10" /><g class="non-terminal ">
<path d="M660.5 31h0.0" /><path d="M782.5 31h0.0" /><rect fill="rgb(0, 255, 0)" height="22" width="122" x="660.5" y="20"></rect><text x="721.5" y="35">consequence)</text></g><path d="M782.5 31h10" /><path d="M792.5 31h10" /><g class="non-terminal ">
<path d="M802.5 31h0.0" /><path d="M882.0 31h0.0" /><rect fill="rgb(0, 255, 0)" height="22" width="79.5" x="802.5" y="20"></rect><text x="842.25" y="35">(&apos;else&apos;</text></g><path d="M882.0 31h10" /><path d="M892.0 31h10" /><g class="non-terminal ">
<path d="M902.0 31h0.0" /><path d="M1015.5 31h0.0" /><rect fill="rgb(0, 255, 0)" height="22" width="113.5" x="902" y="20"></rect><text x="958.75" y="35">(statement:</text></g><path d="M1015.5 31h10" /><path d="M1025.5 31h10" /><g class="non-terminal ">
<path d="M1035.5 31h0.0" /><path d="M1183.0 31h0.0" /><rect fill="rgb(0, 255, 0)" height="22" width="147.5" x="1035.5" y="20"></rect><text x="1109.25" y="35">alternative))?)</text></g></g><path d="M1183.0 31h10" /><path d="M 1193.0 31 h 20 m -10 -10 v 20 m 10 -20 v 20"></path></g><style>/* <![CDATA[ */
	svg.railroad-diagram {
		background-color:hsl(30,20%,95%);
	}
	svg.railroad-diagram path {
		stroke-width:3;
		stroke:black;
		fill:rgba(0,0,0,0);
	}
	svg.railroad-diagram text {
		font:bold 14px monospace;
		text-anchor:middle;
	}
	svg.railroad-diagram text.label{
		text-anchor:start;
	}
	svg.railroad-diagram text.comment{
		font:italic 12px monospace;
	}
	svg.railroad-diagram rect{
		stroke-width:3;
		stroke:black;
		fill:hsl(120,100%,90%);
	}
	svg.railroad-diagram rect.group-box {
		stroke: gray;
		stroke-dasharray: 10 5;
		fill: none;
	}

/* ]]> */
</style></svg>