<svg class="railroad-diagram" height="62" viewBox="0 0 1086.0 62" width="1086.0" xmlns="http://www.w3.org/2000/svg" xmlns:xlink="http://www.w3.org/1999/xlink">
<g transform="translate(.5 .5)">
<g>
<path d="M20 21v20m10 -20v20m-10 -10h20" /></g><path d="M40 31h10" /><g>
<path d="M50 31h0.0" /><path d="M1036.0 31h0.0" /><g class="terminal ">
<path d="M50.0 31h0.0" /><path d="M78.5 31h0.0" /><rect fill="rgb(0, 255, 0)" height="22" width="28.5" x="50" y="20"></rect><text x="64.25" y="35">(</text></g><path d="M78.5 31h10" /><path d="M88.5 31h10" /><g class="non-terminal ">
<path d="M98.5 31h0.0" /><path d="M220.5 31h0.0" /><rect fill="rgb(0, 255, 0)" height="22" width="122" x="98.5" y="20"></rect><text x="159.5" y="35">((identifier</text></g><path d="M220.5 31h10" /><path d="M230.5 31h10" /><g class="non-terminal ">
<path d="M240.5 31h0.0" /><path d="M269.0 31h0.0" /><rect fill="rgb(0, 255, 0)" height="22" width="28.5" x="240.5" y="20"></rect><text x="254.75" y="35">|</text></g><path d="M269.0 31h10" /><path d="M279.0 31h10" /><g class="non-terminal ">
<path d="M289.0 31h0.0" /><path d="M487.5 31h0.0" /><rect fill="rgb(0, 255, 0)" height="22" width="198.5" x="289" y="20"></rect><text x="388.25" y="35">_reserved_identifier)</text></g><path d="M487.5 31h10" /><path d="M497.5 31h10" /><g class="non-terminal ">
<path d="M507.5 31h0.0" /><path d="M561.5 31h0.0" /><rect fill="rgb(0, 255, 0)" height="22" width="54" x="507.5" y="20"></rect><text x="534.5" y="35">(&apos;,&apos;</text></g><path d="M561.5 31h10" /><path d="M571.5 31h10" /><g class="non-terminal ">
<path d="M581.5 31h0.0" /><path d="M695.0 31h0.0" /><rect fill="rgb(0, 255, 0)" height="22" width="113.5" x="581.5" y="20"></rect><text x="638.25" y="35">(identifier</text></g><path d="M695.0 31h10" /><path d="M705.0 31h10" /><g class="non-terminal ">
<path d="M715.0 31h0.0" /><path d="M743.5 31h0.0" /><rect fill="rgb(0, 255, 0)" height="22" width="28.5" x="715" y="20"></rect><text x="729.25" y="35">|</text></g><path d="M743.5 31h10" /><path d="M753.5 31h10" /><g class="non-terminal ">
<path d="M763.5 31h0.0" /><path d="M987.5 31h0.0" /><rect fill="rgb(0, 255, 0)" height="22" width="224" x="763.5" y="20"></rect><text x="875.5" y="35">_reserved_identifier))*)</text></g><path d="M987.5 31h10" /><path d="M997.5 31h10" /><g class="terminal ">
<path d="M1007.5 31h0.0" /><path d="M1036.0 31h0.0" /><rect fill="rgb(0, 255, 0)" height="22" width="28.5" x="1007.5" y="20"></rect><text x="1021.75" y="35">)</text></g></g><path d="M1036.0 31h10" /><path d="M 1046.0 31 h 20 m -10 -10 v 20 m 10 -20 v 20"></path></g><style>/* <![CDATA[ */
	svg.railroad-diagram {
		background-color:hsl(30,20%,95%);
	}
	svg.railroad-diagram path {
		stroke-width:3;
		stroke:black;
		fill:rgba(0,0,0,0);
	}
	svg.railroad-diagram text {
		font:bold 14px monospace;
		text-anchor:middle;
	}
	svg.railroad-diagram text.label{
		text-anchor:start;
	}
	svg.railroad-diagram text.comment{
		font:italic 12px monospace;
	}
	svg.railroad-diagram rect{
		stroke-width:3;
		stroke:black;
		fill:hsl(120,100%,90%);
	}
	svg.railroad-diagram rect.group-box {
		stroke: gray;
		stroke-dasharray: 10 5;
		fill: none;
	}

/* ]]> */
</style></svg>