<svg class="railroad-diagram" height="62" viewBox="0 0 855.5 62" width="855.5" xmlns="http://www.w3.org/2000/svg" xmlns:xlink="http://www.w3.org/1999/xlink">
<g transform="translate(.5 .5)">
<g>
<path d="M20 21v20m10 -20v20m-10 -10h20" /></g><path d="M40 31h10" /><g>
<path d="M50 31h0.0" /><path d="M805.5 31h0.0" /><g class="non-terminal ">
<path d="M50.0 31h0.0" /><path d="M78.5 31h0.0" /><rect fill="rgb(0, 255, 0)" height="22" width="28.5" x="50" y="20"></rect><text x="64.25" y="35">{</text></g><path d="M78.5 31h10" /><path d="M88.5 31h10" /><g class="non-terminal ">
<path d="M98.5 31h0.0" /><path d="M161.0 31h0.0" /><rect fill="rgb(0, 255, 0)" height="22" width="62.5" x="98.5" y="20"></rect><text x="129.75" y="35">_name</text></g><path d="M161.0 31h10" /><path d="M171.0 31h10" /><g class="non-terminal ">
<path d="M181.0 31h0.0" /><path d="M303.0 31h0.0" /><rect fill="rgb(0, 255, 0)" height="22" width="122" x="181" y="20"></rect><text x="242" y="35">_simple_type</text></g><path d="M303.0 31h10" /><path d="M313.0 31h10" /><g class="non-terminal ">
<path d="M323.0 31h0.0" /><path d="M538.5 31h0.0" /><rect fill="rgb(0, 255, 0)" height="22" width="215.5" x="323" y="20"></rect><text x="430.75" y="35">_class_body_declaration</text></g><path d="M538.5 31h10" /><path d="M548.5 31h10" /><g class="non-terminal ">
<path d="M558.5 31h0.0" /><path d="M757.0 31h0.0" /><rect fill="rgb(0, 255, 0)" height="22" width="198.5" x="558.5" y="20"></rect><text x="657.75" y="35">_variable_initializer</text></g><path d="M757.0 31h10" /><path d="M767.0 31h10" /><g class="non-terminal ">
<path d="M777.0 31h0.0" /><path d="M805.5 31h0.0" /><rect fill="rgb(0, 255, 0)" height="22" width="28.5" x="777" y="20"></rect><text x="791.25" y="35">}</text></g></g><path d="M805.5 31h10" /><path d="M 815.5 31 h 20 m -10 -10 v 20 m 10 -20 v 20"></path></g><style>/* <![CDATA[ */
	svg.railroad-diagram {
		background-color:hsl(30,20%,95%);
	}
	svg.railroad-diagram path {
		stroke-width:3;
		stroke:black;
		fill:rgba(0,0,0,0);
	}
	svg.railroad-diagram text {
		font:bold 14px monospace;
		text-anchor:middle;
	}
	svg.railroad-diagram text.label{
		text-anchor:start;
	}
	svg.railroad-diagram text.comment{
		font:italic 12px monospace;
	}
	svg.railroad-diagram rect{
		stroke-width:3;
		stroke:black;
		fill:hsl(120,100%,90%);
	}
	svg.railroad-diagram rect.group-box {
		stroke: gray;
		stroke-dasharray: 10 5;
		fill: none;
	}

/* ]]> */
</style></svg>