<svg class="railroad-diagram" height="62" viewBox="0 0 1645.5 62" width="1645.5" xmlns="http://www.w3.org/2000/svg" xmlns:xlink="http://www.w3.org/1999/xlink">
<g transform="translate(.5 .5)">
<g>
<path d="M20 21v20m10 -20v20m-10 -10h20" /></g><path d="M40 31h10" /><g>
<path d="M50 31h0.0" /><path d="M1595.5 31h0.0" /><g class="non-terminal ">
<path d="M50.0 31h0.0" /><path d="M206.0 31h0.0" /><rect fill="rgb(0, 255, 0)" height="22" width="156" x="50" y="20"></rect><text x="128" y="35">~10((expression:</text></g><path d="M206.0 31h10" /><path d="M216.0 31h10" /><g class="non-terminal ">
<path d="M226.0 31h0.0" /><path d="M288.5 31h0.0" /><rect fill="rgb(0, 255, 0)" height="22" width="62.5" x="226" y="20"></rect><text x="257.25" y="35">left)</text></g><path d="M288.5 31h10" /><path d="M298.5 31h10" /><g class="terminal ">
<path d="M308.5 31h0.0" /><path d="M413.5 31h0.0" /><rect fill="rgb(0, 255, 0)" height="22" width="105" x="308.5" y="20"></rect><text x="361" y="35">instanceof</text></g><path d="M413.5 31h10" /><path d="M423.5 31h10" /><g class="non-terminal ">
<path d="M433.5 31h0.0" /><path d="M521.5 31h0.0" /><rect fill="rgb(0, 255, 0)" height="22" width="88" x="433.5" y="20"></rect><text x="477.5" y="35">&apos;final&apos;?</text></g><path d="M521.5 31h10" /><path d="M531.5 31h10" /><g class="non-terminal ">
<path d="M541.5 31h0.0" /><path d="M638.0 31h0.0" /><rect fill="rgb(0, 255, 0)" height="22" width="96.5" x="541.5" y="20"></rect><text x="589.75" y="35">(((_type:</text></g><path d="M638.0 31h10" /><path d="M648.0 31h10" /><g class="non-terminal ">
<path d="M658.0 31h0.0" /><path d="M729.0 31h0.0" /><rect fill="rgb(0, 255, 0)" height="22" width="71" x="658" y="20"></rect><text x="693.5" y="35">right)</text></g><path d="M729.0 31h10" /><path d="M739.0 31h10" /><g class="non-terminal ">
<path d="M749.0 31h0.0" /><path d="M871.0 31h0.0" /><rect fill="rgb(0, 255, 0)" height="22" width="122" x="749" y="20"></rect><text x="810" y="35">((identifier</text></g><path d="M871.0 31h10" /><path d="M881.0 31h10" /><g class="non-terminal ">
<path d="M891.0 31h0.0" /><path d="M919.5 31h0.0" /><rect fill="rgb(0, 255, 0)" height="22" width="28.5" x="891" y="20"></rect><text x="905.25" y="35">|</text></g><path d="M919.5 31h10" /><path d="M929.5 31h10" /><g class="non-terminal ">
<path d="M939.5 31h0.0" /><path d="M1146.5 31h0.0" /><rect fill="rgb(0, 255, 0)" height="22" width="207" x="939.5" y="20"></rect><text x="1043" y="35">_reserved_identifier):</text></g><path d="M1146.5 31h10" /><path d="M1156.5 31h10" /><g class="non-terminal ">
<path d="M1166.5 31h0.0" /><path d="M1246.0 31h0.0" /><rect fill="rgb(0, 255, 0)" height="22" width="79.5" x="1166.5" y="20"></rect><text x="1206.25" y="35">name)?)</text></g><path d="M1246.0 31h10" /><path d="M1256.0 31h10" /><g class="non-terminal ">
<path d="M1266.0 31h0.0" /><path d="M1294.5 31h0.0" /><rect fill="rgb(0, 255, 0)" height="22" width="28.5" x="1266" y="20"></rect><text x="1280.25" y="35">|</text></g><path d="M1294.5 31h10" /><path d="M1304.5 31h10" /><g class="non-terminal ">
<path d="M1314.5 31h0.0" /><path d="M1470.5 31h0.0" /><rect fill="rgb(0, 255, 0)" height="22" width="156" x="1314.5" y="20"></rect><text x="1392.5" y="35">(record_pattern:</text></g><path d="M1470.5 31h10" /><path d="M1480.5 31h10" /><g class="non-terminal ">
<path d="M1490.5 31h0.0" /><path d="M1595.5 31h0.0" /><rect fill="rgb(0, 255, 0)" height="22" width="105" x="1490.5" y="20"></rect><text x="1543" y="35">pattern)))</text></g></g><path d="M1595.5 31h10" /><path d="M 1605.5 31 h 20 m -10 -10 v 20 m 10 -20 v 20"></path></g><style>/* <![CDATA[ */
	svg.railroad-diagram {
		background-color:hsl(30,20%,95%);
	}
	svg.railroad-diagram path {
		stroke-width:3;
		stroke:black;
		fill:rgba(0,0,0,0);
	}
	svg.railroad-diagram text {
		font:bold 14px monospace;
		text-anchor:middle;
	}
	svg.railroad-diagram text.label{
		text-anchor:start;
	}
	svg.railroad-diagram text.comment{
		font:italic 12px monospace;
	}
	svg.railroad-diagram rect{
		stroke-width:3;
		stroke:black;
		fill:hsl(120,100%,90%);
	}
	svg.railroad-diagram rect.group-box {
		stroke: gray;
		stroke-dasharray: 10 5;
		fill: none;
	}

/* ]]> */
</style></svg>