<svg class="railroad-diagram" height="62" viewBox="0 0 1608.0 62" width="1608.0" xmlns="http://www.w3.org/2000/svg" xmlns:xlink="http://www.w3.org/1999/xlink">
<g transform="translate(.5 .5)">
<g>
<path d="M20 21v20m10 -20v20m-10 -10h20" /></g><path d="M40 31h10" /><g>
<path d="M50 31h0.0" /><path d="M1558.0 31h0.0" /><g class="non-terminal ">
<path d="M50.0 31h0.0" /><path d="M155.0 31h0.0" /><rect fill="rgb(0, 255, 0)" height="22" width="105" x="50" y="20"></rect><text x="102.5" y="35">modifiers?</text></g><path d="M155.0 31h10" /><path d="M165.0 31h10" /><g class="terminal ">
<path d="M175.0 31h0.0" /><path d="M271.5 31h0.0" /><rect fill="rgb(0, 255, 0)" height="22" width="96.5" x="175" y="20"></rect><text x="223.25" y="35">interface</text></g><path d="M271.5 31h10" /><path d="M281.5 31h10" /><g class="non-terminal ">
<path d="M291.5 31h0.0" /><path d="M413.5 31h0.0" /><rect fill="rgb(0, 255, 0)" height="22" width="122" x="291.5" y="20"></rect><text x="352.5" y="35">(identifier:</text></g><path d="M413.5 31h10" /><path d="M423.5 31h10" /><g class="non-terminal ">
<path d="M433.5 31h0.0" /><path d="M496.0 31h0.0" /><rect fill="rgb(0, 255, 0)" height="22" width="62.5" x="433.5" y="20"></rect><text x="464.75" y="35">name)</text></g><path d="M496.0 31h10" /><path d="M506.0 31h10" /><g class="non-terminal ">
<path d="M516.0 31h0.0" /><path d="M689.0 31h0.0" /><rect fill="rgb(0, 255, 0)" height="22" width="173" x="516" y="20"></rect><text x="602.5" y="35">(type_parameters?:</text></g><path d="M689.0 31h10" /><path d="M699.0 31h10" /><g class="non-terminal ">
<path d="M709.0 31h0.0" /><path d="M865.0 31h0.0" /><rect fill="rgb(0, 255, 0)" height="22" width="156" x="709" y="20"></rect><text x="787" y="35">type_parameters)</text></g><path d="M865.0 31h10" /><path d="M875.0 31h10" /><g class="non-terminal ">
<path d="M885.0 31h0.0" /><path d="M1066.5 31h0.0" /><rect fill="rgb(0, 255, 0)" height="22" width="181.5" x="885" y="20"></rect><text x="975.75" y="35">extends_interfaces?</text></g><path d="M1066.5 31h10" /><path d="M1076.5 31h10" /><g class="non-terminal ">
<path d="M1086.5 31h0.0" /><path d="M1183.0 31h0.0" /><rect fill="rgb(0, 255, 0)" height="22" width="96.5" x="1086.5" y="20"></rect><text x="1134.75" y="35">(permits:</text></g><path d="M1183.0 31h10" /><path d="M1193.0 31h10" /><g class="non-terminal ">
<path d="M1203.0 31h0.0" /><path d="M1299.5 31h0.0" /><rect fill="rgb(0, 255, 0)" height="22" width="96.5" x="1203" y="20"></rect><text x="1251.25" y="35">permits)?</text></g><path d="M1299.5 31h10" /><path d="M1309.5 31h10" /><g class="non-terminal ">
<path d="M1319.5 31h0.0" /><path d="M1475.5 31h0.0" /><rect fill="rgb(0, 255, 0)" height="22" width="156" x="1319.5" y="20"></rect><text x="1397.5" y="35">(interface_body:</text></g><path d="M1475.5 31h10" /><path d="M1485.5 31h10" /><g class="non-terminal ">
<path d="M1495.5 31h0.0" /><path d="M1558.0 31h0.0" /><rect fill="rgb(0, 255, 0)" height="22" width="62.5" x="1495.5" y="20"></rect><text x="1526.75" y="35">body)</text></g></g><path d="M1558.0 31h10" /><path d="M 1568.0 31 h 20 m -10 -10 v 20 m 10 -20 v 20"></path></g><style>/* <![CDATA[ */
	svg.railroad-diagram {
		background-color:hsl(30,20%,95%);
	}
	svg.railroad-diagram path {
		stroke-width:3;
		stroke:black;
		fill:rgba(0,0,0,0);
	}
	svg.railroad-diagram text {
		font:bold 14px monospace;
		text-anchor:middle;
	}
	svg.railroad-diagram text.label{
		text-anchor:start;
	}
	svg.railroad-diagram text.comment{
		font:italic 12px monospace;
	}
	svg.railroad-diagram rect{
		stroke-width:3;
		stroke:black;
		fill:hsl(120,100%,90%);
	}
	svg.railroad-diagram rect.group-box {
		stroke: gray;
		stroke-dasharray: 10 5;
		fill: none;
	}

/* ]]> */
</style></svg>