<svg class="railroad-diagram" height="62" viewBox="0 0 2052.0 62" width="2052.0" xmlns="http://www.w3.org/2000/svg" xmlns:xlink="http://www.w3.org/1999/xlink">
<g transform="translate(.5 .5)">
<g>
<path d="M20 21v20m10 -20v20m-10 -10h20" /></g><path d="M40 31h10" /><g>
<path d="M50 31h0.0" /><path d="M2002.0 31h0.0" /><g class="terminal ">
<path d="M50.0 31h0.0" /><path d="M78.5 31h0.0" /><rect fill="rgb(0, 255, 0)" height="22" width="28.5" x="50" y="20"></rect><text x="64.25" y="35">{</text></g><path d="M78.5 31h10" /><path d="M88.5 31h10" /><g class="non-terminal ">
<path d="M98.5 31h0.0" /><path d="M297.0 31h0.0" /><rect fill="rgb(0, 255, 0)" height="22" width="198.5" x="98.5" y="20"></rect><text x="197.75" y="35">(constant_declaration</text></g><path d="M297.0 31h10" /><path d="M307.0 31h10" /><g class="non-terminal ">
<path d="M317.0 31h0.0" /><path d="M345.5 31h0.0" /><rect fill="rgb(0, 255, 0)" height="22" width="28.5" x="317" y="20"></rect><text x="331.25" y="35">|</text></g><path d="M345.5 31h10" /><path d="M355.5 31h10" /><g class="non-terminal ">
<path d="M365.5 31h0.0" /><path d="M521.5 31h0.0" /><rect fill="rgb(0, 255, 0)" height="22" width="156" x="365.5" y="20"></rect><text x="443.5" y="35">enum_declaration</text></g><path d="M521.5 31h10" /><path d="M531.5 31h10" /><g class="non-terminal ">
<path d="M541.5 31h0.0" /><path d="M570.0 31h0.0" /><rect fill="rgb(0, 255, 0)" height="22" width="28.5" x="541.5" y="20"></rect><text x="555.75" y="35">|</text></g><path d="M570.0 31h10" /><path d="M580.0 31h10" /><g class="non-terminal ">
<path d="M590.0 31h0.0" /><path d="M763.0 31h0.0" /><rect fill="rgb(0, 255, 0)" height="22" width="173" x="590" y="20"></rect><text x="676.5" y="35">method_declaration</text></g><path d="M763.0 31h10" /><path d="M773.0 31h10" /><g class="non-terminal ">
<path d="M783.0 31h0.0" /><path d="M811.5 31h0.0" /><rect fill="rgb(0, 255, 0)" height="22" width="28.5" x="783" y="20"></rect><text x="797.25" y="35">|</text></g><path d="M811.5 31h10" /><path d="M821.5 31h10" /><g class="non-terminal ">
<path d="M831.5 31h0.0" /><path d="M996.0 31h0.0" /><rect fill="rgb(0, 255, 0)" height="22" width="164.5" x="831.5" y="20"></rect><text x="913.75" y="35">class_declaration</text></g><path d="M996.0 31h10" /><path d="M1006.0 31h10" /><g class="non-terminal ">
<path d="M1016.0 31h0.0" /><path d="M1044.5 31h0.0" /><rect fill="rgb(0, 255, 0)" height="22" width="28.5" x="1016" y="20"></rect><text x="1030.25" y="35">|</text></g><path d="M1044.5 31h10" /><path d="M1054.5 31h10" /><g class="non-terminal ">
<path d="M1064.5 31h0.0" /><path d="M1263.0 31h0.0" /><rect fill="rgb(0, 255, 0)" height="22" width="198.5" x="1064.5" y="20"></rect><text x="1163.75" y="35">interface_declaration</text></g><path d="M1263.0 31h10" /><path d="M1273.0 31h10" /><g class="non-terminal ">
<path d="M1283.0 31h0.0" /><path d="M1311.5 31h0.0" /><rect fill="rgb(0, 255, 0)" height="22" width="28.5" x="1283" y="20"></rect><text x="1297.25" y="35">|</text></g><path d="M1311.5 31h10" /><path d="M1321.5 31h10" /><g class="non-terminal ">
<path d="M1331.5 31h0.0" /><path d="M1504.5 31h0.0" /><rect fill="rgb(0, 255, 0)" height="22" width="173" x="1331.5" y="20"></rect><text x="1418" y="35">record_declaration</text></g><path d="M1504.5 31h10" /><path d="M1514.5 31h10" /><g class="non-terminal ">
<path d="M1524.5 31h0.0" /><path d="M1553.0 31h0.0" /><rect fill="rgb(0, 255, 0)" height="22" width="28.5" x="1524.5" y="20"></rect><text x="1538.75" y="35">|</text></g><path d="M1553.0 31h10" /><path d="M1563.0 31h10" /><g class="non-terminal ">
<path d="M1573.0 31h0.0" /><path d="M1822.5 31h0.0" /><rect fill="rgb(0, 255, 0)" height="22" width="249.5" x="1573" y="20"></rect><text x="1697.75" y="35">annotation_type_declaration</text></g><path d="M1822.5 31h10" /><path d="M1832.5 31h10" /><g class="non-terminal ">
<path d="M1842.5 31h0.0" /><path d="M1871.0 31h0.0" /><rect fill="rgb(0, 255, 0)" height="22" width="28.5" x="1842.5" y="20"></rect><text x="1856.75" y="35">|</text></g><path d="M1871.0 31h10" /><path d="M1881.0 31h10" /><g class="non-terminal ">
<path d="M1891.0 31h0.0" /><path d="M1953.5 31h0.0" /><rect fill="rgb(0, 255, 0)" height="22" width="62.5" x="1891" y="20"></rect><text x="1922.25" y="35">&apos;;&apos;)*</text></g><path d="M1953.5 31h10" /><path d="M1963.5 31h10" /><g class="terminal ">
<path d="M1973.5 31h0.0" /><path d="M2002.0 31h0.0" /><rect fill="rgb(0, 255, 0)" height="22" width="28.5" x="1973.5" y="20"></rect><text x="1987.75" y="35">}</text></g></g><path d="M2002.0 31h10" /><path d="M 2012.0 31 h 20 m -10 -10 v 20 m 10 -20 v 20"></path></g><style>/* <![CDATA[ */
	svg.railroad-diagram {
		background-color:hsl(30,20%,95%);
	}
	svg.railroad-diagram path {
		stroke-width:3;
		stroke:black;
		fill:rgba(0,0,0,0);
	}
	svg.railroad-diagram text {
		font:bold 14px monospace;
		text-anchor:middle;
	}
	svg.railroad-diagram text.label{
		text-anchor:start;
	}
	svg.railroad-diagram text.comment{
		font:italic 12px monospace;
	}
	svg.railroad-diagram rect{
		stroke-width:3;
		stroke:black;
		fill:hsl(120,100%,90%);
	}
	svg.railroad-diagram rect.group-box {
		stroke: gray;
		stroke-dasharray: 10 5;
		fill: none;
	}

/* ]]> */
</style></svg>