<svg class="railroad-diagram" height="62" viewBox="0 0 644.0 62" width="644.0" xmlns="http://www.w3.org/2000/svg" xmlns:xlink="http://www.w3.org/1999/xlink">
<g transform="translate(.5 .5)">
<g>
<path d="M20 21v20m10 -20v20m-10 -10h20" /></g><path d="M40 31h10" /><g>
<path d="M50 31h0.0" /><path d="M594.0 31h0.0" /><g class="terminal ">
<path d="M50.0 31h0.0" /><path d="M104.0 31h0.0" /><rect fill="rgb(0, 255, 0)" height="22" width="54" x="50" y="20"></rect><text x="77" y="35">byte</text></g><path d="M104.0 31h10" /><path d="M114.0 31h10" /><g class="non-terminal ">
<path d="M124.0 31h0.0" /><path d="M152.5 31h0.0" /><rect fill="rgb(0, 255, 0)" height="22" width="28.5" x="124" y="20"></rect><text x="138.25" y="35">|</text></g><path d="M152.5 31h10" /><path d="M162.5 31h10" /><g class="terminal ">
<path d="M172.5 31h0.0" /><path d="M235.0 31h0.0" /><rect fill="rgb(0, 255, 0)" height="22" width="62.5" x="172.5" y="20"></rect><text x="203.75" y="35">short</text></g><path d="M235.0 31h10" /><path d="M245.0 31h10" /><g class="non-terminal ">
<path d="M255.0 31h0.0" /><path d="M283.5 31h0.0" /><rect fill="rgb(0, 255, 0)" height="22" width="28.5" x="255" y="20"></rect><text x="269.25" y="35">|</text></g><path d="M283.5 31h10" /><path d="M293.5 31h10" /><g class="terminal ">
<path d="M303.5 31h0.0" /><path d="M349.0 31h0.0" /><rect fill="rgb(0, 255, 0)" height="22" width="45.5" x="303.5" y="20"></rect><text x="326.25" y="35">int</text></g><path d="M349.0 31h10" /><path d="M359.0 31h10" /><g class="non-terminal ">
<path d="M369.0 31h0.0" /><path d="M397.5 31h0.0" /><rect fill="rgb(0, 255, 0)" height="22" width="28.5" x="369" y="20"></rect><text x="383.25" y="35">|</text></g><path d="M397.5 31h10" /><path d="M407.5 31h10" /><g class="terminal ">
<path d="M417.5 31h0.0" /><path d="M471.5 31h0.0" /><rect fill="rgb(0, 255, 0)" height="22" width="54" x="417.5" y="20"></rect><text x="444.5" y="35">long</text></g><path d="M471.5 31h10" /><path d="M481.5 31h10" /><g class="non-terminal ">
<path d="M491.5 31h0.0" /><path d="M520.0 31h0.0" /><rect fill="rgb(0, 255, 0)" height="22" width="28.5" x="491.5" y="20"></rect><text x="505.75" y="35">|</text></g><path d="M520.0 31h10" /><path d="M530.0 31h10" /><g class="terminal ">
<path d="M540.0 31h0.0" /><path d="M594.0 31h0.0" /><rect fill="rgb(0, 255, 0)" height="22" width="54" x="540" y="20"></rect><text x="567" y="35">char</text></g></g><path d="M594.0 31h10" /><path d="M 604.0 31 h 20 m -10 -10 v 20 m 10 -20 v 20"></path></g><style>/* <![CDATA[ */
	svg.railroad-diagram {
		background-color:hsl(30,20%,95%);
	}
	svg.railroad-diagram path {
		stroke-width:3;
		stroke:black;
		fill:rgba(0,0,0,0);
	}
	svg.railroad-diagram text {
		font:bold 14px monospace;
		text-anchor:middle;
	}
	svg.railroad-diagram text.label{
		text-anchor:start;
	}
	svg.railroad-diagram text.comment{
		font:italic 12px monospace;
	}
	svg.railroad-diagram rect{
		stroke-width:3;
		stroke:black;
		fill:hsl(120,100%,90%);
	}
	svg.railroad-diagram rect.group-box {
		stroke: gray;
		stroke-dasharray: 10 5;
		fill: none;
	}

/* ]]> */
</style></svg>