<svg class="railroad-diagram" height="62" viewBox="0 0 1024.0 62" width="1024.0" xmlns="http://www.w3.org/2000/svg" xmlns:xlink="http://www.w3.org/1999/xlink">
<g transform="translate(.5 .5)">
<g>
<path d="M20 21v20m10 -20v20m-10 -10h20" /></g><path d="M40 31h10" /><g>
<path d="M50 31h0.0" /><path d="M974.0 31h0.0" /><g class="terminal ">
<path d="M50.0 31h0.0" /><path d="M112.5 31h0.0" /><rect fill="rgb(0, 255, 0)" height="22" width="62.5" x="50" y="20"></rect><text x="81.25" y="35">opens</text></g><path d="M112.5 31h10" /><path d="M122.5 31h10" /><g class="non-terminal ">
<path d="M132.5 31h0.0" /><path d="M212.0 31h0.0" /><rect fill="rgb(0, 255, 0)" height="22" width="79.5" x="132.5" y="20"></rect><text x="172.25" y="35">(_name:</text></g><path d="M212.0 31h10" /><path d="M222.0 31h10" /><g class="non-terminal ">
<path d="M232.0 31h0.0" /><path d="M320.0 31h0.0" /><rect fill="rgb(0, 255, 0)" height="22" width="88" x="232" y="20"></rect><text x="276" y="35">package)</text></g><path d="M320.0 31h10" /><path d="M330.0 31h10" /><g class="non-terminal ">
<path d="M340.0 31h0.0" /><path d="M402.5 31h0.0" /><rect fill="rgb(0, 255, 0)" height="22" width="62.5" x="340" y="20"></rect><text x="371.25" y="35">(&apos;to&apos;</text></g><path d="M402.5 31h10" /><path d="M412.5 31h10" /><g class="non-terminal ">
<path d="M422.5 31h0.0" /><path d="M502.0 31h0.0" /><rect fill="rgb(0, 255, 0)" height="22" width="79.5" x="422.5" y="20"></rect><text x="462.25" y="35">(_name:</text></g><path d="M502.0 31h10" /><path d="M512.0 31h10" /><g class="non-terminal ">
<path d="M522.0 31h0.0" /><path d="M610.0 31h0.0" /><rect fill="rgb(0, 255, 0)" height="22" width="88" x="522" y="20"></rect><text x="566" y="35">modules)</text></g><path d="M610.0 31h10" /><path d="M620.0 31h10" /><g class="non-terminal ">
<path d="M630.0 31h0.0" /><path d="M684.0 31h0.0" /><rect fill="rgb(0, 255, 0)" height="22" width="54" x="630" y="20"></rect><text x="657" y="35">(&apos;,&apos;</text></g><path d="M684.0 31h10" /><path d="M694.0 31h10" /><g class="non-terminal ">
<path d="M704.0 31h0.0" /><path d="M783.5 31h0.0" /><rect fill="rgb(0, 255, 0)" height="22" width="79.5" x="704" y="20"></rect><text x="743.75" y="35">(_name:</text></g><path d="M783.5 31h10" /><path d="M793.5 31h10" /><g class="non-terminal ">
<path d="M803.5 31h0.0" /><path d="M925.5 31h0.0" /><rect fill="rgb(0, 255, 0)" height="22" width="122" x="803.5" y="20"></rect><text x="864.5" y="35">modules))*)?</text></g><path d="M925.5 31h10" /><path d="M935.5 31h10" /><g class="terminal ">
<path d="M945.5 31h0.0" /><path d="M974.0 31h0.0" /><rect fill="rgb(0, 255, 0)" height="22" width="28.5" x="945.5" y="20"></rect><text x="959.75" y="35">;</text></g></g><path d="M974.0 31h10" /><path d="M 984.0 31 h 20 m -10 -10 v 20 m 10 -20 v 20"></path></g><style>/* <![CDATA[ */
	svg.railroad-diagram {
		background-color:hsl(30,20%,95%);
	}
	svg.railroad-diagram path {
		stroke-width:3;
		stroke:black;
		fill:rgba(0,0,0,0);
	}
	svg.railroad-diagram text {
		font:bold 14px monospace;
		text-anchor:middle;
	}
	svg.railroad-diagram text.label{
		text-anchor:start;
	}
	svg.railroad-diagram text.comment{
		font:italic 12px monospace;
	}
	svg.railroad-diagram rect{
		stroke-width:3;
		stroke:black;
		fill:hsl(120,100%,90%);
	}
	svg.railroad-diagram rect.group-box {
		stroke: gray;
		stroke-dasharray: 10 5;
		fill: none;
	}

/* ]]> */
</style></svg>