<svg class="railroad-diagram" height="62" viewBox="0 0 2933.0 62" width="2933.0" xmlns="http://www.w3.org/2000/svg" xmlns:xlink="http://www.w3.org/1999/xlink">
<g transform="translate(.5 .5)">
<g>
<path d="M20 21v20m10 -20v20m-10 -10h20" /></g><path d="M40 31h10" /><g>
<path d="M50 31h0.0" /><path d="M2883.0 31h0.0" /><g class="non-terminal ">
<path d="M50.0 31h0.0" /><path d="M138.0 31h0.0" /><rect fill="rgb(0, 255, 0)" height="22" width="88" x="50" y="20"></rect><text x="94" y="35">_literal</text></g><path d="M138.0 31h10" /><path d="M148.0 31h10" /><g class="non-terminal ">
<path d="M158.0 31h0.0" /><path d="M186.5 31h0.0" /><rect fill="rgb(0, 255, 0)" height="22" width="28.5" x="158" y="20"></rect><text x="172.25" y="35">|</text></g><path d="M186.5 31h10" /><path d="M196.5 31h10" /><g class="non-terminal ">
<path d="M206.5 31h0.0" /><path d="M337.0 31h0.0" /><rect fill="rgb(0, 255, 0)" height="22" width="130.5" x="206.5" y="20"></rect><text x="271.75" y="35">class_literal</text></g><path d="M337.0 31h10" /><path d="M347.0 31h10" /><g class="non-terminal ">
<path d="M357.0 31h0.0" /><path d="M385.5 31h0.0" /><rect fill="rgb(0, 255, 0)" height="22" width="28.5" x="357" y="20"></rect><text x="371.25" y="35">|</text></g><path d="M385.5 31h10" /><path d="M395.5 31h10" /><g class="non-terminal ">
<path d="M405.5 31h0.0" /><path d="M459.5 31h0.0" /><rect fill="rgb(0, 255, 0)" height="22" width="54" x="405.5" y="20"></rect><text x="432.5" y="35">this</text></g><path d="M459.5 31h10" /><path d="M469.5 31h10" /><g class="non-terminal ">
<path d="M479.5 31h0.0" /><path d="M508.0 31h0.0" /><rect fill="rgb(0, 255, 0)" height="22" width="28.5" x="479.5" y="20"></rect><text x="493.75" y="35">|</text></g><path d="M508.0 31h10" /><path d="M518.0 31h10" /><g class="non-terminal ">
<path d="M528.0 31h0.0" /><path d="M633.0 31h0.0" /><rect fill="rgb(0, 255, 0)" height="22" width="105" x="528" y="20"></rect><text x="580.5" y="35">identifier</text></g><path d="M633.0 31h10" /><path d="M643.0 31h10" /><g class="non-terminal ">
<path d="M653.0 31h0.0" /><path d="M681.5 31h0.0" /><rect fill="rgb(0, 255, 0)" height="22" width="28.5" x="653" y="20"></rect><text x="667.25" y="35">|</text></g><path d="M681.5 31h10" /><path d="M691.5 31h10" /><g class="non-terminal ">
<path d="M701.5 31h0.0" /><path d="M891.5 31h0.0" /><rect fill="rgb(0, 255, 0)" height="22" width="190" x="701.5" y="20"></rect><text x="796.5" y="35">_reserved_identifier</text></g><path d="M891.5 31h10" /><path d="M901.5 31h10" /><g class="non-terminal ">
<path d="M911.5 31h0.0" /><path d="M940.0 31h0.0" /><rect fill="rgb(0, 255, 0)" height="22" width="28.5" x="911.5" y="20"></rect><text x="925.75" y="35">|</text></g><path d="M940.0 31h10" /><path d="M950.0 31h10" /><g class="non-terminal ">
<path d="M960.0 31h0.0" /><path d="M1184.0 31h0.0" /><rect fill="rgb(0, 255, 0)" height="22" width="224" x="960" y="20"></rect><text x="1072" y="35">parenthesized_expression</text></g><path d="M1184.0 31h10" /><path d="M1194.0 31h10" /><g class="non-terminal ">
<path d="M1204.0 31h0.0" /><path d="M1232.5 31h0.0" /><rect fill="rgb(0, 255, 0)" height="22" width="28.5" x="1204" y="20"></rect><text x="1218.25" y="35">|</text></g><path d="M1232.5 31h10" /><path d="M1242.5 31h10" /><g class="non-terminal ">
<path d="M1252.5 31h0.0" /><path d="M1493.5 31h0.0" /><rect fill="rgb(0, 255, 0)" height="22" width="241" x="1252.5" y="20"></rect><text x="1373" y="35">object_creation_expression</text></g><path d="M1493.5 31h10" /><path d="M1503.5 31h10" /><g class="non-terminal ">
<path d="M1513.5 31h0.0" /><path d="M1542.0 31h0.0" /><rect fill="rgb(0, 255, 0)" height="22" width="28.5" x="1513.5" y="20"></rect><text x="1527.75" y="35">|</text></g><path d="M1542.0 31h10" /><path d="M1552.0 31h10" /><g class="non-terminal ">
<path d="M1562.0 31h0.0" /><path d="M1684.0 31h0.0" /><rect fill="rgb(0, 255, 0)" height="22" width="122" x="1562" y="20"></rect><text x="1623" y="35">field_access</text></g><path d="M1684.0 31h10" /><path d="M1694.0 31h10" /><g class="non-terminal ">
<path d="M1704.0 31h0.0" /><path d="M1732.5 31h0.0" /><rect fill="rgb(0, 255, 0)" height="22" width="28.5" x="1704" y="20"></rect><text x="1718.25" y="35">|</text></g><path d="M1732.5 31h10" /><path d="M1742.5 31h10" /><g class="non-terminal ">
<path d="M1752.5 31h0.0" /><path d="M1874.5 31h0.0" /><rect fill="rgb(0, 255, 0)" height="22" width="122" x="1752.5" y="20"></rect><text x="1813.5" y="35">array_access</text></g><path d="M1874.5 31h10" /><path d="M1884.5 31h10" /><g class="non-terminal ">
<path d="M1894.5 31h0.0" /><path d="M1923.0 31h0.0" /><rect fill="rgb(0, 255, 0)" height="22" width="28.5" x="1894.5" y="20"></rect><text x="1908.75" y="35">|</text></g><path d="M1923.0 31h10" /><path d="M1933.0 31h10" /><g class="non-terminal ">
<path d="M1943.0 31h0.0" /><path d="M2107.5 31h0.0" /><rect fill="rgb(0, 255, 0)" height="22" width="164.5" x="1943" y="20"></rect><text x="2025.25" y="35">method_invocation</text></g><path d="M2107.5 31h10" /><path d="M2117.5 31h10" /><g class="non-terminal ">
<path d="M2127.5 31h0.0" /><path d="M2156.0 31h0.0" /><rect fill="rgb(0, 255, 0)" height="22" width="28.5" x="2127.5" y="20"></rect><text x="2141.75" y="35">|</text></g><path d="M2156.0 31h10" /><path d="M2166.0 31h10" /><g class="non-terminal ">
<path d="M2176.0 31h0.0" /><path d="M2332.0 31h0.0" /><rect fill="rgb(0, 255, 0)" height="22" width="156" x="2176" y="20"></rect><text x="2254" y="35">method_reference</text></g><path d="M2332.0 31h10" /><path d="M2342.0 31h10" /><g class="non-terminal ">
<path d="M2352.0 31h0.0" /><path d="M2380.5 31h0.0" /><rect fill="rgb(0, 255, 0)" height="22" width="28.5" x="2352" y="20"></rect><text x="2366.25" y="35">|</text></g><path d="M2380.5 31h10" /><path d="M2390.5 31h10" /><g class="non-terminal ">
<path d="M2400.5 31h0.0" /><path d="M2633.0 31h0.0" /><rect fill="rgb(0, 255, 0)" height="22" width="232.5" x="2400.5" y="20"></rect><text x="2516.75" y="35">array_creation_expression</text></g><path d="M2633.0 31h10" /><path d="M2643.0 31h10" /><g class="non-terminal ">
<path d="M2653.0 31h0.0" /><path d="M2681.5 31h0.0" /><rect fill="rgb(0, 255, 0)" height="22" width="28.5" x="2653" y="20"></rect><text x="2667.25" y="35">|</text></g><path d="M2681.5 31h10" /><path d="M2691.5 31h10" /><g class="non-terminal ">
<path d="M2701.5 31h0.0" /><path d="M2883.0 31h0.0" /><rect fill="rgb(0, 255, 0)" height="22" width="181.5" x="2701.5" y="20"></rect><text x="2792.25" y="35">template_expression</text></g></g><path d="M2883.0 31h10" /><path d="M 2893.0 31 h 20 m -10 -10 v 20 m 10 -20 v 20"></path></g><style>/* <![CDATA[ */
	svg.railroad-diagram {
		background-color:hsl(30,20%,95%);
	}
	svg.railroad-diagram path {
		stroke-width:3;
		stroke:black;
		fill:rgba(0,0,0,0);
	}
	svg.railroad-diagram text {
		font:bold 14px monospace;
		text-anchor:middle;
	}
	svg.railroad-diagram text.label{
		text-anchor:start;
	}
	svg.railroad-diagram text.comment{
		font:italic 12px monospace;
	}
	svg.railroad-diagram rect{
		stroke-width:3;
		stroke:black;
		fill:hsl(120,100%,90%);
	}
	svg.railroad-diagram rect.group-box {
		stroke: gray;
		stroke-dasharray: 10 5;
		fill: none;
	}

/* ]]> */
</style></svg>