<svg class="railroad-diagram" height="62" viewBox="0 0 696.5 62" width="696.5" xmlns="http://www.w3.org/2000/svg" xmlns:xlink="http://www.w3.org/1999/xlink">
<g transform="translate(.5 .5)">
<g>
<path d="M20 21v20m10 -20v20m-10 -10h20" /></g><path d="M40 31h10" /><g>
<path d="M50 31h0.0" /><path d="M646.5 31h0.0" /><g class="non-terminal ">
<path d="M50.0 31h0.0" /><path d="M172.0 31h0.0" /><rect fill="rgb(0, 255, 0)" height="22" width="122" x="50" y="20"></rect><text x="111" y="35">_annotation*</text></g><path d="M172.0 31h10" /><path d="M182.0 31h10" /><g class="non-terminal ">
<path d="M192.0 31h0.0" /><path d="M356.5 31h0.0" /><rect fill="rgb(0, 255, 0)" height="22" width="164.5" x="192" y="20"></rect><text x="274.25" y="35">_unannotated_type</text></g><path d="M356.5 31h10" /><path d="M366.5 31h10" /><g class="non-terminal ">
<path d="M376.5 31h0.0" /><path d="M490.0 31h0.0" /><rect fill="rgb(0, 255, 0)" height="22" width="113.5" x="376.5" y="20"></rect><text x="433.25" y="35">(identifier</text></g><path d="M490.0 31h10" /><path d="M500.0 31h10" /><g class="non-terminal ">
<path d="M510.0 31h0.0" /><path d="M572.5 31h0.0" /><rect fill="rgb(0, 255, 0)" height="22" width="62.5" x="510" y="20"></rect><text x="541.25" y="35">&apos;.&apos;)*</text></g><path d="M572.5 31h10" /><path d="M582.5 31h10" /><g class="non-terminal ">
<path d="M592.5 31h0.0" /><path d="M646.5 31h0.0" /><rect fill="rgb(0, 255, 0)" height="22" width="54" x="592.5" y="20"></rect><text x="619.5" y="35">this</text></g></g><path d="M646.5 31h10" /><path d="M 656.5 31 h 20 m -10 -10 v 20 m 10 -20 v 20"></path></g><style>/* <![CDATA[ */
	svg.railroad-diagram {
		background-color:hsl(30,20%,95%);
	}
	svg.railroad-diagram path {
		stroke-width:3;
		stroke:black;
		fill:rgba(0,0,0,0);
	}
	svg.railroad-diagram text {
		font:bold 14px monospace;
		text-anchor:middle;
	}
	svg.railroad-diagram text.label{
		text-anchor:start;
	}
	svg.railroad-diagram text.comment{
		font:italic 12px monospace;
	}
	svg.railroad-diagram rect{
		stroke-width:3;
		stroke:black;
		fill:hsl(120,100%,90%);
	}
	svg.railroad-diagram rect.group-box {
		stroke: gray;
		stroke-dasharray: 10 5;
		fill: none;
	}

/* ]]> */
</style></svg>