<svg class="railroad-diagram" height="62" viewBox="0 0 872.5 62" width="872.5" xmlns="http://www.w3.org/2000/svg" xmlns:xlink="http://www.w3.org/1999/xlink">
<g transform="translate(.5 .5)">
<g>
<path d="M20 21v20m10 -20v20m-10 -10h20" /></g><path d="M40 31h10" /><g>
<path d="M50 31h0.0" /><path d="M822.5 31h0.0" /><g class="non-terminal ">
<path d="M50.0 31h0.0" /><path d="M163.5 31h0.0" /><rect fill="rgb(0, 255, 0)" height="22" width="113.5" x="50" y="20"></rect><text x="106.75" y="35">(identifier</text></g><path d="M163.5 31h10" /><path d="M173.5 31h10" /><g class="non-terminal ">
<path d="M183.5 31h0.0" /><path d="M212.0 31h0.0" /><rect fill="rgb(0, 255, 0)" height="22" width="28.5" x="183.5" y="20"></rect><text x="197.75" y="35">|</text></g><path d="M212.0 31h10" /><path d="M222.0 31h10" /><g class="non-terminal ">
<path d="M232.0 31h0.0" /><path d="M422.0 31h0.0" /><rect fill="rgb(0, 255, 0)" height="22" width="190" x="232" y="20"></rect><text x="327" y="35">_reserved_identifier</text></g><path d="M422.0 31h10" /><path d="M432.0 31h10" /><g class="non-terminal ">
<path d="M442.0 31h0.0" /><path d="M470.5 31h0.0" /><rect fill="rgb(0, 255, 0)" height="22" width="28.5" x="442" y="20"></rect><text x="456.25" y="35">|</text></g><path d="M470.5 31h10" /><path d="M480.5 31h10" /><g class="non-terminal ">
<path d="M490.5 31h0.0" /><path d="M621.0 31h0.0" /><rect fill="rgb(0, 255, 0)" height="22" width="130.5" x="490.5" y="20"></rect><text x="555.75" y="35">generic_type)</text></g><path d="M621.0 31h10" /><path d="M631.0 31h10" /><g class="non-terminal ">
<path d="M641.0 31h0.0" /><path d="M822.5 31h0.0" /><rect fill="rgb(0, 255, 0)" height="22" width="181.5" x="641" y="20"></rect><text x="731.75" y="35">record_pattern_body</text></g></g><path d="M822.5 31h10" /><path d="M 832.5 31 h 20 m -10 -10 v 20 m 10 -20 v 20"></path></g><style>/* <![CDATA[ */
	svg.railroad-diagram {
		background-color:hsl(30,20%,95%);
	}
	svg.railroad-diagram path {
		stroke-width:3;
		stroke:black;
		fill:rgba(0,0,0,0);
	}
	svg.railroad-diagram text {
		font:bold 14px monospace;
		text-anchor:middle;
	}
	svg.railroad-diagram text.label{
		text-anchor:start;
	}
	svg.railroad-diagram text.comment{
		font:italic 12px monospace;
	}
	svg.railroad-diagram rect{
		stroke-width:3;
		stroke:black;
		fill:hsl(120,100%,90%);
	}
	svg.railroad-diagram rect.group-box {
		stroke: gray;
		stroke-dasharray: 10 5;
		fill: none;
	}

/* ]]> */
</style></svg>