<svg class="railroad-diagram" height="62" viewBox="0 0 1230.5 62" width="1230.5" xmlns="http://www.w3.org/2000/svg" xmlns:xlink="http://www.w3.org/1999/xlink">
<g transform="translate(.5 .5)">
<g>
<path d="M20 21v20m10 -20v20m-10 -10h20" /></g><path d="M40 31h10" /><g>
<path d="M50 31h0.0" /><path d="M1180.5 31h0.0" /><g class="terminal ">
<path d="M50.0 31h0.0" /><path d="M78.5 31h0.0" /><rect fill="rgb(0, 255, 0)" height="22" width="28.5" x="50" y="20"></rect><text x="64.25" y="35">(</text></g><path d="M78.5 31h10" /><path d="M88.5 31h10" /><g class="non-terminal ">
<path d="M98.5 31h0.0" /><path d="M339.5 31h0.0" /><rect fill="rgb(0, 255, 0)" height="22" width="241" x="98.5" y="20"></rect><text x="219" y="35">((record_pattern_component</text></g><path d="M339.5 31h10" /><path d="M349.5 31h10" /><g class="non-terminal ">
<path d="M359.5 31h0.0" /><path d="M388.0 31h0.0" /><rect fill="rgb(0, 255, 0)" height="22" width="28.5" x="359.5" y="20"></rect><text x="373.75" y="35">|</text></g><path d="M388.0 31h10" /><path d="M398.0 31h10" /><g class="non-terminal ">
<path d="M408.0 31h0.0" /><path d="M555.5 31h0.0" /><rect fill="rgb(0, 255, 0)" height="22" width="147.5" x="408" y="20"></rect><text x="481.75" y="35">record_pattern)</text></g><path d="M555.5 31h10" /><path d="M565.5 31h10" /><g class="non-terminal ">
<path d="M575.5 31h0.0" /><path d="M629.5 31h0.0" /><rect fill="rgb(0, 255, 0)" height="22" width="54" x="575.5" y="20"></rect><text x="602.5" y="35">(&apos;,&apos;</text></g><path d="M629.5 31h10" /><path d="M639.5 31h10" /><g class="non-terminal ">
<path d="M649.5 31h0.0" /><path d="M882.0 31h0.0" /><rect fill="rgb(0, 255, 0)" height="22" width="232.5" x="649.5" y="20"></rect><text x="765.75" y="35">(record_pattern_component</text></g><path d="M882.0 31h10" /><path d="M892.0 31h10" /><g class="non-terminal ">
<path d="M902.0 31h0.0" /><path d="M930.5 31h0.0" /><rect fill="rgb(0, 255, 0)" height="22" width="28.5" x="902" y="20"></rect><text x="916.25" y="35">|</text></g><path d="M930.5 31h10" /><path d="M940.5 31h10" /><g class="non-terminal ">
<path d="M950.5 31h0.0" /><path d="M1132.0 31h0.0" /><rect fill="rgb(0, 255, 0)" height="22" width="181.5" x="950.5" y="20"></rect><text x="1041.25" y="35">record_pattern))*)?</text></g><path d="M1132.0 31h10" /><path d="M1142.0 31h10" /><g class="terminal ">
<path d="M1152.0 31h0.0" /><path d="M1180.5 31h0.0" /><rect fill="rgb(0, 255, 0)" height="22" width="28.5" x="1152" y="20"></rect><text x="1166.25" y="35">)</text></g></g><path d="M1180.5 31h10" /><path d="M 1190.5 31 h 20 m -10 -10 v 20 m 10 -20 v 20"></path></g><style>/* <![CDATA[ */
	svg.railroad-diagram {
		background-color:hsl(30,20%,95%);
	}
	svg.railroad-diagram path {
		stroke-width:3;
		stroke:black;
		fill:rgba(0,0,0,0);
	}
	svg.railroad-diagram text {
		font:bold 14px monospace;
		text-anchor:middle;
	}
	svg.railroad-diagram text.label{
		text-anchor:start;
	}
	svg.railroad-diagram text.comment{
		font:italic 12px monospace;
	}
	svg.railroad-diagram rect{
		stroke-width:3;
		stroke:black;
		fill:hsl(120,100%,90%);
	}
	svg.railroad-diagram rect.group-box {
		stroke: gray;
		stroke-dasharray: 10 5;
		fill: none;
	}

/* ]]> */
</style></svg>