<svg class="railroad-diagram" height="62" viewBox="0 0 770.5 62" width="770.5" xmlns="http://www.w3.org/2000/svg" xmlns:xlink="http://www.w3.org/1999/xlink">
<g transform="translate(.5 .5)">
<g>
<path d="M20 21v20m10 -20v20m-10 -10h20" /></g><path d="M40 31h10" /><g>
<path d="M50 31h0.0" /><path d="M720.5 31h0.0" /><g class="terminal ">
<path d="M50.0 31h0.0" /><path d="M138.0 31h0.0" /><rect fill="rgb(0, 255, 0)" height="22" width="88" x="50" y="20"></rect><text x="94" y="35">requires</text></g><path d="M138.0 31h10" /><path d="M148.0 31h10" /><g class="non-terminal ">
<path d="M158.0 31h0.0" /><path d="M339.5 31h0.0" /><rect fill="rgb(0, 255, 0)" height="22" width="181.5" x="158" y="20"></rect><text x="248.75" y="35">(requires_modifier:</text></g><path d="M339.5 31h10" /><path d="M349.5 31h10" /><g class="non-terminal ">
<path d="M359.5 31h0.0" /><path d="M473.0 31h0.0" /><rect fill="rgb(0, 255, 0)" height="22" width="113.5" x="359.5" y="20"></rect><text x="416.25" y="35">modifiers)*</text></g><path d="M473.0 31h10" /><path d="M483.0 31h10" /><g class="non-terminal ">
<path d="M493.0 31h0.0" /><path d="M572.5 31h0.0" /><rect fill="rgb(0, 255, 0)" height="22" width="79.5" x="493" y="20"></rect><text x="532.75" y="35">(_name:</text></g><path d="M572.5 31h10" /><path d="M582.5 31h10" /><g class="non-terminal ">
<path d="M592.5 31h0.0" /><path d="M672.0 31h0.0" /><rect fill="rgb(0, 255, 0)" height="22" width="79.5" x="592.5" y="20"></rect><text x="632.25" y="35">module)</text></g><path d="M672.0 31h10" /><path d="M682.0 31h10" /><g class="terminal ">
<path d="M692.0 31h0.0" /><path d="M720.5 31h0.0" /><rect fill="rgb(0, 255, 0)" height="22" width="28.5" x="692" y="20"></rect><text x="706.25" y="35">;</text></g></g><path d="M720.5 31h10" /><path d="M 730.5 31 h 20 m -10 -10 v 20 m 10 -20 v 20"></path></g><style>/* <![CDATA[ */
	svg.railroad-diagram {
		background-color:hsl(30,20%,95%);
	}
	svg.railroad-diagram path {
		stroke-width:3;
		stroke:black;
		fill:rgba(0,0,0,0);
	}
	svg.railroad-diagram text {
		font:bold 14px monospace;
		text-anchor:middle;
	}
	svg.railroad-diagram text.label{
		text-anchor:start;
	}
	svg.railroad-diagram text.comment{
		font:italic 12px monospace;
	}
	svg.railroad-diagram rect{
		stroke-width:3;
		stroke:black;
		fill:hsl(120,100%,90%);
	}
	svg.railroad-diagram rect.group-box {
		stroke: gray;
		stroke-dasharray: 10 5;
		fill: none;
	}

/* ]]> */
</style></svg>