<svg class="railroad-diagram" height="62" viewBox="0 0 543.5 62" width="543.5" xmlns="http://www.w3.org/2000/svg" xmlns:xlink="http://www.w3.org/1999/xlink">
<g transform="translate(.5 .5)">
<g>
<path d="M20 21v20m10 -20v20m-10 -10h20" /></g><path d="M40 31h10" /><g>
<path d="M50 31h0.0" /><path d="M493.5 31h0.0" /><g class="non-terminal ">
<path d="M50.0 31h0.0" /><path d="M129.5 31h0.0" /><rect fill="rgb(0, 255, 0)" height="22" width="79.5" x="50" y="20"></rect><text x="89.75" y="35">(_name:</text></g><path d="M129.5 31h10" /><path d="M139.5 31h10" /><g class="non-terminal ">
<path d="M149.5 31h0.0" /><path d="M220.5 31h0.0" /><rect fill="rgb(0, 255, 0)" height="22" width="71" x="149.5" y="20"></rect><text x="185" y="35">scope)</text></g><path d="M220.5 31h10" /><path d="M230.5 31h10" /><g class="terminal ">
<path d="M240.5 31h0.0" /><path d="M269.0 31h0.0" /><rect fill="rgb(0, 255, 0)" height="22" width="28.5" x="240.5" y="20"></rect><text x="254.75" y="35">.</text></g><path d="M269.0 31h10" /><path d="M279.0 31h10" /><g class="non-terminal ">
<path d="M289.0 31h0.0" /><path d="M411.0 31h0.0" /><rect fill="rgb(0, 255, 0)" height="22" width="122" x="289" y="20"></rect><text x="350" y="35">(identifier:</text></g><path d="M411.0 31h10" /><path d="M421.0 31h10" /><g class="non-terminal ">
<path d="M431.0 31h0.0" /><path d="M493.5 31h0.0" /><rect fill="rgb(0, 255, 0)" height="22" width="62.5" x="431" y="20"></rect><text x="462.25" y="35">name)</text></g></g><path d="M493.5 31h10" /><path d="M 503.5 31 h 20 m -10 -10 v 20 m 10 -20 v 20"></path></g><style>/* <![CDATA[ */
	svg.railroad-diagram {
		background-color:hsl(30,20%,95%);
	}
	svg.railroad-diagram path {
		stroke-width:3;
		stroke:black;
		fill:rgba(0,0,0,0);
	}
	svg.railroad-diagram text {
		font:bold 14px monospace;
		text-anchor:middle;
	}
	svg.railroad-diagram text.label{
		text-anchor:start;
	}
	svg.railroad-diagram text.comment{
		font:italic 12px monospace;
	}
	svg.railroad-diagram rect{
		stroke-width:3;
		stroke:black;
		fill:hsl(120,100%,90%);
	}
	svg.railroad-diagram rect.group-box {
		stroke: gray;
		stroke-dasharray: 10 5;
		fill: none;
	}

/* ]]> */
</style></svg>