<svg class="railroad-diagram" height="62" viewBox="0 0 548.5 62" width="548.5" xmlns="http://www.w3.org/2000/svg" xmlns:xlink="http://www.w3.org/1999/xlink">
<g transform="translate(.5 .5)">
<g>
<path d="M20 21v20m10 -20v20m-10 -10h20" /></g><path d="M40 31h10" /><g>
<path d="M50 31h0.0" /><path d="M498.5 31h0.0" /><g class="non-terminal ">
<path d="M50.0 31h0.0" /><path d="M197.5 31h0.0" /><rect fill="rgb(0, 255, 0)" height="22" width="147.5" x="50" y="20"></rect><text x="123.75" y="35">_string_literal</text></g><path d="M197.5 31h10" /><path d="M207.5 31h10" /><g class="non-terminal ">
<path d="M217.5 31h0.0" /><path d="M246.0 31h0.0" /><rect fill="rgb(0, 255, 0)" height="22" width="28.5" x="217.5" y="20"></rect><text x="231.75" y="35">|</text></g><path d="M246.0 31h10" /><path d="M256.0 31h10" /><g class="non-terminal ">
<path d="M266.0 31h0.0" /><path d="M498.5 31h0.0" /><rect fill="rgb(0, 255, 0)" height="22" width="232.5" x="266" y="20"></rect><text x="382.25" y="35">_multiline_string_literal</text></g></g><path d="M498.5 31h10" /><path d="M 508.5 31 h 20 m -10 -10 v 20 m 10 -20 v 20"></path></g><style>/* <![CDATA[ */
	svg.railroad-diagram {
		background-color:hsl(30,20%,95%);
	}
	svg.railroad-diagram path {
		stroke-width:3;
		stroke:black;
		fill:rgba(0,0,0,0);
	}
	svg.railroad-diagram text {
		font:bold 14px monospace;
		text-anchor:middle;
	}
	svg.railroad-diagram text.label{
		text-anchor:start;
	}
	svg.railroad-diagram text.comment{
		font:italic 12px monospace;
	}
	svg.railroad-diagram rect{
		stroke-width:3;
		stroke:black;
		fill:hsl(120,100%,90%);
	}
	svg.railroad-diagram rect.group-box {
		stroke: gray;
		stroke-dasharray: 10 5;
		fill: none;
	}

/* ]]> */
</style></svg>