<svg class="railroad-diagram" height="62" viewBox="0 0 1438.0 62" width="1438.0" xmlns="http://www.w3.org/2000/svg" xmlns:xlink="http://www.w3.org/1999/xlink">
<g transform="translate(.5 .5)">
<g>
<path d="M20 21v20m10 -20v20m-10 -10h20" /></g><path d="M40 31h10" /><g>
<path d="M50 31h0.0" /><path d="M1388.0 31h0.0" /><g class="non-terminal ">
<path d="M50.0 31h0.0" /><path d="M78.5 31h0.0" /><rect fill="rgb(0, 255, 0)" height="22" width="28.5" x="50" y="20"></rect><text x="64.25" y="35">{</text></g><path d="M78.5 31h10" /><path d="M88.5 31h10" /><g class="non-terminal ">
<path d="M98.5 31h0.0" /><path d="M203.5 31h0.0" /><rect fill="rgb(0, 255, 0)" height="22" width="105" x="98.5" y="20"></rect><text x="151" y="35">expression</text></g><path d="M203.5 31h10" /><path d="M213.5 31h10" /><g class="non-terminal ">
<path d="M223.5 31h0.0" /><path d="M337.0 31h0.0" /><rect fill="rgb(0, 255, 0)" height="22" width="113.5" x="223.5" y="20"></rect><text x="280.25" y="35">declaration</text></g><path d="M337.0 31h10" /><path d="M347.0 31h10" /><g class="non-terminal ">
<path d="M357.0 31h0.0" /><path d="M453.5 31h0.0" /><rect fill="rgb(0, 255, 0)" height="22" width="96.5" x="357" y="20"></rect><text x="405.25" y="35">statement</text></g><path d="M453.5 31h10" /><path d="M463.5 31h10" /><g class="non-terminal ">
<path d="M473.5 31h0.0" /><path d="M646.5 31h0.0" /><rect fill="rgb(0, 255, 0)" height="22" width="173" x="473.5" y="20"></rect><text x="560" y="35">primary_expression</text></g><path d="M646.5 31h10" /><path d="M656.5 31h10" /><g class="non-terminal ">
<path d="M666.5 31h0.0" /><path d="M754.5 31h0.0" /><rect fill="rgb(0, 255, 0)" height="22" width="88" x="666.5" y="20"></rect><text x="710.5" y="35">_literal</text></g><path d="M754.5 31h10" /><path d="M764.5 31h10" /><g class="non-terminal ">
<path d="M774.5 31h0.0" /><path d="M837.0 31h0.0" /><rect fill="rgb(0, 255, 0)" height="22" width="62.5" x="774.5" y="20"></rect><text x="805.75" y="35">_type</text></g><path d="M837.0 31h10" /><path d="M847.0 31h10" /><g class="non-terminal ">
<path d="M857.0 31h0.0" /><path d="M979.0 31h0.0" /><rect fill="rgb(0, 255, 0)" height="22" width="122" x="857" y="20"></rect><text x="918" y="35">_simple_type</text></g><path d="M979.0 31h10" /><path d="M989.0 31h10" /><g class="non-terminal ">
<path d="M999.0 31h0.0" /><path d="M1163.5 31h0.0" /><rect fill="rgb(0, 255, 0)" height="22" width="164.5" x="999" y="20"></rect><text x="1081.25" y="35">_unannotated_type</text></g><path d="M1163.5 31h10" /><path d="M1173.5 31h10" /><g class="non-terminal ">
<path d="M1183.5 31h0.0" /><path d="M1339.5 31h0.0" /><rect fill="rgb(0, 255, 0)" height="22" width="156" x="1183.5" y="20"></rect><text x="1261.5" y="35">module_directive</text></g><path d="M1339.5 31h10" /><path d="M1349.5 31h10" /><g class="non-terminal ">
<path d="M1359.5 31h0.0" /><path d="M1388.0 31h0.0" /><rect fill="rgb(0, 255, 0)" height="22" width="28.5" x="1359.5" y="20"></rect><text x="1373.75" y="35">}</text></g></g><path d="M1388.0 31h10" /><path d="M 1398.0 31 h 20 m -10 -10 v 20 m 10 -20 v 20"></path></g><style>/* <![CDATA[ */
	svg.railroad-diagram {
		background-color:hsl(30,20%,95%);
	}
	svg.railroad-diagram path {
		stroke-width:3;
		stroke:black;
		fill:rgba(0,0,0,0);
	}
	svg.railroad-diagram text {
		font:bold 14px monospace;
		text-anchor:middle;
	}
	svg.railroad-diagram text.label{
		text-anchor:start;
	}
	svg.railroad-diagram text.comment{
		font:italic 12px monospace;
	}
	svg.railroad-diagram rect{
		stroke-width:3;
		stroke:black;
		fill:hsl(120,100%,90%);
	}
	svg.railroad-diagram rect.group-box {
		stroke: gray;
		stroke-dasharray: 10 5;
		fill: none;
	}

/* ]]> */
</style></svg>