<svg class="railroad-diagram" height="62" viewBox="0 0 798.5 62" width="798.5" xmlns="http://www.w3.org/2000/svg" xmlns:xlink="http://www.w3.org/1999/xlink">
<g transform="translate(.5 .5)">
<g>
<path d="M20 21v20m10 -20v20m-10 -10h20" /></g><path d="M40 31h10" /><g>
<path d="M50 31h0.0" /><path d="M748.5 31h0.0" /><g class="terminal ">
<path d="M50.0 31h0.0" /><path d="M121.0 31h0.0" /><rect fill="rgb(0, 255, 0)" height="22" width="71" x="50" y="20"></rect><text x="85.5" y="35">switch</text></g><path d="M121.0 31h10" /><path d="M131.0 31h10" /><g class="non-terminal ">
<path d="M141.0 31h0.0" /><path d="M382.0 31h0.0" /><rect fill="rgb(0, 255, 0)" height="22" width="241" x="141" y="20"></rect><text x="261.5" y="35">(parenthesized_expression:</text></g><path d="M382.0 31h10" /><path d="M392.0 31h10" /><g class="non-terminal ">
<path d="M402.0 31h0.0" /><path d="M507.0 31h0.0" /><rect fill="rgb(0, 255, 0)" height="22" width="105" x="402" y="20"></rect><text x="454.5" y="35">condition)</text></g><path d="M507.0 31h10" /><path d="M517.0 31h10" /><g class="non-terminal ">
<path d="M527.0 31h0.0" /><path d="M666.0 31h0.0" /><rect fill="rgb(0, 255, 0)" height="22" width="139" x="527" y="20"></rect><text x="596.5" y="35">(switch_block:</text></g><path d="M666.0 31h10" /><path d="M676.0 31h10" /><g class="non-terminal ">
<path d="M686.0 31h0.0" /><path d="M748.5 31h0.0" /><rect fill="rgb(0, 255, 0)" height="22" width="62.5" x="686" y="20"></rect><text x="717.25" y="35">body)</text></g></g><path d="M748.5 31h10" /><path d="M 758.5 31 h 20 m -10 -10 v 20 m 10 -20 v 20"></path></g><style>/* <![CDATA[ */
	svg.railroad-diagram {
		background-color:hsl(30,20%,95%);
	}
	svg.railroad-diagram path {
		stroke-width:3;
		stroke:black;
		fill:rgba(0,0,0,0);
	}
	svg.railroad-diagram text {
		font:bold 14px monospace;
		text-anchor:middle;
	}
	svg.railroad-diagram text.label{
		text-anchor:start;
	}
	svg.railroad-diagram text.comment{
		font:italic 12px monospace;
	}
	svg.railroad-diagram rect{
		stroke-width:3;
		stroke:black;
		fill:hsl(120,100%,90%);
	}
	svg.railroad-diagram rect.group-box {
		stroke: gray;
		stroke-dasharray: 10 5;
		fill: none;
	}

/* ]]> */
</style></svg>