<svg class="railroad-diagram" height="62" viewBox="0 0 853.0 62" width="853.0" xmlns="http://www.w3.org/2000/svg" xmlns:xlink="http://www.w3.org/1999/xlink">
<g transform="translate(.5 .5)">
<g>
<path d="M20 21v20m10 -20v20m-10 -10h20" /></g><path d="M40 31h10" /><g>
<path d="M50 31h0.0" /><path d="M803.0 31h0.0" /><g class="non-terminal ">
<path d="M50.0 31h0.0" /><path d="M172.0 31h0.0" /><rect fill="rgb(0, 255, 0)" height="22" width="122" x="50" y="20"></rect><text x="111" y="35">switch_label</text></g><path d="M172.0 31h10" /><path d="M182.0 31h10" /><g class="terminal ">
<path d="M192.0 31h0.0" /><path d="M229.0 31h0.0" /><rect fill="rgb(0, 255, 0)" height="22" width="37" x="192" y="20"></rect><text x="210.5" y="35">-></text></g><path d="M229.0 31h10" /><path d="M239.0 31h10" /><g class="non-terminal ">
<path d="M249.0 31h0.0" /><path d="M447.5 31h0.0" /><rect fill="rgb(0, 255, 0)" height="22" width="198.5" x="249" y="20"></rect><text x="348.25" y="35">(expression_statement</text></g><path d="M447.5 31h10" /><path d="M457.5 31h10" /><g class="non-terminal ">
<path d="M467.5 31h0.0" /><path d="M496.0 31h0.0" /><rect fill="rgb(0, 255, 0)" height="22" width="28.5" x="467.5" y="20"></rect><text x="481.75" y="35">|</text></g><path d="M496.0 31h10" /><path d="M506.0 31h10" /><g class="non-terminal ">
<path d="M516.0 31h0.0" /><path d="M663.5 31h0.0" /><rect fill="rgb(0, 255, 0)" height="22" width="147.5" x="516" y="20"></rect><text x="589.75" y="35">throw_statement</text></g><path d="M663.5 31h10" /><path d="M673.5 31h10" /><g class="non-terminal ">
<path d="M683.5 31h0.0" /><path d="M712.0 31h0.0" /><rect fill="rgb(0, 255, 0)" height="22" width="28.5" x="683.5" y="20"></rect><text x="697.75" y="35">|</text></g><path d="M712.0 31h10" /><path d="M722.0 31h10" /><g class="non-terminal ">
<path d="M732.0 31h0.0" /><path d="M803.0 31h0.0" /><rect fill="rgb(0, 255, 0)" height="22" width="71" x="732" y="20"></rect><text x="767.5" y="35">block)</text></g></g><path d="M803.0 31h10" /><path d="M 813.0 31 h 20 m -10 -10 v 20 m 10 -20 v 20"></path></g><style>/* <![CDATA[ */
	svg.railroad-diagram {
		background-color:hsl(30,20%,95%);
	}
	svg.railroad-diagram path {
		stroke-width:3;
		stroke:black;
		fill:rgba(0,0,0,0);
	}
	svg.railroad-diagram text {
		font:bold 14px monospace;
		text-anchor:middle;
	}
	svg.railroad-diagram text.label{
		text-anchor:start;
	}
	svg.railroad-diagram text.comment{
		font:italic 12px monospace;
	}
	svg.railroad-diagram rect{
		stroke-width:3;
		stroke:black;
		fill:hsl(120,100%,90%);
	}
	svg.railroad-diagram rect.group-box {
		stroke: gray;
		stroke-dasharray: 10 5;
		fill: none;
	}

/* ]]> */
</style></svg>