<svg class="railroad-diagram" height="62" viewBox="0 0 950.0 62" width="950.0" xmlns="http://www.w3.org/2000/svg" xmlns:xlink="http://www.w3.org/1999/xlink">
<g transform="translate(.5 .5)">
<g>
<path d="M20 21v20m10 -20v20m-10 -10h20" /></g><path d="M40 31h10" /><g>
<path d="M50 31h0.0" /><path d="M900.0 31h0.0" /><g class="non-terminal ">
<path d="M50.0 31h0.0" /><path d="M129.5 31h0.0" /><rect fill="rgb(0, 255, 0)" height="22" width="79.5" x="50" y="20"></rect><text x="89.75" y="35">(&apos;case&apos;</text></g><path d="M129.5 31h10" /><path d="M139.5 31h10" /><g class="non-terminal ">
<path d="M149.5 31h0.0" /><path d="M237.5 31h0.0" /><rect fill="rgb(0, 255, 0)" height="22" width="88" x="149.5" y="20"></rect><text x="193.5" y="35">(pattern</text></g><path d="M237.5 31h10" /><path d="M247.5 31h10" /><g class="non-terminal ">
<path d="M257.5 31h0.0" /><path d="M286.0 31h0.0" /><rect fill="rgb(0, 255, 0)" height="22" width="28.5" x="257.5" y="20"></rect><text x="271.75" y="35">|</text></g><path d="M286.0 31h10" /><path d="M296.0 31h10" /><g class="non-terminal ">
<path d="M306.0 31h0.0" /><path d="M419.5 31h0.0" /><rect fill="rgb(0, 255, 0)" height="22" width="113.5" x="306" y="20"></rect><text x="362.75" y="35">(expression</text></g><path d="M419.5 31h10" /><path d="M429.5 31h10" /><g class="non-terminal ">
<path d="M439.5 31h0.0" /><path d="M493.5 31h0.0" /><rect fill="rgb(0, 255, 0)" height="22" width="54" x="439.5" y="20"></rect><text x="466.5" y="35">(&apos;,&apos;</text></g><path d="M493.5 31h10" /><path d="M503.5 31h10" /><g class="non-terminal ">
<path d="M513.5 31h0.0" /><path d="M652.5 31h0.0" /><rect fill="rgb(0, 255, 0)" height="22" width="139" x="513.5" y="20"></rect><text x="583" y="35">expression)*))</text></g><path d="M652.5 31h10" /><path d="M662.5 31h10" /><g class="non-terminal ">
<path d="M672.5 31h0.0" /><path d="M752.0 31h0.0" /><rect fill="rgb(0, 255, 0)" height="22" width="79.5" x="672.5" y="20"></rect><text x="712.25" y="35">guard?)</text></g><path d="M752.0 31h10" /><path d="M762.0 31h10" /><g class="non-terminal ">
<path d="M772.0 31h0.0" /><path d="M800.5 31h0.0" /><rect fill="rgb(0, 255, 0)" height="22" width="28.5" x="772" y="20"></rect><text x="786.25" y="35">|</text></g><path d="M800.5 31h10" /><path d="M810.5 31h10" /><g class="terminal ">
<path d="M820.5 31h0.0" /><path d="M900.0 31h0.0" /><rect fill="rgb(0, 255, 0)" height="22" width="79.5" x="820.5" y="20"></rect><text x="860.25" y="35">default</text></g></g><path d="M900.0 31h10" /><path d="M 910.0 31 h 20 m -10 -10 v 20 m 10 -20 v 20"></path></g><style>/* <![CDATA[ */
	svg.railroad-diagram {
		background-color:hsl(30,20%,95%);
	}
	svg.railroad-diagram path {
		stroke-width:3;
		stroke:black;
		fill:rgba(0,0,0,0);
	}
	svg.railroad-diagram text {
		font:bold 14px monospace;
		text-anchor:middle;
	}
	svg.railroad-diagram text.label{
		text-anchor:start;
	}
	svg.railroad-diagram text.comment{
		font:italic 12px monospace;
	}
	svg.railroad-diagram rect{
		stroke-width:3;
		stroke:black;
		fill:hsl(120,100%,90%);
	}
	svg.railroad-diagram rect.group-box {
		stroke: gray;
		stroke-dasharray: 10 5;
		fill: none;
	}

/* ]]> */
</style></svg>