<svg class="railroad-diagram" height="62" viewBox="0 0 1046.0 62" width="1046.0" xmlns="http://www.w3.org/2000/svg" xmlns:xlink="http://www.w3.org/1999/xlink">
<g transform="translate(.5 .5)">
<g>
<path d="M20 21v20m10 -20v20m-10 -10h20" /></g><path d="M40 31h10" /><g>
<path d="M50 31h0.0" /><path d="M996.0 31h0.0" /><g class="non-terminal ">
<path d="M50.0 31h0.0" /><path d="M197.5 31h0.0" /><rect fill="rgb(0, 255, 0)" height="22" width="147.5" x="50" y="20"></rect><text x="123.75" y="35">>3((expression:</text></g><path d="M197.5 31h10" /><path d="M207.5 31h10" /><g class="non-terminal ">
<path d="M217.5 31h0.0" /><path d="M322.5 31h0.0" /><rect fill="rgb(0, 255, 0)" height="22" width="105" x="217.5" y="20"></rect><text x="270" y="35">condition)</text></g><path d="M322.5 31h10" /><path d="M332.5 31h10" /><g class="terminal ">
<path d="M342.5 31h0.0" /><path d="M371.0 31h0.0" /><rect fill="rgb(0, 255, 0)" height="22" width="28.5" x="342.5" y="20"></rect><text x="356.75" y="35">?</text></g><path d="M371.0 31h10" /><path d="M381.0 31h10" /><g class="non-terminal ">
<path d="M391.0 31h0.0" /><path d="M513.0 31h0.0" /><rect fill="rgb(0, 255, 0)" height="22" width="122" x="391" y="20"></rect><text x="452" y="35">(expression:</text></g><path d="M513.0 31h10" /><path d="M523.0 31h10" /><g class="non-terminal ">
<path d="M533.0 31h0.0" /><path d="M655.0 31h0.0" /><rect fill="rgb(0, 255, 0)" height="22" width="122" x="533" y="20"></rect><text x="594" y="35">consequence)</text></g><path d="M655.0 31h10" /><path d="M665.0 31h10" /><g class="terminal ">
<path d="M675.0 31h0.0" /><path d="M703.5 31h0.0" /><rect fill="rgb(0, 255, 0)" height="22" width="28.5" x="675" y="20"></rect><text x="689.25" y="35">:</text></g><path d="M703.5 31h10" /><path d="M713.5 31h10" /><g class="non-terminal ">
<path d="M723.5 31h0.0" /><path d="M845.5 31h0.0" /><rect fill="rgb(0, 255, 0)" height="22" width="122" x="723.5" y="20"></rect><text x="784.5" y="35">(expression:</text></g><path d="M845.5 31h10" /><path d="M855.5 31h10" /><g class="non-terminal ">
<path d="M865.5 31h0.0" /><path d="M996.0 31h0.0" /><rect fill="rgb(0, 255, 0)" height="22" width="130.5" x="865.5" y="20"></rect><text x="930.75" y="35">alternative))</text></g></g><path d="M996.0 31h10" /><path d="M 1006.0 31 h 20 m -10 -10 v 20 m 10 -20 v 20"></path></g><style>/* <![CDATA[ */
	svg.railroad-diagram {
		background-color:hsl(30,20%,95%);
	}
	svg.railroad-diagram path {
		stroke-width:3;
		stroke:black;
		fill:rgba(0,0,0,0);
	}
	svg.railroad-diagram text {
		font:bold 14px monospace;
		text-anchor:middle;
	}
	svg.railroad-diagram text.label{
		text-anchor:start;
	}
	svg.railroad-diagram text.comment{
		font:italic 12px monospace;
	}
	svg.railroad-diagram rect{
		stroke-width:3;
		stroke:black;
		fill:hsl(120,100%,90%);
	}
	svg.railroad-diagram rect.group-box {
		stroke: gray;
		stroke-dasharray: 10 5;
		fill: none;
	}

/* ]]> */
</style></svg>