<svg class="railroad-diagram" height="62" viewBox="0 0 444.0 62" width="444.0" xmlns="http://www.w3.org/2000/svg" xmlns:xlink="http://www.w3.org/1999/xlink">
<g transform="translate(.5 .5)">
<g>
<path d="M20 21v20m10 -20v20m-10 -10h20" /></g><path d="M40 31h10" /><g>
<path d="M50 31h0.0" /><path d="M394.0 31h0.0" /><g class="terminal ">
<path d="M50.0 31h0.0" /><path d="M121.0 31h0.0" /><rect fill="rgb(0, 255, 0)" height="22" width="71" x="50" y="20"></rect><text x="85.5" y="35">throws</text></g><path d="M121.0 31h10" /><path d="M131.0 31h10" /><g class="non-terminal ">
<path d="M141.0 31h0.0" /><path d="M212.0 31h0.0" /><rect fill="rgb(0, 255, 0)" height="22" width="71" x="141" y="20"></rect><text x="176.5" y="35">(_type</text></g><path d="M212.0 31h10" /><path d="M222.0 31h10" /><g class="non-terminal ">
<path d="M232.0 31h0.0" /><path d="M286.0 31h0.0" /><rect fill="rgb(0, 255, 0)" height="22" width="54" x="232" y="20"></rect><text x="259" y="35">(&apos;,&apos;</text></g><path d="M286.0 31h10" /><path d="M296.0 31h10" /><g class="non-terminal ">
<path d="M306.0 31h0.0" /><path d="M394.0 31h0.0" /><rect fill="rgb(0, 255, 0)" height="22" width="88" x="306" y="20"></rect><text x="350" y="35">_type)*)</text></g></g><path d="M394.0 31h10" /><path d="M 404.0 31 h 20 m -10 -10 v 20 m 10 -20 v 20"></path></g><style>/* <![CDATA[ */
	svg.railroad-diagram {
		background-color:hsl(30,20%,95%);
	}
	svg.railroad-diagram path {
		stroke-width:3;
		stroke:black;
		fill:rgba(0,0,0,0);
	}
	svg.railroad-diagram text {
		font:bold 14px monospace;
		text-anchor:middle;
	}
	svg.railroad-diagram text.label{
		text-anchor:start;
	}
	svg.railroad-diagram text.comment{
		font:italic 12px monospace;
	}
	svg.railroad-diagram rect{
		stroke-width:3;
		stroke:black;
		fill:hsl(120,100%,90%);
	}
	svg.railroad-diagram rect.group-box {
		stroke: gray;
		stroke-dasharray: 10 5;
		fill: none;
	}

/* ]]> */
</style></svg>