<svg class="railroad-diagram" height="62" viewBox="0 0 1014.5 62" width="1014.5" xmlns="http://www.w3.org/2000/svg" xmlns:xlink="http://www.w3.org/1999/xlink">
<g transform="translate(.5 .5)">
<g>
<path d="M20 21v20m10 -20v20m-10 -10h20" /></g><path d="M40 31h10" /><g>
<path d="M50 31h0.0" /><path d="M964.5 31h0.0" /><g class="terminal ">
<path d="M50.0 31h0.0" /><path d="M95.5 31h0.0" /><rect fill="rgb(0, 255, 0)" height="22" width="45.5" x="50" y="20"></rect><text x="72.75" y="35">try</text></g><path d="M95.5 31h10" /><path d="M105.5 31h10" /><g class="non-terminal ">
<path d="M115.5 31h0.0" /><path d="M339.5 31h0.0" /><rect fill="rgb(0, 255, 0)" height="22" width="224" x="115.5" y="20"></rect><text x="227.5" y="35">(resource_specification:</text></g><path d="M339.5 31h10" /><path d="M349.5 31h10" /><g class="non-terminal ">
<path d="M359.5 31h0.0" /><path d="M464.5 31h0.0" /><rect fill="rgb(0, 255, 0)" height="22" width="105" x="359.5" y="20"></rect><text x="412" y="35">resources)</text></g><path d="M464.5 31h10" /><path d="M474.5 31h10" /><g class="non-terminal ">
<path d="M484.5 31h0.0" /><path d="M564.0 31h0.0" /><rect fill="rgb(0, 255, 0)" height="22" width="79.5" x="484.5" y="20"></rect><text x="524.25" y="35">(block:</text></g><path d="M564.0 31h10" /><path d="M574.0 31h10" /><g class="non-terminal ">
<path d="M584.0 31h0.0" /><path d="M646.5 31h0.0" /><rect fill="rgb(0, 255, 0)" height="22" width="62.5" x="584" y="20"></rect><text x="615.25" y="35">body)</text></g><path d="M646.5 31h10" /><path d="M656.5 31h10" /><g class="non-terminal ">
<path d="M666.5 31h0.0" /><path d="M797.0 31h0.0" /><rect fill="rgb(0, 255, 0)" height="22" width="130.5" x="666.5" y="20"></rect><text x="731.75" y="35">catch_clause*</text></g><path d="M797.0 31h10" /><path d="M807.0 31h10" /><g class="non-terminal ">
<path d="M817.0 31h0.0" /><path d="M964.5 31h0.0" /><rect fill="rgb(0, 255, 0)" height="22" width="147.5" x="817" y="20"></rect><text x="890.75" y="35">finally_clause?</text></g></g><path d="M964.5 31h10" /><path d="M 974.5 31 h 20 m -10 -10 v 20 m 10 -20 v 20"></path></g><style>/* <![CDATA[ */
	svg.railroad-diagram {
		background-color:hsl(30,20%,95%);
	}
	svg.railroad-diagram path {
		stroke-width:3;
		stroke:black;
		fill:rgba(0,0,0,0);
	}
	svg.railroad-diagram text {
		font:bold 14px monospace;
		text-anchor:middle;
	}
	svg.railroad-diagram text.label{
		text-anchor:start;
	}
	svg.railroad-diagram text.comment{
		font:italic 12px monospace;
	}
	svg.railroad-diagram rect{
		stroke-width:3;
		stroke:black;
		fill:hsl(120,100%,90%);
	}
	svg.railroad-diagram rect.group-box {
		stroke: gray;
		stroke-dasharray: 10 5;
		fill: none;
	}

/* ]]> */
</style></svg>