<svg class="railroad-diagram" height="62" viewBox="0 0 594.5 62" width="594.5" xmlns="http://www.w3.org/2000/svg" xmlns:xlink="http://www.w3.org/1999/xlink">
<g transform="translate(.5 .5)">
<g>
<path d="M20 21v20m10 -20v20m-10 -10h20" /></g><path d="M40 31h10" /><g>
<path d="M50 31h0.0" /><path d="M544.5 31h0.0" /><g class="non-terminal ">
<path d="M50.0 31h0.0" /><path d="M172.0 31h0.0" /><rect fill="rgb(0, 255, 0)" height="22" width="122" x="50" y="20"></rect><text x="111" y="35">_annotation*</text></g><path d="M172.0 31h10" /><path d="M182.0 31h10" /><g class="non-terminal ">
<path d="M192.0 31h0.0" /><path d="M305.5 31h0.0" /><rect fill="rgb(0, 255, 0)" height="22" width="113.5" x="192" y="20"></rect><text x="248.75" y="35">(identifier</text></g><path d="M305.5 31h10" /><path d="M315.5 31h10" /><g class="non-terminal ">
<path d="M325.5 31h0.0" /><path d="M362.5 31h0.0" /><rect fill="rgb(0, 255, 0)" height="22" width="37" x="325.5" y="20"></rect><text x="344" y="35">-></text></g><path d="M362.5 31h10" /><path d="M372.5 31h10" /><g class="non-terminal ">
<path d="M382.5 31h0.0" /><path d="M411.0 31h0.0" /><rect fill="rgb(0, 255, 0)" height="22" width="28.5" x="382.5" y="20"></rect><text x="396.75" y="35">)</text></g><path d="M411.0 31h10" /><path d="M421.0 31h10" /><g class="non-terminal ">
<path d="M431.0 31h0.0" /><path d="M544.5 31h0.0" /><rect fill="rgb(0, 255, 0)" height="22" width="113.5" x="431" y="20"></rect><text x="487.75" y="35">type_bound?</text></g></g><path d="M544.5 31h10" /><path d="M 554.5 31 h 20 m -10 -10 v 20 m 10 -20 v 20"></path></g><style>/* <![CDATA[ */
	svg.railroad-diagram {
		background-color:hsl(30,20%,95%);
	}
	svg.railroad-diagram path {
		stroke-width:3;
		stroke:black;
		fill:rgba(0,0,0,0);
	}
	svg.railroad-diagram text {
		font:bold 14px monospace;
		text-anchor:middle;
	}
	svg.railroad-diagram text.label{
		text-anchor:start;
	}
	svg.railroad-diagram text.comment{
		font:italic 12px monospace;
	}
	svg.railroad-diagram rect{
		stroke-width:3;
		stroke:black;
		fill:hsl(120,100%,90%);
	}
	svg.railroad-diagram rect.group-box {
		stroke: gray;
		stroke-dasharray: 10 5;
		fill: none;
	}

/* ]]> */
</style></svg>