<svg class="railroad-diagram" height="62" viewBox="0 0 2191.5 62" width="2191.5" xmlns="http://www.w3.org/2000/svg" xmlns:xlink="http://www.w3.org/1999/xlink">
<g transform="translate(.5 .5)">
<g>
<path d="M20 21v20m10 -20v20m-10 -10h20" /></g><path d="M40 31h10" /><g>
<path d="M50 31h0.0" /><path d="M2141.5 31h0.0" /><g class="non-terminal ">
<path d="M50.0 31h0.0" /><path d="M146.5 31h0.0" /><rect fill="rgb(0, 255, 0)" height="22" width="96.5" x="50" y="20"></rect><text x="98.25" y="35">&lt;15((&apos;+&apos;:</text></g><path d="M146.5 31h10" /><path d="M156.5 31h10" /><g class="non-terminal ">
<path d="M166.5 31h0.0" /><path d="M263.0 31h0.0" /><rect fill="rgb(0, 255, 0)" height="22" width="96.5" x="166.5" y="20"></rect><text x="214.75" y="35">operator)</text></g><path d="M263.0 31h10" /><path d="M273.0 31h10" /><g class="non-terminal ">
<path d="M283.0 31h0.0" /><path d="M405.0 31h0.0" /><rect fill="rgb(0, 255, 0)" height="22" width="122" x="283" y="20"></rect><text x="344" y="35">(expression:</text></g><path d="M405.0 31h10" /><path d="M415.0 31h10" /><g class="non-terminal ">
<path d="M425.0 31h0.0" /><path d="M521.5 31h0.0" /><rect fill="rgb(0, 255, 0)" height="22" width="96.5" x="425" y="20"></rect><text x="473.25" y="35">operand))</text></g><path d="M521.5 31h10" /><path d="M531.5 31h10" /><g class="non-terminal ">
<path d="M541.5 31h0.0" /><path d="M570.0 31h0.0" /><rect fill="rgb(0, 255, 0)" height="22" width="28.5" x="541.5" y="20"></rect><text x="555.75" y="35">|</text></g><path d="M570.0 31h10" /><path d="M580.0 31h10" /><g class="non-terminal ">
<path d="M590.0 31h0.0" /><path d="M686.5 31h0.0" /><rect fill="rgb(0, 255, 0)" height="22" width="96.5" x="590" y="20"></rect><text x="638.25" y="35">&lt;15((&apos;-&apos;:</text></g><path d="M686.5 31h10" /><path d="M696.5 31h10" /><g class="non-terminal ">
<path d="M706.5 31h0.0" /><path d="M803.0 31h0.0" /><rect fill="rgb(0, 255, 0)" height="22" width="96.5" x="706.5" y="20"></rect><text x="754.75" y="35">operator)</text></g><path d="M803.0 31h10" /><path d="M813.0 31h10" /><g class="non-terminal ">
<path d="M823.0 31h0.0" /><path d="M945.0 31h0.0" /><rect fill="rgb(0, 255, 0)" height="22" width="122" x="823" y="20"></rect><text x="884" y="35">(expression:</text></g><path d="M945.0 31h10" /><path d="M955.0 31h10" /><g class="non-terminal ">
<path d="M965.0 31h0.0" /><path d="M1061.5 31h0.0" /><rect fill="rgb(0, 255, 0)" height="22" width="96.5" x="965" y="20"></rect><text x="1013.25" y="35">operand))</text></g><path d="M1061.5 31h10" /><path d="M1071.5 31h10" /><g class="non-terminal ">
<path d="M1081.5 31h0.0" /><path d="M1110.0 31h0.0" /><rect fill="rgb(0, 255, 0)" height="22" width="28.5" x="1081.5" y="20"></rect><text x="1095.75" y="35">|</text></g><path d="M1110.0 31h10" /><path d="M1120.0 31h10" /><g class="non-terminal ">
<path d="M1130.0 31h0.0" /><path d="M1226.5 31h0.0" /><rect fill="rgb(0, 255, 0)" height="22" width="96.5" x="1130" y="20"></rect><text x="1178.25" y="35">&lt;15((&apos;!&apos;:</text></g><path d="M1226.5 31h10" /><path d="M1236.5 31h10" /><g class="non-terminal ">
<path d="M1246.5 31h0.0" /><path d="M1343.0 31h0.0" /><rect fill="rgb(0, 255, 0)" height="22" width="96.5" x="1246.5" y="20"></rect><text x="1294.75" y="35">operator)</text></g><path d="M1343.0 31h10" /><path d="M1353.0 31h10" /><g class="non-terminal ">
<path d="M1363.0 31h0.0" /><path d="M1485.0 31h0.0" /><rect fill="rgb(0, 255, 0)" height="22" width="122" x="1363" y="20"></rect><text x="1424" y="35">(expression:</text></g><path d="M1485.0 31h10" /><path d="M1495.0 31h10" /><g class="non-terminal ">
<path d="M1505.0 31h0.0" /><path d="M1601.5 31h0.0" /><rect fill="rgb(0, 255, 0)" height="22" width="96.5" x="1505" y="20"></rect><text x="1553.25" y="35">operand))</text></g><path d="M1601.5 31h10" /><path d="M1611.5 31h10" /><g class="non-terminal ">
<path d="M1621.5 31h0.0" /><path d="M1650.0 31h0.0" /><rect fill="rgb(0, 255, 0)" height="22" width="28.5" x="1621.5" y="20"></rect><text x="1635.75" y="35">|</text></g><path d="M1650.0 31h10" /><path d="M1660.0 31h10" /><g class="non-terminal ">
<path d="M1670.0 31h0.0" /><path d="M1766.5 31h0.0" /><rect fill="rgb(0, 255, 0)" height="22" width="96.5" x="1670" y="20"></rect><text x="1718.25" y="35">&lt;15((&apos;~&apos;:</text></g><path d="M1766.5 31h10" /><path d="M1776.5 31h10" /><g class="non-terminal ">
<path d="M1786.5 31h0.0" /><path d="M1883.0 31h0.0" /><rect fill="rgb(0, 255, 0)" height="22" width="96.5" x="1786.5" y="20"></rect><text x="1834.75" y="35">operator)</text></g><path d="M1883.0 31h10" /><path d="M1893.0 31h10" /><g class="non-terminal ">
<path d="M1903.0 31h0.0" /><path d="M2025.0 31h0.0" /><rect fill="rgb(0, 255, 0)" height="22" width="122" x="1903" y="20"></rect><text x="1964" y="35">(expression:</text></g><path d="M2025.0 31h10" /><path d="M2035.0 31h10" /><g class="non-terminal ">
<path d="M2045.0 31h0.0" /><path d="M2141.5 31h0.0" /><rect fill="rgb(0, 255, 0)" height="22" width="96.5" x="2045" y="20"></rect><text x="2093.25" y="35">operand))</text></g></g><path d="M2141.5 31h10" /><path d="M 2151.5 31 h 20 m -10 -10 v 20 m 10 -20 v 20"></path></g><style>/* <![CDATA[ */
	svg.railroad-diagram {
		background-color:hsl(30,20%,95%);
	}
	svg.railroad-diagram path {
		stroke-width:3;
		stroke:black;
		fill:rgba(0,0,0,0);
	}
	svg.railroad-diagram text {
		font:bold 14px monospace;
		text-anchor:middle;
	}
	svg.railroad-diagram text.label{
		text-anchor:start;
	}
	svg.railroad-diagram text.comment{
		font:italic 12px monospace;
	}
	svg.railroad-diagram rect{
		stroke-width:3;
		stroke:black;
		fill:hsl(120,100%,90%);
	}
	svg.railroad-diagram rect.group-box {
		stroke: gray;
		stroke-dasharray: 10 5;
		fill: none;
	}

/* ]]> */
</style></svg>