<svg class="railroad-diagram" height="62" viewBox="0 0 1132.0 62" width="1132.0" xmlns="http://www.w3.org/2000/svg" xmlns:xlink="http://www.w3.org/1999/xlink">
<g transform="translate(.5 .5)">
<g>
<path d="M20 21v20m10 -20v20m-10 -10h20" /></g><path d="M40 31h10" /><g>
<path d="M50 31h0.0" /><path d="M1082.0 31h0.0" /><g class="non-terminal ">
<path d="M50.0 31h0.0" /><path d="M197.5 31h0.0" /><rect fill="rgb(0, 255, 0)" height="22" width="147.5" x="50" y="20"></rect><text x="123.75" y="35">&lt;15((expression</text></g><path d="M197.5 31h10" /><path d="M207.5 31h10" /><g class="non-terminal ">
<path d="M217.5 31h0.0" /><path d="M280.0 31h0.0" /><rect fill="rgb(0, 255, 0)" height="22" width="62.5" x="217.5" y="20"></rect><text x="248.75" y="35">&apos;++&apos;)</text></g><path d="M280.0 31h10" /><path d="M290.0 31h10" /><g class="non-terminal ">
<path d="M300.0 31h0.0" /><path d="M328.5 31h0.0" /><rect fill="rgb(0, 255, 0)" height="22" width="28.5" x="300" y="20"></rect><text x="314.25" y="35">|</text></g><path d="M328.5 31h10" /><path d="M338.5 31h10" /><g class="non-terminal ">
<path d="M348.5 31h0.0" /><path d="M462.0 31h0.0" /><rect fill="rgb(0, 255, 0)" height="22" width="113.5" x="348.5" y="20"></rect><text x="405.25" y="35">(expression</text></g><path d="M462.0 31h10" /><path d="M472.0 31h10" /><g class="non-terminal ">
<path d="M482.0 31h0.0" /><path d="M544.5 31h0.0" /><rect fill="rgb(0, 255, 0)" height="22" width="62.5" x="482" y="20"></rect><text x="513.25" y="35">&apos;--&apos;)</text></g><path d="M544.5 31h10" /><path d="M554.5 31h10" /><g class="non-terminal ">
<path d="M564.5 31h0.0" /><path d="M593.0 31h0.0" /><rect fill="rgb(0, 255, 0)" height="22" width="28.5" x="564.5" y="20"></rect><text x="578.75" y="35">|</text></g><path d="M593.0 31h10" /><path d="M603.0 31h10" /><g class="non-terminal ">
<path d="M613.0 31h0.0" /><path d="M675.5 31h0.0" /><rect fill="rgb(0, 255, 0)" height="22" width="62.5" x="613" y="20"></rect><text x="644.25" y="35">(&apos;++&apos;</text></g><path d="M675.5 31h10" /><path d="M685.5 31h10" /><g class="non-terminal ">
<path d="M695.5 31h0.0" /><path d="M809.0 31h0.0" /><rect fill="rgb(0, 255, 0)" height="22" width="113.5" x="695.5" y="20"></rect><text x="752.25" y="35">expression)</text></g><path d="M809.0 31h10" /><path d="M819.0 31h10" /><g class="non-terminal ">
<path d="M829.0 31h0.0" /><path d="M857.5 31h0.0" /><rect fill="rgb(0, 255, 0)" height="22" width="28.5" x="829" y="20"></rect><text x="843.25" y="35">|</text></g><path d="M857.5 31h10" /><path d="M867.5 31h10" /><g class="non-terminal ">
<path d="M877.5 31h0.0" /><path d="M940.0 31h0.0" /><rect fill="rgb(0, 255, 0)" height="22" width="62.5" x="877.5" y="20"></rect><text x="908.75" y="35">(&apos;--&apos;</text></g><path d="M940.0 31h10" /><path d="M950.0 31h10" /><g class="non-terminal ">
<path d="M960.0 31h0.0" /><path d="M1082.0 31h0.0" /><rect fill="rgb(0, 255, 0)" height="22" width="122" x="960" y="20"></rect><text x="1021" y="35">expression))</text></g></g><path d="M1082.0 31h10" /><path d="M 1092.0 31 h 20 m -10 -10 v 20 m 10 -20 v 20"></path></g><style>/* <![CDATA[ */
	svg.railroad-diagram {
		background-color:hsl(30,20%,95%);
	}
	svg.railroad-diagram path {
		stroke-width:3;
		stroke:black;
		fill:rgba(0,0,0,0);
	}
	svg.railroad-diagram text {
		font:bold 14px monospace;
		text-anchor:middle;
	}
	svg.railroad-diagram text.label{
		text-anchor:start;
	}
	svg.railroad-diagram text.comment{
		font:italic 12px monospace;
	}
	svg.railroad-diagram rect{
		stroke-width:3;
		stroke:black;
		fill:hsl(120,100%,90%);
	}
	svg.railroad-diagram rect.group-box {
		stroke: gray;
		stroke-dasharray: 10 5;
		fill: none;
	}

/* ]]> */
</style></svg>