<svg class="railroad-diagram" height="122" viewBox="0 0 392.0 122" width="392.0" xmlns="http://www.w3.org/2000/svg" xmlns:xlink="http://www.w3.org/1999/xlink">
<g transform="translate(.5 .5)">
<g>
<path d="M20 61v20m10 -20v20m-10 -10h20" /></g><path d="M40 71h10" /><g>
<path d="M50 71h0.0" /><path d="M342.0 71h0.0" /><g>
<path d="M50.0 71h0.0" /><path d="M164.0 71h0.0" /><path d="M50.0 71h10" /><g>
<path d="M60.0 71h0.0" /><path d="M154.0 71h0.0" /><g>
<path d="M60.0 71h0.0" /><path d="M154.0 71h0.0" /><path d="M60.0 71a10 10 0 0 0 10 -10v-11a10 10 0 0 1 10 -10" /><g>
<path d="M80.0 40h54.0" /></g><path d="M134.0 40a10 10 0 0 1 10 10v11a10 10 0 0 0 10 10" /><path d="M60.0 71h20" /><g class="terminal ">
<rect data-text="stat" fill="hsl(120, 100%, 90%)" height="22" stroke="black" stroke-width="3" width="54" x="80" y="60"></rect><text text-anchor="middle" x="107" y="75">stat</text></g><path d="M134.0 71h20" /></g></g><path d="M154.0 71h10" /><path d="M60.0 71a10 10 0 0 0 -10 10v11a10 10 0 0 0 10 10" /><g>
<path d="M60.0 102h94.0" /></g><path d="M154.0 102a10 10 0 0 0 10 -10v-11a10 10 0 0 0 -10 -10" /></g><path d="M164.0 71h10" /><g>
<path d="M174.0 71h0.0" /><path d="M342.0 71h0.0" /><path d="M174.0 71a10 10 0 0 0 10 -10v-31a10 10 0 0 1 10 -10" /><g>
<path d="M194.0 20h128.0" /></g><path d="M322.0 20a10 10 0 0 1 10 10v31a10 10 0 0 0 10 10" /><path d="M174.0 71h20" /><g>
<path d="M194.0 71h0.0" /><path d="M322.0 71h0.0" /><g>
<path d="M194.0 71h0.0" /><path d="M322.0 71h0.0" /><path d="M194.0 71a10 10 0 0 0 10 -10v-11a10 10 0 0 1 10 -10" /><g>
<path d="M214.0 40h88.0" /></g><path d="M302.0 40a10 10 0 0 1 10 10v11a10 10 0 0 0 10 10" /><path d="M194.0 71h20" /><g class="terminal ">
<rect data-text="laststat" fill="hsl(120, 100%, 90%)" height="22" stroke="black" stroke-width="3" width="88" x="214" y="60"></rect><text text-anchor="middle" x="258" y="75">laststat</text></g><path d="M302.0 71h20" /></g></g><path d="M322.0 71h20" /></g></g><path d="M342.0 71h10" /><path d="M 352.0 71 h 20 m -10 -10 v 20 m 10 -20 v 20"></path></g><style>/* <![CDATA[ */
	svg.railroad-diagram {
		background-color:hsl(30,20%,95%);
	}
	svg.railroad-diagram path {
		stroke-width:3;
		stroke:black;
		fill:rgba(0,0,0,0);
	}
	svg.railroad-diagram text {
		font:bold 14px monospace;
		text-anchor:middle;
	}
	svg.railroad-diagram text.label{
		text-anchor:start;
	}
	svg.railroad-diagram text.comment{
		font:italic 12px monospace;
	}
	svg.railroad-diagram rect{
		stroke-width:3;
		stroke:black;
		fill:hsl(120,100%,90%);
	}
	svg.railroad-diagram rect.group-box {
		stroke: gray;
		stroke-dasharray: 10 5;
		fill: none;
	}

/* ]]> */
</style></svg>